<svg width="24" height="25" viewBox="0 0 24 25" fill="none" xmlns="http://www.w3.org/2000/svg">
<path d="M4.372 7.764C4.38425 7.64227 4.36784 7.51935 4.32408 7.4051C4.28033 7.29084 4.21043 7.18841 4.12 7.106L2.252 4.839V4.5H8.05L12.532 14.405L16.472 4.5H22V4.839L20.403 6.38C20.3353 6.43225 20.2831 6.50189 20.2519 6.5815C20.2208 6.66111 20.2118 6.74769 20.226 6.832V18.166C20.2118 18.2503 20.2208 18.3369 20.2519 18.4165C20.2831 18.4961 20.3353 18.5658 20.403 18.618L21.963 20.16V20.5H14.119V20.161L15.735 18.581C15.894 18.421 15.894 18.374 15.894 18.13V8.968L11.402 20.462H10.796L5.566 8.968V16.672C5.523 16.995 5.63 17.322 5.856 17.556L7.957 20.124V20.462H2V20.124L4.1 17.556C4.21111 17.4401 4.29358 17.2997 4.3408 17.1462C4.38803 16.9928 4.39871 16.8304 4.372 16.672V7.764Z" fill="#FBFBFC"/>
</svg>
