<svg width="24" height="25" viewBox="0 0 24 25" fill="none" xmlns="http://www.w3.org/2000/svg">
<path fill-rule="evenodd" clip-rule="evenodd" d="M9.429 9.469H13.143V11.319C13.678 10.255 15.05 9.299 17.111 9.299C21.062 9.299 22 11.417 22 15.303V22.5H18V16.188C18 13.975 17.465 12.727 16.103 12.727C14.214 12.727 13.429 14.072 13.429 16.187V22.5H9.429V9.469ZM2.57 22.33H6.57V9.299H2.57V22.33ZM7.143 5.05C7.14315 5.38528 7.07666 5.71724 6.94739 6.02659C6.81812 6.33594 6.62865 6.61651 6.39 6.852C5.9064 7.33262 5.25181 7.60165 4.57 7.6C3.88939 7.59954 3.23631 7.3312 2.752 6.853C2.51421 6.61671 2.32539 6.33582 2.19634 6.02643C2.0673 5.71704 2.00058 5.38522 2 5.05C2 4.373 2.27 3.725 2.753 3.247C3.23689 2.76816 3.89024 2.4997 4.571 2.5C5.253 2.5 5.907 2.769 6.39 3.247C6.872 3.725 7.143 4.373 7.143 5.05Z" fill="#FBFBFC"/>
</svg>
