<svg width="20" height="20" viewBox="0 0 20 20" fill="none" xmlns="http://www.w3.org/2000/svg">
<path fill-rule="evenodd" clip-rule="evenodd" d="M16 3C16 2.44772 16.4477 2 17 2C17.5523 2 18 2.44772 18 3C18 3.55228 17.5523 4 17 4C16.4477 4 16 3.55228 16 3ZM17 0C15.3431 0 14 1.34315 14 3C14 3.05919 14.0017 3.11797 14.0051 3.17631L5.21149 7.97283C4.66307 7.37487 3.87532 7 3 7C1.34315 7 0 8.34315 0 10C0 11.6569 1.34315 13 3 13C3.87532 13 4.66307 12.6251 5.21149 12.0272L14.0051 16.8237C14.0017 16.882 14 16.9408 14 17C14 18.6569 15.3431 20 17 20C18.6569 20 20 18.6569 20 17C20 15.3431 18.6569 14 17 14C16.1247 14 15.3369 14.3749 14.7885 14.9728L5.9949 10.1763C5.99829 10.118 6 10.0592 6 10C6 9.94081 5.99829 9.88202 5.9949 9.82368L14.7885 5.02717C15.3369 5.62513 16.1247 6 17 6C18.6569 6 20 4.65685 20 3C20 1.34315 18.6569 0 17 0ZM16 17C16 16.4477 16.4477 16 17 16C17.5523 16 18 16.4477 18 17C18 17.5523 17.5523 18 17 18C16.4477 18 16 17.5523 16 17ZM3 9C2.44772 9 2 9.44772 2 10C2 10.5523 2.44772 11 3 11C3.55228 11 4 10.5523 4 10C4 9.44772 3.55228 9 3 9Z" fill="#556176"/>
</svg>
