<svg width="24" height="24" viewBox="0 0 24 24" fill="none" xmlns="http://www.w3.org/2000/svg">
<path fill-rule="evenodd" clip-rule="evenodd" d="M14.0202 2.51033C14.7259 2.17508 15.4883 2 16.2623 2C17.0363 2 17.7987 2.17508 18.5043 2.51033C19.2095 2.8453 19.8406 3.33171 20.3658 3.93419C20.891 4.53609 21.3015 5.24359 21.5797 6.0134C21.858 6.78334 22 7.6048 22 8.43187C22 9.25893 21.858 10.0804 21.5797 10.8503C21.3015 11.6203 20.8908 12.3279 20.3655 12.9299L12.7534 21.6573C12.5635 21.875 12.2887 22 11.9998 22C11.7109 22 11.4361 21.875 11.2462 21.6573L3.63389 12.9297C2.57563 11.7164 2 10.0968 2 8.43187C2 6.76697 2.57563 5.14733 3.63389 3.93402C4.69594 2.71636 6.16807 2.00053 7.73725 2.00053C9.30642 2.00053 10.7786 2.71636 11.8406 3.93402C11.8718 3.96978 11.9004 4.00771 11.9262 4.04754L11.9998 4.16107L12.0733 4.04754C12.0991 4.00778 12.1276 3.9699 12.1588 3.93419C12.684 3.33171 13.3151 2.8453 14.0202 2.51033ZM16.2623 4C15.792 4 15.3223 4.10599 14.8784 4.31684C14.4526 4.51916 14.0553 4.81594 13.711 5.19808L12.839 6.54379C12.6547 6.82827 12.3388 7 11.9998 7C11.6608 7 11.3449 6.82827 11.1606 6.54379L10.2886 5.19817C9.57971 4.41156 8.6613 4.00053 7.73725 4.00053C6.79363 4.00053 5.85589 4.42915 5.14113 5.24864C4.42257 6.07248 4 7.2158 4 8.43187C4 9.64794 4.42257 10.7913 5.14113 11.6151L11.9998 19.4787L18.8584 11.6151C19.2132 11.2085 19.5008 10.7186 19.6988 10.1706C19.8969 9.62256 20 9.0314 20 8.43187C20 7.83233 19.8969 7.24117 19.6988 6.69317C19.5008 6.14518 19.2133 5.65536 18.8586 5.24882C18.5042 4.84231 18.0906 4.52796 17.6461 4.31684C17.2023 4.10599 16.7325 4 16.2623 4Z" fill="#D87036"/>
</svg>
