<svg width="16" height="16" viewBox="0 0 16 16" fill="none" xmlns="http://www.w3.org/2000/svg">
<path fill-rule="evenodd" clip-rule="evenodd" d="M8 0C3.58133 0 0 3.582 0 8C0 12.418 3.58133 16 8 16C12.418 16 16 12.418 16 8C16 3.582 12.418 0 8 0ZM8.09333 12.6787C5.51467 12.6787 3.42667 10.5853 3.42667 8C3.42667 5.41467 5.51467 3.32133 8.09333 3.32133C9.35333 3.32133 10.4067 3.786 11.2147 4.54067L9.89867 5.85933V5.85667C9.40867 5.38867 8.78733 5.14867 8.09333 5.14867C6.55333 5.14867 5.302 6.45267 5.302 7.99733C5.302 9.54067 6.55333 10.8487 8.09333 10.8487C9.49067 10.8487 10.4413 10.0473 10.6373 8.94733H8.09333V7.12267H12.4833C12.542 7.436 12.5733 7.76267 12.5733 8.10533C12.5733 10.7787 10.7887 12.6787 8.09333 12.6787Z" fill="black"/>
</svg>
