<svg width="40" height="40" viewBox="0 0 40 40" fill="none" xmlns="http://www.w3.org/2000/svg">
<circle cx="20" cy="20" r="20" fill="#F2F2F2"/>
<path fill-rule="evenodd" clip-rule="evenodd" d="M20 22C23.3137 22 26 19.3137 26 16C26 12.6863 23.3137 10 20 10C16.6863 10 14 12.6863 14 16C14 19.3137 16.6863 22 20 22ZM24 16C24 18.2091 22.2091 20 20 20C17.7909 20 16 18.2091 16 16C16 13.7909 17.7909 12 20 12C22.2091 12 24 13.7909 24 16ZM15 26.5C15 26.4971 15 26.4795 15.0167 26.4421C15.0345 26.4025 15.0717 26.3399 15.1461 26.259C15.299 26.0927 15.5733 25.8889 16.0073 25.6916C16.8735 25.2978 18.2232 25 20 25C21.7768 25 23.1265 25.2978 23.9927 25.6916C24.4267 25.8889 24.701 26.0927 24.8539 26.259C24.9283 26.3399 24.9655 26.4025 24.9832 26.4421C25 26.4795 25 26.4971 25 26.5L25 28.4531V28.873V28.9695V28.9925V28.9982V28.9995C25 29.5518 25.4477 30 26 30C26.5523 30 27 29.5523 27 29V28.9981V28.9925V28.9695V28.873L27 28.4531V26.5C27 25.2483 25.9291 24.3749 24.8204 23.8709C23.6244 23.3272 21.9741 23 20 23C18.0259 23 16.3756 23.3272 15.1796 23.8709C14.0709 24.3749 13 25.2483 13 26.5V26.5073V26.5146V26.522V26.5293V26.5366V26.5439V26.5513V26.5586V26.5659V26.5732V26.5806V26.5879V26.5952V26.6025V26.6098V26.6171V26.6245V26.6318V26.6391V26.6464V26.6537V26.661V26.6683V26.6757V26.683V26.6903V26.6976V26.7049V26.7122V26.7195V26.7268V26.7341V26.7414V26.7487V26.7559V26.7632V26.7705V26.7778V26.7851V26.7924V26.7997V26.8069V26.8142V26.8215V26.8287V26.836V26.8433V26.8505V26.8578V26.865V26.8723V26.8796V26.8868V26.894V26.9013V26.9085V26.9158V26.923V26.9302V26.9374V26.9447V26.9519V26.9591V26.9663V26.9735V26.9807V26.9879V26.9951V27.0023V27.0095V27.0167V27.0239V27.031V27.0382V27.0454V27.0526V27.0597V27.0669V27.074V27.0812V27.0883V27.0955V27.1026V27.1097V27.1168V27.124V27.1311V27.1382V27.1453V27.1524V27.1595V27.1666V27.1737V27.1807V27.1878V27.1949V27.202V27.209V27.2161V27.2231V27.2302V27.2372V27.2442V27.2512V27.2583V27.2653V27.2723V27.2793V27.2863V27.2933V27.3003V27.3072V27.3142V27.3212V27.3281V27.3351V27.342V27.349V27.3559V27.3628V27.3697V27.3766V27.3835V27.3904V27.3973V27.4042V27.4111V27.418V27.4248V27.4317V27.4385V27.4454V27.4522V27.459V27.4659V27.4727V27.4795V27.4863V27.4931V27.4998V27.5066V27.5134V27.5201V27.5269V27.5336V27.5404V27.5471V27.5538V27.5605V27.5672V27.5739V27.5806V27.5872V27.5939V27.6006V27.6072V27.6139V27.6205V27.6271V27.6337V27.6403V27.6469V27.6535V27.6601V27.6667V27.6732V27.6798V27.6863V27.6928V27.6994V27.7059V27.7124V27.7189V27.7254V27.7318V27.7383V27.7447V27.7512V27.7576V27.764V27.7705V27.7769V27.7833V27.7896V27.796V27.8024V27.8087V27.8151V27.8214V27.8277V27.834V27.8403V27.8466V27.8529V27.8592V27.8654V27.8717V27.8779V27.8841V27.8903V27.8965V27.9027V27.9089V27.9151V27.9212V27.9274V27.9335V27.9396V27.9457V27.9518V27.9579V27.964V27.9701V27.9761V27.9821V27.9882V27.9942V28.0002V28.0062V28.0122V28.0181V28.0241V28.03V28.0359V28.0419V28.0478V28.0537V28.0595V28.0654V28.0713V28.0771V28.0829V28.0887V28.0945V28.1003V28.1061V28.1119V28.1176V28.1233V28.1291V28.1348V28.1405V28.1462V28.1518V28.1575V28.1631V28.1687V28.1744V28.18V28.1855V28.1911V28.1967V28.2022V28.2077V28.2132V28.2188V28.2242V28.2297V28.2352V28.2406V28.246V28.2514V28.2568V28.2622V28.2676V28.273V28.2783V28.2836V28.2889V28.2942V28.2995V28.3048V28.31V28.3153V28.3205V28.3257V28.3309V28.336V28.3412V28.3463V28.3515V28.3566V28.3617V28.3667V28.3718V28.3769V28.3819V28.3869V28.3919V28.3969V28.4018V28.4068V28.4117V28.4167V28.4216V28.4264V28.4313V28.4362V28.441V28.4458V28.4506V28.4554V28.4602V28.4649V28.4696V28.4744V28.4791V28.4837V28.4884V28.4931V28.4977V28.5023V28.5069V28.5115V28.516V28.5206V28.5251V28.5296V28.5341V28.5386V28.543V28.5475V28.5519V28.5563V28.5607V28.565V28.5694V28.5737V28.578V28.5823V28.5866V28.5908V28.5951V28.5993V28.6035V28.6077V28.6118V28.616V28.6201V28.6242V28.6283V28.6323V28.6364V28.6404V28.6444V28.6484V28.6524V28.6563V28.6603V28.6642V28.6681V28.6719V28.6758V28.6796V28.6834V28.6872V28.691V28.6948V28.6985V28.7022V28.7059V28.7096V28.7132V28.7169V28.7205V28.7241V28.7276V28.7312V28.7347V28.7382V28.7417V28.7452V28.7486V28.752V28.7555V28.7588V28.7622V28.7655V28.7689V28.7722V28.7754V28.7787V28.7819V28.7852V28.7883V28.7915V28.7947V28.7978V28.8009V28.804V28.8071V28.8101V28.8131V28.8161V28.8191V28.822V28.825V28.8279V28.8308V28.8336V28.8365V28.8393V28.8421V28.8449V28.8476V28.8504V28.8531V28.8558V28.8584V28.8611V28.8637V28.8663V28.8688V28.8714V28.8739V28.8764V28.8789V28.8813V28.8838V28.8862V28.8886V28.8909V28.8933V28.8956V28.8979V28.9001V28.9024V28.9046V28.9068V28.9089V28.9111V28.9132V28.9153V28.9174V28.9194V28.9215V28.9235V28.9254V28.9274V28.9293V28.9312V28.9331V28.935V28.9368V28.9386V28.9404V28.9421V28.9438V28.9456V28.9472V28.9489V28.9505V28.9521V28.9537V28.9552V28.9568V28.9583V28.9598V28.9612V28.9626V28.964V28.9654V28.9667V28.9681V28.9694V28.9706V28.9719V28.9731V28.9743V28.9755V28.9766V28.9777V28.9788V28.9799V28.9809V28.9819V28.9838V28.9857V28.9874V28.989V28.9905V28.9919V28.9932V28.9944V28.9954V28.9968V28.998V28.9991C13 29.5514 13.4477 30 14 30C14.5523 30 15 29.5523 15 29V28.9988V28.9976V28.9964V28.9949V28.9938V28.9925V28.9912V28.9898V28.9882V28.9865V28.9848V28.9829V28.9809V28.9799V28.9788V28.9777V28.9766V28.9755V28.9743V28.9731V28.9719V28.9706V28.9694V28.9681V28.9667V28.9654V28.964V28.9626V28.9612V28.9598V28.9583V28.9568V28.9552V28.9537V28.9521V28.9505V28.9489V28.9472V28.9456V28.9438V28.9421V28.9404V28.9386V28.9368V28.935V28.9331V28.9312V28.9293V28.9274V28.9254V28.9235V28.9215V28.9194V28.9174V28.9153V28.9132V28.9111V28.9089V28.9068V28.9046V28.9024V28.9001V28.8979V28.8956V28.8933V28.8909V28.8886V28.8862V28.8838V28.8813V28.8789V28.8764V28.8739V28.8714V28.8688V28.8663V28.8637V28.8611V28.8584V28.8558V28.8531V28.8504V28.8476V28.8449V28.8421V28.8393V28.8365V28.8336V28.8308V28.8279V28.825V28.822V28.8191V28.8161V28.8131V28.8101V28.8071V28.804V28.8009V28.7978V28.7947V28.7915V28.7883V28.7852V28.7819V28.7787V28.7754V28.7722V28.7689V28.7655V28.7622V28.7588V28.7555V28.752V28.7486V28.7452V28.7417V28.7382V28.7347V28.7312V28.7276V28.7241V28.7205V28.7169V28.7132V28.7096V28.7059V28.7022V28.6985V28.6948V28.691V28.6872V28.6834V28.6796V28.6758V28.6719V28.6681V28.6642V28.6603V28.6563V28.6524V28.6484V28.6444V28.6404V28.6364V28.6323V28.6283V28.6242V28.6201V28.616V28.6118V28.6077V28.6035V28.5993V28.5951V28.5908V28.5866V28.5823V28.578V28.5737V28.5694V28.565V28.5607V28.5563V28.5519V28.5475V28.543V28.5386V28.5341V28.5296V28.5251V28.5206V28.516V28.5115V28.5069V28.5023V28.4977V28.4931V28.4884V28.4837V28.4791V28.4744V28.4696V28.4649V28.4602V28.4554V28.4506V28.4458V28.441V28.4362V28.4313V28.4264V28.4216V28.4167V28.4117V28.4068V28.4018V28.3969V28.3919V28.3869V28.3819V28.3769V28.3718V28.3667V28.3617V28.3566V28.3515V28.3463V28.3412V28.336V28.3309V28.3257V28.3205V28.3153V28.31V28.3048V28.2995V28.2942V28.2889V28.2836V28.2783V28.273V28.2676V28.2622V28.2568V28.2514V28.246V28.2406V28.2352V28.2297V28.2242V28.2188V28.2132V28.2077V28.2022V28.1967V28.1911V28.1855V28.18V28.1744V28.1687V28.1631V28.1575V28.1518V28.1462V28.1405V28.1348V28.1291V28.1233V28.1176V28.1119V28.1061V28.1003V28.0945V28.0887V28.0829V28.0771V28.0713V28.0654V28.0595V28.0537V28.0478V28.0419V28.0359V28.03V28.0241V28.0181V28.0122V28.0062V28.0002V27.9942V27.9882V27.9821V27.9761V27.9701V27.964V27.9579V27.9518V27.9457V27.9396V27.9335V27.9274V27.9212V27.9151V27.9089V27.9027V27.8965V27.8903V27.8841V27.8779V27.8717V27.8654V27.8592V27.8529V27.8466V27.8403V27.834V27.8277V27.8214V27.8151V27.8087V27.8024V27.796V27.7896V27.7833V27.7769V27.7705V27.764V27.7576V27.7512V27.7447V27.7383V27.7318V27.7254V27.7189V27.7124V27.7059V27.6994V27.6928V27.6863V27.6798V27.6732V27.6667V27.6601V27.6535V27.6469V27.6403V27.6337V27.6271V27.6205V27.6139V27.6072V27.6006V27.5939V27.5872V27.5806V27.5739V27.5672V27.5605V27.5538V27.5471V27.5404V27.5336V27.5269V27.5201V27.5134V27.5066V27.4998V27.4931V27.4863V27.4795V27.4727V27.4659V27.459V27.4522V27.4454V27.4385V27.4317V27.4248V27.418V27.4111V27.4042V27.3973V27.3904V27.3835V27.3766V27.3697V27.3628V27.3559V27.349V27.342V27.3351V27.3281V27.3212V27.3142V27.3072V27.3003V27.2933V27.2863V27.2793V27.2723V27.2653V27.2583V27.2512V27.2442V27.2372V27.2302V27.2231V27.2161V27.209V27.202V27.1949V27.1878V27.1807V27.1737V27.1666V27.1595V27.1524V27.1453V27.1382V27.1311V27.124V27.1168V27.1097V27.1026V27.0955V27.0883V27.0812V27.074V27.0669V27.0597V27.0526V27.0454V27.0382V27.031V27.0239V27.0167V27.0095V27.0023V26.9951V26.9879V26.9807V26.9735V26.9663V26.9591V26.9519V26.9447V26.9374V26.9302V26.923V26.9158V26.9085V26.9013V26.894V26.8868V26.8796V26.8723V26.865V26.8578V26.8505V26.8433V26.836V26.8287V26.8215V26.8142V26.8069V26.7997V26.7924V26.7851V26.7778V26.7705V26.7632V26.7559V26.7487V26.7414V26.7341V26.7268V26.7195V26.7122V26.7049V26.6976V26.6903V26.683V26.6757V26.6683V26.661V26.6537V26.6464V26.6391V26.6318V26.6245V26.6171V26.6098V26.6025V26.5952V26.5879V26.5806V26.5732V26.5659V26.5586V26.5513V26.5439V26.5366V26.5293V26.522V26.5146V26.5073V26.5Z" fill="#D87036"/>
<path d="M15.0167 26.4421C15 26.4795 15 26.4971 15 26.5V26.5073V26.5146V26.522V26.5293V26.5366V26.5439V26.5513V26.5586V26.5659V26.5732V26.5806V26.5879V26.5952V26.6025V26.6098V26.6171V26.6245V26.6318V26.6391V26.6464V26.6537V26.661V26.6683V26.6757V26.683V26.6903V26.6976V26.7049V26.7122V26.7195V26.7268V26.7341V26.7414V26.7487V26.7559V26.7632V26.7705V26.7778V26.7851V26.7924V26.7997V26.8069V26.8142V26.8215V26.8287V26.836V26.8433V26.8505V26.8578V26.865V26.8723V26.8796V26.8868V26.894V26.9013V26.9085V26.9158V26.923V26.9302V26.9374V26.9447V26.9519V26.9591V26.9663V26.9735V26.9807V26.9879V26.9951V27.0023V27.0095V27.0167V27.0239V27.031V27.0382V27.0454V27.0526V27.0597V27.0669V27.074V27.0812V27.0883V27.0955V27.1026V27.1097V27.1168V27.124V27.1311V27.1382V27.1453V27.1524V27.1595V27.1666V27.1737V27.1807V27.1878V27.1949V27.202V27.209V27.2161V27.2231V27.2302V27.2372V27.2442V27.2512V27.2583V27.2653V27.2723V27.2793V27.2863V27.2933V27.3003V27.3072V27.3142V27.3212V27.3281V27.3351V27.342V27.349V27.3559V27.3628V27.3697V27.3766V27.3835V27.3904V27.3973V27.4042V27.4111V27.418V27.4248V27.4317V27.4385V27.4454V27.4522V27.459V27.4659V27.4727V27.4795V27.4863V27.4931V27.4998V27.5066V27.5134V27.5201V27.5269V27.5336V27.5404V27.5471V27.5538V27.5605V27.5672V27.5739V27.5806V27.5872V27.5939V27.6006V27.6072V27.6139V27.6205V27.6271V27.6337V27.6403V27.6469V27.6535V27.6601V27.6667V27.6732V27.6798V27.6863V27.6928V27.6994V27.7059V27.7124V27.7189V27.7254V27.7318V27.7383V27.7447V27.7512V27.7576V27.764V27.7705V27.7769V27.7833V27.7896V27.796V27.8024V27.8087V27.8151V27.8214V27.8277V27.834V27.8403V27.8466V27.8529V27.8592V27.8654V27.8717V27.8779V27.8841V27.8903V27.8965V27.9027V27.9089V27.9151V27.9212V27.9274V27.9335V27.9396V27.9457V27.9518V27.9579V27.964V27.9701V27.9761V27.9821V27.9882V27.9942V28.0002V28.0062V28.0122V28.0181V28.0241V28.03V28.0359V28.0419V28.0478V28.0537V28.0595V28.0654V28.0713V28.0771V28.0829V28.0887V28.0945V28.1003V28.1061V28.1119V28.1176V28.1233V28.1291V28.1348V28.1405V28.1462V28.1518V28.1575V28.1631V28.1687V28.1744V28.18V28.1855V28.1911V28.1967V28.2022V28.2077V28.2132V28.2188V28.2242V28.2297V28.2352V28.2406V28.246V28.2514V28.2568V28.2622V28.2676V28.273V28.2783V28.2836V28.2889V28.2942V28.2995V28.3048V28.31V28.3153V28.3205V28.3257V28.3309V28.336V28.3412V28.3463V28.3515V28.3566V28.3617V28.3667V28.3718V28.3769V28.3819V28.3869V28.3919V28.3969V28.4018V28.4068V28.4117V28.4167V28.4216V28.4264V28.4313V28.4362V28.441V28.4458V28.4506V28.4554V28.4602V28.4649V28.4696V28.4744V28.4791V28.4837V28.4884V28.4931V28.4977V28.5023V28.5069V28.5115V28.516V28.5206V28.5251V28.5296V28.5341V28.5386V28.543V28.5475V28.5519V28.5563V28.5607V28.565V28.5694V28.5737V28.578V28.5823V28.5866V28.5908V28.5951V28.5993V28.6035V28.6077V28.6118V28.616V28.6201V28.6242V28.6283V28.6323V28.6364V28.6404V28.6444V28.6484V28.6524V28.6563V28.6603V28.6642V28.6681V28.6719V28.6758V28.6796V28.6834V28.6872V28.691V28.6948V28.6985V28.7022V28.7059V28.7096V28.7132V28.7169V28.7205V28.7241V28.7276V28.7312V28.7347V28.7382V28.7417V28.7452V28.7486V28.752V28.7555V28.7588V28.7622V28.7655V28.7689V28.7722V28.7754V28.7787V28.7819V28.7852V28.7883V28.7915V28.7947V28.7978V28.8009V28.804V28.8071V28.8101V28.8131V28.8161V28.8191V28.822V28.825V28.8279V28.8308V28.8336V28.8365V28.8393V28.8421V28.8449V28.8476V28.8504V28.8531V28.8558V28.8584V28.8611V28.8637V28.8663V28.8688V28.8714V28.8739V28.8764V28.8789V28.8813V28.8838V28.8862V28.8886V28.8909V28.8933V28.8956V28.8979V28.9001V28.9024V28.9046V28.9068V28.9089V28.9111V28.9132V28.9153V28.9174V28.9194V28.9215V28.9235V28.9254V28.9274V28.9293V28.9312V28.9331V28.935V28.9368V28.9386V28.9404V28.9421V28.9438V28.9456V28.9472V28.9489V28.9505V28.9521V28.9537V28.9552V28.9568V28.9583V28.9598V28.9612V28.9626V28.964V28.9654V28.9667V28.9681V28.9694V28.9706V28.9719V28.9731V28.9743V28.9755V28.9766V28.9777V28.9788V28.9799V28.9809V28.9829V28.9848V28.9865V28.9882V28.9898V28.9912V28.9925V28.9938V28.9949V28.9964V28.9976V28.9988V29C15 29.5523 14.5523 30 14 30H26C25.4477 30 25 29.5518 25 28.9995V28.9982V28.9925V28.9695V28.873V28.4531L25 26.5C25 26.4971 25 26.4795 24.9832 26.4421C24.9655 26.4025 24.9283 26.3399 24.8539 26.259C24.701 26.0927 24.4267 25.8889 23.9927 25.6916C23.1265 25.2978 21.7768 25 20 25C18.2232 25 16.8735 25.2978 16.0073 25.6916C15.5733 25.8889 15.299 26.0927 15.1461 26.259C15.0717 26.3399 15.0345 26.4025 15.0167 26.4421Z" fill="#D87036"/>
<path d="M20 20C22.2091 20 24 18.2091 24 16C24 13.7909 22.2091 12 20 12C17.7909 12 16 13.7909 16 16C16 18.2091 17.7909 20 20 20Z" fill="#D87036"/>
</svg>
