<svg width="40" height="40" viewBox="0 0 40 40" fill="none" xmlns="http://www.w3.org/2000/svg">
<circle cx="20" cy="20" r="20" fill="#F2F2F2"/>
<path fill-rule="evenodd" clip-rule="evenodd" d="M17 11C17 10.4477 16.5523 10 16 10C15.4477 10 15 10.4477 15 11V12H13C11.8954 12 11 12.8954 11 14V19V28C11 29.1046 11.8954 30 13 30H27C28.1046 30 29 29.1046 29 28V19V14C29 12.8954 28.1046 12 27 12H25V11C25 10.4477 24.5523 10 24 10C23.4477 10 23 10.4477 23 11V12H17V11ZM27 18V14H25V15C25 15.5523 24.5523 16 24 16C23.4477 16 23 15.5523 23 15V14H17V15C17 15.5523 16.5523 16 16 16C15.4477 16 15 15.5523 15 15V14H13V18H27ZM13 20H27V28H13V20Z" fill="#D87036"/>
<path d="M27 14V18H13V14H15V15C15 15.5523 15.4477 16 16 16C16.5523 16 17 15.5523 17 15V14H23V15C23 15.5523 23.4477 16 24 16C24.5523 16 25 15.5523 25 15V14H27Z" fill="#D87036"/>
<path d="M27 20H13V28H27V20Z" fill="#D87036"/>
</svg>
