<svg width="40" height="40" viewBox="0 0 40 40" fill="none" xmlns="http://www.w3.org/2000/svg">
<circle cx="20" cy="20" r="20" fill="#F2F2F2"/>
<path fill-rule="evenodd" clip-rule="evenodd" d="M11.4871 18.9485C10.9064 18.9485 10.4356 19.4192 10.4356 20C10.4356 20.5808 10.9064 21.0515 11.4871 21.0515L18.8479 21.0515L18.8479 28.4124C18.8479 28.9931 19.3187 29.4639 19.8995 29.4639C20.4802 29.4639 20.951 28.9931 20.951 28.4124L20.951 21.0515H28.3119C28.8926 21.0515 29.3634 20.5808 29.3634 20C29.3634 19.4192 28.8926 18.9485 28.3119 18.9485H20.951L20.951 11.5876C20.951 11.0069 20.4802 10.5361 19.8995 10.5361C19.3187 10.5361 18.8479 11.0069 18.8479 11.5876L18.8479 18.9485L11.4871 18.9485Z" fill="#D87036"/>
</svg>
