<svg width="33" height="32" viewBox="0 0 33 32" fill="none" xmlns="http://www.w3.org/2000/svg">
<path fill-rule="evenodd" clip-rule="evenodd" d="M20.4379 10.6665C20.4379 15.0848 16.8562 18.6665 12.4379 18.6665C8.01964 18.6665 4.43791 15.0848 4.43791 10.6665C4.43791 6.24823 8.01964 2.6665 12.4379 2.6665C16.8562 2.6665 20.4379 6.24823 20.4379 10.6665ZM12.4379 15.9998C15.3834 15.9998 17.7712 13.612 17.7712 10.6665C17.7712 7.72099 15.3834 5.33317 12.4379 5.33317C9.49239 5.33317 7.10458 7.72099 7.10458 10.6665C7.10458 13.612 9.49239 15.9998 12.4379 15.9998ZM7.13785 23.5836C5.91229 24.1541 5.83366 24.6519 5.83366 24.6665V24.6763V24.686V24.6958V24.7056V24.7153V24.7251V24.7349V24.7446V24.7544V24.7642V24.7739V24.7837V24.7934V24.8032V24.8129V24.8227V24.8325V24.8422V24.852V24.8617V24.8715V24.8812V24.891V24.9007V24.9105V24.9202V24.9299V24.9397V24.9494V24.9591V24.9689V24.9786V24.9883V24.998V25.0078V25.0175V25.0272V25.0369V25.0466V25.0563V25.066V25.0757V25.0854V25.0951V25.1048V25.1145V25.1242V25.1339V25.1436V25.1532V25.1629V25.1726V25.1822V25.1919V25.2015V25.2112V25.2208V25.2305V25.2401V25.2498V25.2594V25.269V25.2786V25.2882V25.2979V25.3075V25.3171V25.3267V25.3363V25.3458V25.3554V25.365V25.3746V25.3841V25.3937V25.4032V25.4128V25.4223V25.4319V25.4414V25.4509V25.4604V25.47V25.4795V25.489V25.4984V25.5079V25.5174V25.5269V25.5364V25.5458V25.5553V25.5647V25.5742V25.5836V25.593V25.6024V25.6118V25.6213V25.6306V25.64V25.6494V25.6588V25.6682V25.6775V25.6869V25.6962V25.7055V25.7149V25.7242V25.7335V25.7428V25.7521V25.7614V25.7707V25.7799V25.7892V25.7984V25.8077V25.8169V25.8261V25.8354V25.8446V25.8538V25.863V25.8721V25.8813V25.8905V25.8996V25.9088V25.9179V25.927V25.9361V25.9452V25.9543V25.9634V25.9725V25.9815V25.9906V25.9996V26.0086V26.0177V26.0267V26.0357V26.0447V26.0536V26.0626V26.0716V26.0805V26.0894V26.0984V26.1073V26.1162V26.1251V26.1339V26.1428V26.1517V26.1605V26.1693V26.1781V26.1869V26.1957V26.2045V26.2133V26.2221V26.2308V26.2395V26.2482V26.257V26.2657V26.2743V26.283V26.2917V26.3003V26.3089V26.3176V26.3262V26.3348V26.3433V26.3519V26.3604V26.369V26.3775V26.386V26.3945V26.403V26.4115V26.4199V26.4284V26.4368V26.4452V26.4536V26.462V26.4704V26.4787V26.4871V26.4954V26.5037V26.512V26.5203V26.5286V26.5368V26.545V26.5533V26.5615V26.5697V26.5778V26.586V26.5942V26.6023V26.6104V26.6185V26.6266V26.6346V26.6427V26.6507V26.6588V26.6668V26.6747V26.6827V26.6907V26.6986V26.7065V26.7144V26.7223V26.7302V26.7381V26.7459V26.7537V26.7615V26.7693V26.7771V26.7848V26.7926V26.8003V26.808V26.8157V26.8233V26.831V26.8386V26.8462V26.8538V26.8614V26.8689V26.8765V26.884V26.8915V26.899V26.9064V26.9139V26.9213V26.9287V26.9361V26.9435V26.9508V26.9582V26.9655V26.9728V26.9801V26.9873V26.9946V27.0018V27.009V27.0161V27.0233V27.0304V27.0376V27.0447V27.0517V27.0588V27.0658V27.0729V27.0799V27.0868V27.0938V27.1007V27.1077V27.1146V27.1214V27.1283V27.1351V27.1419V27.1487V27.1555V27.1623V27.169V27.1757V27.1824V27.189V27.1957V27.2023V27.2089V27.2155V27.222V27.2286V27.2351V27.2416V27.248V27.2545V27.2609V27.2673V27.2737V27.2801V27.2864V27.2927V27.299V27.3053V27.3115V27.3177V27.3239V27.3301V27.3362V27.3424V27.3485V27.3546V27.3606V27.3666V27.3727V27.3786V27.3846V27.3905V27.3965V27.4023V27.4082V27.4141V27.4199V27.4257V27.4314V27.4372V27.4429V27.4486V27.4543V27.4599V27.4655V27.4711V27.4767V27.4823V27.4878V27.4933V27.4988V27.5042V27.5096V27.515V27.5204V27.5257V27.531V27.5363V27.5416V27.5469V27.5521V27.5573V27.5624V27.5676V27.5727V27.5777V27.5828V27.5878V27.5928V27.5978V27.6028V27.6077V27.6126V27.6175V27.6223V27.6271V27.6319V27.6367V27.6414V27.6461V27.6508V27.6554V27.6601V27.6647V27.6692V27.6738V27.6783V27.6828V27.6872V27.6917V27.6961V27.7004V27.7048V27.7091V27.7134V27.7176V27.7219V27.7261V27.7302V27.7344V27.7385V27.7426V27.7466V27.7507V27.7547V27.7586V27.7626V27.7665V27.7704V27.7742V27.778V27.7818V27.7856V27.7893V27.793V27.7967V27.8003V27.8039V27.8075V27.8111V27.8146V27.8181V27.8215V27.8249V27.8283V27.8317V27.835V27.8383V27.8416V27.8449V27.8481V27.8512V27.8544V27.8575V27.8606V27.8636V27.8667V27.8697V27.8726V27.8755V27.8784V27.8813V27.8841V27.8869V27.8897V27.8924V27.8951V27.8978V27.9004V27.903V27.9056V27.9081V27.9106V27.9131V27.9155V27.918V27.9203V27.9227V27.925V27.9272V27.9295V27.9317V27.9339V27.936V27.9381V27.9402V27.9422V27.9442V27.9462V27.9481V27.95V27.9519V27.9537V27.9555V27.9573V27.959V27.9607V27.9623V27.964V27.9656V27.9671V27.9686V27.9701V27.9716V27.973V27.9744V27.9757V27.9783V27.9807V27.983V27.9852V27.9872V27.989V27.9907V27.9923V27.9937V27.9956V27.9971V27.9986C5.83366 28.735 5.23671 29.3332 4.50033 29.3332C3.76395 29.3332 3.16699 28.7362 3.16699 27.9998V27.9983V27.9966V27.995V27.993V27.9915V27.9899V27.9881V27.9862V27.9841V27.9819V27.9795V27.977V27.9744V27.973V27.9716V27.9701V27.9686V27.9671V27.9656V27.964V27.9623V27.9607V27.959V27.9573V27.9555V27.9537V27.9519V27.95V27.9481V27.9462V27.9442V27.9422V27.9402V27.9381V27.936V27.9339V27.9317V27.9295V27.9272V27.925V27.9227V27.9203V27.918V27.9155V27.9131V27.9106V27.9081V27.9056V27.903V27.9004V27.8978V27.8951V27.8924V27.8897V27.8869V27.8841V27.8813V27.8784V27.8755V27.8726V27.8697V27.8667V27.8636V27.8606V27.8575V27.8544V27.8512V27.8481V27.8449V27.8416V27.8383V27.835V27.8317V27.8283V27.8249V27.8215V27.8181V27.8146V27.8111V27.8075V27.8039V27.8003V27.7967V27.793V27.7893V27.7856V27.7818V27.778V27.7742V27.7704V27.7665V27.7626V27.7586V27.7547V27.7507V27.7466V27.7426V27.7385V27.7344V27.7302V27.7261V27.7219V27.7176V27.7134V27.7091V27.7048V27.7004V27.6961V27.6917V27.6872V27.6828V27.6783V27.6738V27.6692V27.6647V27.6601V27.6554V27.6508V27.6461V27.6414V27.6367V27.6319V27.6271V27.6223V27.6175V27.6126V27.6077V27.6028V27.5978V27.5928V27.5878V27.5828V27.5777V27.5727V27.5676V27.5624V27.5573V27.5521V27.5469V27.5416V27.5363V27.531V27.5257V27.5204V27.515V27.5096V27.5042V27.4988V27.4933V27.4878V27.4823V27.4767V27.4711V27.4655V27.4599V27.4543V27.4486V27.4429V27.4372V27.4314V27.4257V27.4199V27.4141V27.4082V27.4023V27.3965V27.3905V27.3846V27.3786V27.3727V27.3666V27.3606V27.3546V27.3485V27.3424V27.3362V27.3301V27.3239V27.3177V27.3115V27.3053V27.299V27.2927V27.2864V27.2801V27.2737V27.2673V27.2609V27.2545V27.248V27.2416V27.2351V27.2286V27.222V27.2155V27.2089V27.2023V27.1957V27.189V27.1824V27.1757V27.169V27.1623V27.1555V27.1487V27.1419V27.1351V27.1283V27.1214V27.1146V27.1077V27.1007V27.0938V27.0868V27.0799V27.0729V27.0658V27.0588V27.0517V27.0447V27.0376V27.0304V27.0233V27.0161V27.009V27.0018V26.9946V26.9873V26.9801V26.9728V26.9655V26.9582V26.9508V26.9435V26.9361V26.9287V26.9213V26.9139V26.9064V26.899V26.8915V26.884V26.8765V26.8689V26.8614V26.8538V26.8462V26.8386V26.831V26.8233V26.8157V26.808V26.8003V26.7926V26.7848V26.7771V26.7693V26.7615V26.7537V26.7459V26.7381V26.7302V26.7223V26.7144V26.7065V26.6986V26.6907V26.6827V26.6747V26.6668V26.6588V26.6507V26.6427V26.6346V26.6266V26.6185V26.6104V26.6023V26.5942V26.586V26.5778V26.5697V26.5615V26.5533V26.545V26.5368V26.5286V26.5203V26.512V26.5037V26.4954V26.4871V26.4787V26.4704V26.462V26.4536V26.4452V26.4368V26.4284V26.4199V26.4115V26.403V26.3945V26.386V26.3775V26.369V26.3604V26.3519V26.3433V26.3348V26.3262V26.3176V26.3089V26.3003V26.2917V26.283V26.2743V26.2657V26.257V26.2482V26.2395V26.2308V26.2221V26.2133V26.2045V26.1957V26.1869V26.1781V26.1693V26.1605V26.1517V26.1428V26.1339V26.1251V26.1162V26.1073V26.0984V26.0894V26.0805V26.0716V26.0626V26.0536V26.0447V26.0357V26.0267V26.0177V26.0086V25.9996V25.9906V25.9815V25.9725V25.9634V25.9543V25.9452V25.9361V25.927V25.9179V25.9088V25.8996V25.8905V25.8813V25.8721V25.863V25.8538V25.8446V25.8354V25.8261V25.8169V25.8077V25.7984V25.7892V25.7799V25.7707V25.7614V25.7521V25.7428V25.7335V25.7242V25.7149V25.7055V25.6962V25.6869V25.6775V25.6682V25.6588V25.6494V25.64V25.6306V25.6213V25.6118V25.6024V25.593V25.5836V25.5742V25.5647V25.5553V25.5458V25.5364V25.5269V25.5174V25.5079V25.4984V25.489V25.4795V25.47V25.4604V25.4509V25.4414V25.4319V25.4223V25.4128V25.4032V25.3937V25.3841V25.3746V25.365V25.3554V25.3458V25.3363V25.3267V25.3171V25.3075V25.2979V25.2882V25.2786V25.269V25.2594V25.2498V25.2401V25.2305V25.2208V25.2112V25.2015V25.1919V25.1822V25.1726V25.1629V25.1532V25.1436V25.1339V25.1242V25.1145V25.1048V25.0951V25.0854V25.0757V25.066V25.0563V25.0466V25.0369V25.0272V25.0175V25.0078V24.998V24.9883V24.9786V24.9689V24.9591V24.9494V24.9397V24.9299V24.9202V24.9105V24.9007V24.891V24.8812V24.8715V24.8617V24.852V24.8422V24.8325V24.8227V24.8129V24.8032V24.7934V24.7837V24.7739V24.7642V24.7544V24.7446V24.7349V24.7251V24.7153V24.7056V24.6958V24.686V24.6763V24.6665C3.16699 23.0144 4.5527 21.8456 6.01249 21.166C7.5782 20.4372 9.73587 19.9998 12.3131 19.9998C14.8903 19.9998 17.048 20.4372 18.6137 21.166C20.0735 21.8456 21.4592 23.0144 21.4592 24.6665L21.4592 27.2707V27.8306V27.9591V27.9899V27.9974V27.9992C21.4592 28.7356 20.8622 29.3332 20.1258 29.3332C19.3895 29.3332 18.7925 28.7362 18.7925 27.9998V27.9974V27.9899V27.9591V27.8306V27.2707L18.7925 24.6665C18.7925 24.6519 18.7139 24.1541 17.4883 23.5836C16.3687 23.0624 14.62 22.6665 12.3131 22.6665C10.0062 22.6665 8.2575 23.0624 7.13785 23.5836ZM21.463 5.84277C21.463 5.10639 22.06 4.50944 22.7964 4.50944C26.4783 4.50944 29.463 7.49421 29.463 11.1761C29.463 14.858 26.4783 17.8428 22.7964 17.8428C22.06 17.8428 21.463 17.2458 21.463 16.5094C21.463 15.7731 22.06 15.1761 22.7964 15.1761C25.0055 15.1761 26.7964 13.3852 26.7964 11.1761C26.7964 8.96697 25.0055 7.17611 22.7964 7.17611C22.06 7.17611 21.463 6.57915 21.463 5.84277ZM22.2525 21.442C22.2525 20.7056 22.4306 19.9998 23.167 19.9998C25.4169 19.9998 27.0905 20.629 28.2199 21.633C29.3367 22.6259 29.8337 23.914 29.8337 25.0369V25.0499V25.0628V25.0758V25.0887V25.1016V25.1144V25.1272V25.14V25.1527V25.1654V25.1781V25.1907V25.2033V25.2159V25.2284V25.2409V25.2534V25.2658V25.2782V25.2906V25.3029V25.3152V25.3275V25.3397V25.3519V25.3641V25.3762V25.3883V25.4004V25.4124V25.4244V25.4364V25.4483V25.4602V25.4721V25.4839V25.4957V25.5075V25.5192V25.5309V25.5426V25.5543V25.5659V25.5774V25.589V25.6005V25.612V25.6234V25.6348V25.6462V25.6576V25.6689V25.6802V25.6914V25.7027V25.7138V25.725V25.7361V25.7472V25.7583V25.7693V25.7803V25.7913V25.8022V25.8131V25.824V25.8348V25.8456V25.8564V25.8671V25.8779V25.8885V25.8992V25.9098V25.9204V25.931V25.9415V25.952V25.9624V25.9729V25.9833V25.9936V26.004V26.0143V26.0245V26.0348V26.045V26.0552V26.0653V26.0754V26.0855V26.0956V26.1056V26.1156V26.1256V26.1355V26.1454V26.1553V26.1651V26.1749V26.1847V26.1945V26.2042V26.2139V26.2235V26.2332V26.2428V26.2523V26.2619V26.2714V26.2808V26.2903V26.2997V26.3091V26.3184V26.3278V26.3371V26.3463V26.3556V26.3648V26.3739V26.3831V26.3922V26.4013V26.4103V26.4194V26.4284V26.4373V26.4463V26.4552V26.4641V26.4729V26.4817V26.4905V26.4993V26.508V26.5167V26.5254V26.534V26.5426V26.5512V26.5598V26.5683V26.5768V26.5853V26.5937V26.6021V26.6105V26.6188V26.6272V26.6354V26.6437V26.6519V26.6602V26.6683V26.6765V26.6846V26.6927V26.7008V26.7088V26.7168V26.7248V26.7327V26.7406V26.7485V26.7564V26.7642V26.772V26.7798V26.7876V26.7953V26.803V26.8106V26.8183V26.8259V26.8335V26.841V26.8485V26.856V26.8635V26.8709V26.8783V26.8857V26.8931V26.9004V26.9077V26.915V26.9222V26.9294V26.9366V26.9438V26.9509V26.958V26.9651V26.9722V26.9792V26.9862V26.9932V27.0001V27.007V27.0139V27.0208V27.0276V27.0344V27.0412V27.0479V27.0547V27.0614V27.068V27.0747V27.0813V27.0879V27.0944V27.101V27.1075V27.114V27.1204V27.1269V27.1333V27.1396V27.146V27.1523V27.1586V27.1649V27.1711V27.1773V27.1835V27.1897V27.1958V27.2019V27.208V27.2141V27.2201V27.2261V27.2321V27.2381V27.244V27.2499V27.2558V27.2616V27.2674V27.2732V27.279V27.2847V27.2905V27.2962V27.3018V27.3075V27.3131V27.3187V27.3242V27.3298V27.3353V27.3408V27.3463V27.3517V27.3571V27.3625V27.3678V27.3732V27.3785V27.3838V27.389V27.3943V27.3995V27.4047V27.4098V27.415V27.4201V27.4252V27.4302V27.4353V27.4403V27.4453V27.4502V27.4552V27.4601V27.465V27.4698V27.4746V27.4795V27.4842V27.489V27.4937V27.4985V27.5032V27.5078V27.5125V27.5171V27.5217V27.5262V27.5308V27.5353V27.5398V27.5443V27.5487V27.5531V27.5575V27.5619V27.5663V27.5706V27.5749V27.5792V27.5834V27.5877V27.5919V27.596V27.6002V27.6043V27.6084V27.6125V27.6166V27.6206V27.6247V27.6287V27.6326V27.6366V27.6405V27.6444V27.6483V27.6521V27.656V27.6598V27.6635V27.6673V27.671V27.6748V27.6785V27.6821V27.6858V27.6894V27.693V27.6966V27.7001V27.7037V27.7072V27.7106V27.7141V27.7176V27.721V27.7244V27.7277V27.7311V27.7344V27.7377V27.741V27.7443V27.7475V27.7507V27.7539V27.7571V27.7602V27.7633V27.7664V27.7695V27.7726V27.7756V27.7786V27.7816V27.7846V27.7875V27.7905V27.7934V27.7963V27.7991V27.802V27.8048V27.8076V27.8103V27.8131V27.8158V27.8185V27.8212V27.8239V27.8265V27.8292V27.8318V27.8343V27.8369V27.8394V27.842V27.8444V27.8469V27.8494V27.8518V27.8542V27.8566V27.859V27.8613V27.8636V27.8659V27.8682V27.8705V27.8727V27.875V27.8772V27.8793V27.8815V27.8836V27.8857V27.8878V27.8899V27.892V27.894V27.896V27.898V27.9V27.9019V27.9039V27.9058V27.9077V27.9095V27.9114V27.9132V27.915V27.9168V27.9186V27.9203V27.9221V27.9238V27.9255V27.9272V27.9288V27.9304V27.932V27.9336V27.9352V27.9368V27.9383V27.9398V27.9413V27.9428V27.9442V27.9456V27.9471V27.9485V27.9498V27.9512V27.9525V27.9551V27.9577V27.9601V27.9625V27.9648V27.967V27.9692V27.9713V27.9733V27.9752V27.9771V27.9788V27.9805V27.9822V27.9837V27.9852V27.9866V27.988V27.9898V27.9915V27.9931V27.9945V27.996V27.9976V27.999C29.8337 28.7354 29.2367 29.3332 28.5003 29.3332C27.7639 29.3332 27.167 28.7362 27.167 27.9998V27.9984V27.9971V27.9957V27.994V27.9926V27.991V27.9892V27.9873V27.9859V27.9845V27.983V27.9814V27.9797V27.978V27.9761V27.9742V27.9723V27.9702V27.9681V27.9659V27.9637V27.9613V27.9589V27.9564V27.9538V27.9512V27.9498V27.9485V27.9471V27.9456V27.9442V27.9428V27.9413V27.9398V27.9383V27.9368V27.9352V27.9336V27.932V27.9304V27.9288V27.9272V27.9255V27.9238V27.9221V27.9203V27.9186V27.9168V27.915V27.9132V27.9114V27.9095V27.9077V27.9058V27.9039V27.9019V27.9V27.898V27.896V27.894V27.892V27.8899V27.8878V27.8857V27.8836V27.8815V27.8793V27.8772V27.875V27.8727V27.8705V27.8682V27.8659V27.8636V27.8613V27.859V27.8566V27.8542V27.8518V27.8494V27.8469V27.8444V27.842V27.8394V27.8369V27.8343V27.8318V27.8292V27.8265V27.8239V27.8212V27.8185V27.8158V27.8131V27.8103V27.8076V27.8048V27.802V27.7991V27.7963V27.7934V27.7905V27.7875V27.7846V27.7816V27.7786V27.7756V27.7726V27.7695V27.7664V27.7633V27.7602V27.7571V27.7539V27.7507V27.7475V27.7443V27.741V27.7377V27.7344V27.7311V27.7277V27.7244V27.721V27.7176V27.7141V27.7106V27.7072V27.7037V27.7001V27.6966V27.693V27.6894V27.6858V27.6821V27.6785V27.6748V27.671V27.6673V27.6635V27.6598V27.656V27.6521V27.6483V27.6444V27.6405V27.6366V27.6326V27.6287V27.6247V27.6206V27.6166V27.6125V27.6084V27.6043V27.6002V27.596V27.5919V27.5877V27.5834V27.5792V27.5749V27.5706V27.5663V27.5619V27.5575V27.5531V27.5487V27.5443V27.5398V27.5353V27.5308V27.5262V27.5217V27.5171V27.5125V27.5078V27.5032V27.4985V27.4937V27.489V27.4842V27.4795V27.4746V27.4698V27.465V27.4601V27.4552V27.4502V27.4453V27.4403V27.4353V27.4302V27.4252V27.4201V27.415V27.4098V27.4047V27.3995V27.3943V27.389V27.3838V27.3785V27.3732V27.3678V27.3625V27.3571V27.3517V27.3463V27.3408V27.3353V27.3298V27.3242V27.3187V27.3131V27.3075V27.3018V27.2962V27.2905V27.2847V27.279V27.2732V27.2674V27.2616V27.2558V27.2499V27.244V27.2381V27.2321V27.2261V27.2201V27.2141V27.208V27.2019V27.1958V27.1897V27.1835V27.1773V27.1711V27.1649V27.1586V27.1523V27.146V27.1396V27.1333V27.1269V27.1204V27.114V27.1075V27.101V27.0944V27.0879V27.0813V27.0747V27.068V27.0614V27.0547V27.0479V27.0412V27.0344V27.0276V27.0208V27.0139V27.007V27.0001V26.9932V26.9862V26.9792V26.9722V26.9651V26.958V26.9509V26.9438V26.9366V26.9294V26.9222V26.915V26.9077V26.9004V26.8931V26.8857V26.8783V26.8709V26.8635V26.856V26.8485V26.841V26.8335V26.8259V26.8183V26.8106V26.803V26.7953V26.7876V26.7798V26.772V26.7642V26.7564V26.7485V26.7406V26.7327V26.7248V26.7168V26.7088V26.7008V26.6927V26.6846V26.6765V26.6683V26.6602V26.6519V26.6437V26.6354V26.6272V26.6188V26.6105V26.6021V26.5937V26.5853V26.5768V26.5683V26.5598V26.5512V26.5426V26.534V26.5254V26.5167V26.508V26.4993V26.4905V26.4817V26.4729V26.4641V26.4552V26.4463V26.4373V26.4284V26.4194V26.4103V26.4013V26.3922V26.3831V26.3739V26.3648V26.3556V26.3463V26.3371V26.3278V26.3184V26.3091V26.2997V26.2903V26.2808V26.2714V26.2619V26.2523V26.2428V26.2332V26.2235V26.2139V26.2042V26.1945V26.1847V26.1749V26.1651V26.1553V26.1454V26.1355V26.1256V26.1156V26.1056V26.0956V26.0855V26.0754V26.0653V26.0552V26.045V26.0348V26.0245V26.0143V26.004V25.9936V25.9833V25.9729V25.9624V25.952V25.9415V25.931V25.9204V25.9098V25.8992V25.8885V25.8779V25.8671V25.8564V25.8456V25.8348V25.824V25.8131V25.8022V25.7913V25.7803V25.7693V25.7583V25.7472V25.7361V25.725V25.7138V25.7027V25.6914V25.6802V25.6689V25.6576V25.6462V25.6348V25.6234V25.612V25.6005V25.589V25.5774V25.5659V25.5543V25.5426V25.5309V25.5192V25.5075V25.4957V25.4839V25.4721V25.4602V25.4483V25.4364V25.4244V25.4124V25.4004V25.3883V25.3762V25.3641V25.3519V25.3397V25.3275V25.3152V25.3029V25.2906V25.2782V25.2658V25.2534V25.2409V25.2284V25.2159V25.2033V25.1907V25.1781V25.1654V25.1527V25.14V25.1272V25.1144V25.1016V25.0887V25.0758V25.0628V25.0499V25.0369C27.167 24.6783 26.9977 24.1145 26.4481 23.626C25.911 23.1485 24.918 22.6665 23.167 22.6665C22.4306 22.6665 22.4386 22.2283 22.2525 21.442Z" fill="#FFB68D"/>
<path d="M17.7712 10.6665C17.7712 13.612 15.3834 15.9998 12.4379 15.9998C9.49239 15.9998 7.10458 13.612 7.10458 10.6665C7.10458 7.72099 9.49239 5.33317 12.4379 5.33317C15.3834 5.33317 17.7712 7.72099 17.7712 10.6665Z" fill="#FFB68D"/>
<path d="M7.13785 23.5836C5.91229 24.1541 5.83366 24.6519 5.83366 24.6665V24.6763V24.686V24.6958V24.7056V24.7153V24.7251V24.7349V24.7446V24.7544V24.7642V24.7739V24.7837V24.7934V24.8032V24.8129V24.8227V24.8325V24.8422V24.852V24.8617V24.8715V24.8812V24.891V24.9007V24.9105V24.9202V24.9299V24.9397V24.9494V24.9591V24.9689V24.9786V24.9883V24.998V25.0078V25.0175V25.0272V25.0369V25.0466V25.0563V25.066V25.0757V25.0854V25.0951V25.1048V25.1145V25.1242V25.1339V25.1436V25.1532V25.1629V25.1726V25.1822V25.1919V25.2015V25.2112V25.2208V25.2305V25.2401V25.2498V25.2594V25.269V25.2786V25.2882V25.2979V25.3075V25.3171V25.3267V25.3363V25.3458V25.3554V25.365V25.3746V25.3841V25.3937V25.4032V25.4128V25.4223V25.4319V25.4414V25.4509V25.4604V25.47V25.4795V25.489V25.4984V25.5079V25.5174V25.5269V25.5364V25.5458V25.5553V25.5647V25.5742V25.5836V25.593V25.6024V25.6118V25.6213V25.6306V25.64V25.6494V25.6588V25.6682V25.6775V25.6869V25.6962V25.7055V25.7149V25.7242V25.7335V25.7428V25.7521V25.7614V25.7707V25.7799V25.7892V25.7984V25.8077V25.8169V25.8261V25.8354V25.8446V25.8538V25.863V25.8721V25.8813V25.8905V25.8996V25.9088V25.9179V25.927V25.9361V25.9452V25.9543V25.9634V25.9725V25.9815V25.9906V25.9996V26.0086V26.0177V26.0267V26.0357V26.0447V26.0536V26.0626V26.0716V26.0805V26.0894V26.0984V26.1073V26.1162V26.1251V26.1339V26.1428V26.1517V26.1605V26.1693V26.1781V26.1869V26.1957V26.2045V26.2133V26.2221V26.2308V26.2395V26.2482V26.257V26.2657V26.2743V26.283V26.2917V26.3003V26.3089V26.3176V26.3262V26.3348V26.3433V26.3519V26.3604V26.369V26.3775V26.386V26.3945V26.403V26.4115V26.4199V26.4284V26.4368V26.4452V26.4536V26.462V26.4704V26.4787V26.4871V26.4954V26.5037V26.512V26.5203V26.5286V26.5368V26.545V26.5533V26.5615V26.5697V26.5778V26.586V26.5942V26.6023V26.6104V26.6185V26.6266V26.6346V26.6427V26.6507V26.6588V26.6668V26.6747V26.6827V26.6907V26.6986V26.7065V26.7144V26.7223V26.7302V26.7381V26.7459V26.7537V26.7615V26.7693V26.7771V26.7848V26.7926V26.8003V26.808V26.8157V26.8233V26.831V26.8386V26.8462V26.8538V26.8614V26.8689V26.8765V26.884V26.8915V26.899V26.9064V26.9139V26.9213V26.9287V26.9361V26.9435V26.9508V26.9582V26.9655V26.9728V26.9801V26.9873V26.9946V27.0018V27.009V27.0161V27.0233V27.0304V27.0376V27.0447V27.0517V27.0588V27.0658V27.0729V27.0799V27.0868V27.0938V27.1007V27.1077V27.1146V27.1214V27.1283V27.1351V27.1419V27.1487V27.1555V27.1623V27.169V27.1757V27.1824V27.189V27.1957V27.2023V27.2089V27.2155V27.222V27.2286V27.2351V27.2416V27.248V27.2545V27.2609V27.2673V27.2737V27.2801V27.2864V27.2927V27.299V27.3053V27.3115V27.3177V27.3239V27.3301V27.3362V27.3424V27.3485V27.3546V27.3606V27.3666V27.3727V27.3786V27.3846V27.3905V27.3965V27.4023V27.4082V27.4141V27.4199V27.4257V27.4314V27.4372V27.4429V27.4486V27.4543V27.4599V27.4655V27.4711V27.4767V27.4823V27.4878V27.4933V27.4988V27.5042V27.5096V27.515V27.5204V27.5257V27.531V27.5363V27.5416V27.5469V27.5521V27.5573V27.5624V27.5676V27.5727V27.5777V27.5828V27.5878V27.5928V27.5978V27.6028V27.6077V27.6126V27.6175V27.6223V27.6271V27.6319V27.6367V27.6414V27.6461V27.6508V27.6554V27.6601V27.6647V27.6692V27.6738V27.6783V27.6828V27.6872V27.6917V27.6961V27.7004V27.7048V27.7091V27.7134V27.7176V27.7219V27.7261V27.7302V27.7344V27.7385V27.7426V27.7466V27.7507V27.7547V27.7586V27.7626V27.7665V27.7704V27.7742V27.778V27.7818V27.7856V27.7893V27.793V27.7967V27.8003V27.8039V27.8075V27.8111V27.8146V27.8181V27.8215V27.8249V27.8283V27.8317V27.835V27.8383V27.8416V27.8449V27.8481V27.8512V27.8544V27.8575V27.8606V27.8636V27.8667V27.8697V27.8726V27.8755V27.8784V27.8813V27.8841V27.8869V27.8897V27.8924V27.8951V27.8978V27.9004V27.903V27.9056V27.9081V27.9106V27.9131V27.9155V27.918V27.9203V27.9227V27.925V27.9272V27.9295V27.9317V27.9339V27.936V27.9381V27.9402V27.9422V27.9442V27.9462V27.9481V27.95V27.9519V27.9537V27.9555V27.9573V27.959V27.9607V27.9623V27.964V27.9656V27.9671V27.9686V27.9701V27.9716V27.973V27.9744V27.9757V27.9783V27.9807V27.983V27.9852V27.9872V27.989V27.9907V27.9923V27.9937V27.9956V27.9971V27.9986C5.83366 28.735 5.23671 29.3332 4.50033 29.3332H20.1258C19.3895 29.3332 18.7925 28.7362 18.7925 27.9998V27.9974V27.9899V27.9591V27.8306V27.2707L18.7925 24.6665C18.7925 24.6519 18.7139 24.1541 17.4883 23.5836C16.3687 23.0624 14.62 22.6665 12.3131 22.6665C10.0062 22.6665 8.2575 23.0624 7.13785 23.5836Z" fill="#FFB68D"/>
<path d="M21.463 16.5094C21.463 15.7731 22.06 15.1761 22.7964 15.1761C25.0055 15.1761 26.7964 13.3852 26.7964 11.1761C26.7964 8.96697 25.0055 7.17611 22.7964 7.17611C22.06 7.17611 21.463 6.57915 21.463 5.84277C21.463 5.84277 22.3311 9.0659 22.3311 11.1761C22.3311 13.2863 21.463 16.5094 21.463 16.5094Z" fill="#FFB68D"/>
<path d="M28.5003 29.3332C27.7639 29.3332 27.167 28.7362 27.167 27.9998V27.9984V27.9971V27.9957V27.994V27.9926V27.991V27.9892V27.9873V27.9859V27.9845V27.983V27.9814V27.9797V27.978V27.9761V27.9742V27.9723V27.9702V27.9681V27.9659V27.9637V27.9613V27.9589V27.9564V27.9538V27.9512V27.9498V27.9485V27.9471V27.9456V27.9442V27.9428V27.9413V27.9398V27.9383V27.9368V27.9352V27.9336V27.932V27.9304V27.9288V27.9272V27.9255V27.9238V27.9221V27.9203V27.9186V27.9168V27.915V27.9132V27.9114V27.9095V27.9077V27.9058V27.9039V27.9019V27.9V27.898V27.896V27.894V27.892V27.8899V27.8878V27.8857V27.8836V27.8815V27.8793V27.8772V27.875V27.8727V27.8705V27.8682V27.8659V27.8636V27.8613V27.859V27.8566V27.8542V27.8518V27.8494V27.8469V27.8444V27.842V27.8394V27.8369V27.8343V27.8318V27.8292V27.8265V27.8239V27.8212V27.8185V27.8158V27.8131V27.8103V27.8076V27.8048V27.802V27.7991V27.7963V27.7934V27.7905V27.7875V27.7846V27.7816V27.7786V27.7756V27.7726V27.7695V27.7664V27.7633V27.7602V27.7571V27.7539V27.7507V27.7475V27.7443V27.741V27.7377V27.7344V27.7311V27.7277V27.7244V27.721V27.7176V27.7141V27.7106V27.7072V27.7037V27.7001V27.6966V27.693V27.6894V27.6858V27.6821V27.6785V27.6748V27.671V27.6673V27.6635V27.6598V27.656V27.6521V27.6483V27.6444V27.6405V27.6366V27.6326V27.6287V27.6247V27.6206V27.6166V27.6125V27.6084V27.6043V27.6002V27.596V27.5919V27.5877V27.5834V27.5792V27.5749V27.5706V27.5663V27.5619V27.5575V27.5531V27.5487V27.5443V27.5398V27.5353V27.5308V27.5262V27.5217V27.5171V27.5125V27.5078V27.5032V27.4985V27.4937V27.489V27.4842V27.4795V27.4746V27.4698V27.465V27.4601V27.4552V27.4502V27.4453V27.4403V27.4353V27.4302V27.4252V27.4201V27.415V27.4098V27.4047V27.3995V27.3943V27.389V27.3838V27.3785V27.3732V27.3678V27.3625V27.3571V27.3517V27.3463V27.3408V27.3353V27.3298V27.3242V27.3187V27.3131V27.3075V27.3018V27.2962V27.2905V27.2847V27.279V27.2732V27.2674V27.2616V27.2558V27.2499V27.244V27.2381V27.2321V27.2261V27.2201V27.2141V27.208V27.2019V27.1958V27.1897V27.1835V27.1773V27.1711V27.1649V27.1586V27.1523V27.146V27.1396V27.1333V27.1269V27.1204V27.114V27.1075V27.101V27.0944V27.0879V27.0813V27.0747V27.068V27.0614V27.0547V27.0479V27.0412V27.0344V27.0276V27.0208V27.0139V27.007V27.0001V26.9932V26.9862V26.9792V26.9722V26.9651V26.958V26.9509V26.9438V26.9366V26.9294V26.9222V26.915V26.9077V26.9004V26.8931V26.8857V26.8783V26.8709V26.8635V26.856V26.8485V26.841V26.8335V26.8259V26.8183V26.8106V26.803V26.7953V26.7876V26.7798V26.772V26.7642V26.7564V26.7485V26.7406V26.7327V26.7248V26.7168V26.7088V26.7008V26.6927V26.6846V26.6765V26.6683V26.6602V26.6519V26.6437V26.6354V26.6272V26.6188V26.6105V26.6021V26.5937V26.5853V26.5768V26.5683V26.5598V26.5512V26.5426V26.534V26.5254V26.5167V26.508V26.4993V26.4905V26.4817V26.4729V26.4641V26.4552V26.4463V26.4373V26.4284V26.4194V26.4103V26.4013V26.3922V26.3831V26.3739V26.3648V26.3556V26.3463V26.3371V26.3278V26.3184V26.3091V26.2997V26.2903V26.2808V26.2714V26.2619V26.2523V26.2428V26.2332V26.2235V26.2139V26.2042V26.1945V26.1847V26.1749V26.1651V26.1553V26.1454V26.1355V26.1256V26.1156V26.1056V26.0956V26.0855V26.0754V26.0653V26.0552V26.045V26.0348V26.0245V26.0143V26.004V25.9936V25.9833V25.9729V25.9624V25.952V25.9415V25.931V25.9204V25.9098V25.8992V25.8885V25.8779V25.8671V25.8564V25.8456V25.8348V25.824V25.8131V25.8022V25.7913V25.7803V25.7693V25.7583V25.7472V25.7361V25.725V25.7138V25.7027V25.6914V25.6802V25.6689V25.6576V25.6462V25.6348V25.6234V25.612V25.6005V25.589V25.5774V25.5659V25.5543V25.5426V25.5309V25.5192V25.5075V25.4957V25.4839V25.4721V25.4602V25.4483V25.4364V25.4244V25.4124V25.4004V25.3883V25.3762V25.3641V25.3519V25.3397V25.3275V25.3152V25.3029V25.2906V25.2782V25.2658V25.2534V25.2409V25.2284V25.2159V25.2033V25.1907V25.1781V25.1654V25.1527V25.14V25.1272V25.1144V25.1016V25.0887V25.0758V25.0628V25.0499V25.0369C27.167 24.6783 26.9977 24.1145 26.4481 23.626C25.911 23.1485 24.918 22.6665 23.167 22.6665C22.4306 22.6665 22.4386 22.2283 22.2525 21.442C22.2819 21.8858 22.676 23.5755 22.8369 25.0887C22.8369 27.0911 22.76 29.3332 22.76 29.3332H28.5003Z" fill="#FFB68D"/>
</svg>
