<svg width="24" height="24" viewBox="0 0 24 24" fill="none" xmlns="http://www.w3.org/2000/svg">
<path fill-rule="evenodd" clip-rule="evenodd" d="M2.29192 2.29289C2.68244 1.90237 3.31561 1.90237 3.70613 2.29289L21.7061 20.2929C22.0967 20.6834 22.0967 21.3166 21.7061 21.7071C21.3156 22.0976 20.6824 22.0976 20.2919 21.7071L17.3289 18.7441C15.7185 19.4968 13.8763 20.0098 11.9994 19.9999C9.23263 19.9854 6.5398 18.8444 4.55575 17.4918C3.55842 16.8119 2.70478 16.055 2.08847 15.3147C1.51196 14.6222 1 13.7746 1 12.933C1 12.497 1.13714 12.0628 1.31252 11.6778C1.49343 11.2807 1.746 10.8688 2.04671 10.4598C2.64842 9.64142 3.48868 8.77219 4.48169 7.977C4.85741 7.67612 5.26053 7.38154 5.68665 7.10184L2.29192 3.70711C1.90139 3.31658 1.90139 2.68342 2.29192 2.29289ZM7.13541 8.5506C6.64193 8.85303 6.17111 9.18636 5.73184 9.53813C4.85554 10.2399 4.14242 10.9857 3.65807 11.6445C3.41576 11.9741 3.24213 12.2664 3.1326 12.5069C3.01754 12.7595 3 12.8964 3 12.933C3 13.0367 3.11086 13.4169 3.62552 14.035C4.10037 14.6054 4.80624 15.2421 5.6823 15.8393C7.44504 17.041 9.75451 17.9881 12.0099 17.9999C13.2965 18.0067 14.6 17.7061 15.8087 17.2239L13.9749 15.39C13.4127 15.7749 12.7327 16 12 16C10.067 16 8.5 14.433 8.5 12.5C8.5 11.7674 8.72512 11.0873 9.10997 10.5252L7.13541 8.5506ZM10.5852 12.0004L12.4996 13.9148C12.3433 13.97 12.1752 14 12 14C11.1716 14 10.5 13.3284 10.5 12.5C10.5 12.3248 10.53 12.1567 10.5852 12.0004ZM12.0046 7.00002C11.7527 7.00002 11.4999 7.01449 11.247 7.04222L9.55478 5.33055C10.3503 5.12052 11.1722 5.00002 12.0046 5.00002C14.8404 5.00002 17.5541 6.38172 19.5212 7.94993C20.514 8.74134 21.3544 9.60957 21.9564 10.4332C22.5223 11.2074 23 12.1071 23 12.933C23 13.7838 22.4975 14.64 21.917 15.3462C21.5926 15.7407 21.2026 16.1384 20.7604 16.5258L19.3422 15.1082C19.7536 14.7569 20.1006 14.4063 20.3719 14.0762C20.8808 13.4571 21 13.0618 21 12.933C21 12.7794 20.8602 12.3227 20.3417 11.6133C19.8593 10.9533 19.1487 10.2108 18.2745 9.5138C16.5076 8.10526 14.2236 7.00002 12.0046 7.00002Z" fill="#797C80"/>
</svg>
