<svg width="33" height="32" viewBox="0 0 33 32" fill="none" xmlns="http://www.w3.org/2000/svg">
<path fill-rule="evenodd" clip-rule="evenodd" d="M3.16699 5.33317C3.16699 3.86041 4.3609 2.6665 5.83366 2.6665H27.167C28.6398 2.6665 29.8337 3.86041 29.8337 5.33317V10.6665V11.9998H28.5003H4.50033H3.16699V10.6665V5.33317ZM27.167 5.33317H5.83366V9.33317H27.167V5.33317ZM3.16699 14.6665H4.50033H11.167H12.5003V15.9998V27.9998V29.3332H11.167H5.83366C4.3609 29.3332 3.16699 28.1393 3.16699 26.6665V15.9998V14.6665ZM5.83366 17.3332V26.6665H9.83366V17.3332H5.83366ZM16.5003 14.6665H15.167V15.9998V27.9998V29.3332H16.5003H27.167C28.6398 29.3332 29.8337 28.1393 29.8337 26.6665V15.9998V14.6665H28.5003H16.5003ZM17.8337 26.6665V17.3332H27.167V26.6665H17.8337Z" fill="#FFB68D"/>
<path d="M5.83366 5.33317H27.167V9.33317H5.83366V5.33317Z" fill="#FFB68D"/>
<path d="M5.83366 26.6665V17.3332H9.83366V26.6665H5.83366Z" fill="#FFB68D"/>
<path d="M17.8337 17.3332V26.6665H27.167V17.3332H17.8337Z" fill="#FFB68D"/>
</svg>
