<svg width="15" height="14" viewBox="0 0 15 14" fill="none" xmlns="http://www.w3.org/2000/svg">
<path fill-rule="evenodd" clip-rule="evenodd" d="M7.50033 13.8332C11.2743 13.8332 14.3337 10.7738 14.3337 6.99984C14.3337 3.22589 11.2743 0.166504 7.50033 0.166504C3.72638 0.166504 0.666992 3.22589 0.666992 6.99984C0.666992 10.7738 3.72638 13.8332 7.50033 13.8332ZM12.8337 6.99984C12.8337 9.94536 10.4458 12.3332 7.50033 12.3332C4.55481 12.3332 2.16699 9.94536 2.16699 6.99984C2.16699 4.05432 4.55481 1.6665 7.50033 1.6665C10.4458 1.6665 12.8337 4.05432 12.8337 6.99984ZM8.25033 3.6665C8.25033 3.25229 7.91454 2.9165 7.50033 2.9165C7.08611 2.9165 6.75033 3.25229 6.75033 3.6665V6.58561C6.75033 7.04973 6.9347 7.49485 7.26288 7.82304L8.30332 8.8635C8.59622 9.15639 9.07109 9.15639 9.36399 8.8635C9.65688 8.57061 9.65688 8.09574 9.36399 7.80284L8.32355 6.76238C8.27666 6.7155 8.25033 6.65191 8.25033 6.58561V3.6665Z" fill="#2D5BFF"/>
</svg>
