<svg width="109" height="31" viewBox="0 0 109 31" fill="none" xmlns="http://www.w3.org/2000/svg">
<g clip-path="url(#clip0_375_12342)">
<path d="M0 14L0.525 13.8352L1.05 13.671L1.575 13.5081L2.1 13.3472L2.625 13.1888L3.15 13.0337L3.675 12.8823L4.2 12.7354L4.725 12.5935L5.25 12.4571L5.775 12.3268L6.3 12.2031L6.825 12.0865L7.35 11.9774L7.875 11.8763L8.4 11.7836L8.925 11.6997L9.45 11.6248L9.975 11.5593L10.5 11.5035L11.025 11.4575L11.55 11.4215L12.075 11.3957L12.6 11.3802L13.125 11.375L13.65 11.3802L14.175 11.3957L14.7 11.4215L15.225 11.4575L15.75 11.5035L16.275 11.5593L16.8 11.6248L17.325 11.6997L17.85 11.7836L18.375 11.8763L18.9 11.9774L19.425 12.0865L19.95 12.2031L20.475 12.3268L21 12.4571L21.525 12.5935L22.05 12.7354L22.575 12.8823L23.1 13.0337L23.625 13.1888L24.15 13.3472L24.675 13.5081L25.2 13.671L25.725 13.8352L26.25 14L26.775 14.1648L27.3 14.329L27.825 14.4919L28.35 14.6528L28.875 14.8112L29.4 14.9663L29.925 15.1177L30.45 15.2646L30.975 15.4065L31.5 15.5429L32.025 15.6732L32.55 15.7969L33.075 15.9135L33.6 16.0226L34.125 16.1237L34.65 16.2164L35.175 16.3003L35.7 16.3752L36.225 16.4407L36.75 16.4965L37.275 16.5425L37.8 16.5785L38.325 16.6043L38.85 16.6198L39.375 16.625L39.9 16.6198L40.425 16.6043L40.95 16.5785L41.475 16.5425L42 16.4965L42.525 16.4407L43.05 16.3752L43.575 16.3003L44.1 16.2164L44.625 16.1237L45.15 16.0226L45.675 15.9135L46.2 15.7969L46.725 15.6732L47.25 15.5429L47.775 15.4065L48.3 15.2646L48.825 15.1177L49.35 14.9663L49.875 14.8112L50.4 14.6528L50.925 14.4919L51.45 14.329L51.975 14.1648L52.5 14L53.025 13.8352L53.55 13.671L54.075 13.5081L54.6 13.3472L55.125 13.1888L55.65 13.0337L56.175 12.8823L56.7 12.7354L57.225 12.5935L57.75 12.4571L58.275 12.3268L58.8 12.2031L59.325 12.0865L59.85 11.9774L60.375 11.8763L60.9 11.7836L61.425 11.6997L61.95 11.6248L62.475 11.5593L63 11.5035L63.525 11.4575L64.05 11.4215L64.575 11.3957L65.1 11.3802L65.625 11.375L66.15 11.3802L66.675 11.3957L67.2 11.4215L67.725 11.4575L68.25 11.5035L68.775 11.5593L69.3 11.6248L69.825 11.6997L70.35 11.7836L70.875 11.8763L71.4 11.9774L71.925 12.0865L72.45 12.2031L72.975 12.3268L73.5 12.4571L74.025 12.5935L74.55 12.7354L75.075 12.8823L75.6 13.0337L76.125 13.1888L76.65 13.3472L77.175 13.5081L77.7 13.671L78.225 13.8352L78.75 14L79.275 14.1648L79.8 14.329L80.325 14.4919L80.85 14.6528L81.375 14.8112L81.9 14.9663L82.425 15.1177L82.95 15.2646L83.475 15.4065L84 15.5429L84.525 15.6732L85.05 15.7969L85.575 15.9135L86.1 16.0226L86.625 16.1237L87.15 16.2164L87.675 16.3003L88.2 16.3752L88.725 16.4407L89.25 16.4965L89.775 16.5425L90.3 16.5785L90.825 16.6043L91.35 16.6198L91.875 16.625L92.4 16.6198L92.925 16.6043L93.45 16.5785L93.975 16.5425L94.5 16.4965L95.025 16.4407L95.55 16.3752L96.075 16.3003L96.6 16.2164L97.125 16.1237L97.65 16.0226L98.175 15.9135L98.7 15.7969L99.225 15.6732L99.75 15.5429L100.275 15.4065L100.8 15.2646L101.325 15.1177L101.85 14.9663L102.375 14.8112L102.9 14.6528L103.425 14.4919L103.95 14.329L104.475 14.1648L105 14L105.525 13.8352L106.05 13.671L106.575 13.5081L107.1 13.3472L107.625 13.1888L108.15 13.0337L108.675 12.8823L109.2 12.7354L109.725 12.5935L110.25 12.4571L110.775 12.3268L111.3 12.2031L111.825 12.0865L112.35 11.9774L112.875 11.8763L113.4 11.7836L113.925 11.6997L114.45 11.6248L114.975 11.5593L115.5 11.5035L116.025 11.4575L116.55 11.4215L117.075 11.3957L117.6 11.3802L118.125 11.375L118.65 11.3802L119.175 11.3957L119.7 11.4215L120.225 11.4575L120.75 11.5035L121.275 11.5593L121.8 11.6248L122.325 11.6997L122.85 11.7836L123.375 11.8763L123.9 11.9774L124.425 12.0865L124.95 12.2031L125.475 12.3268L126 12.4571L126.525 12.5935L127.05 12.7354L127.575 12.8823L128.1 13.0337L128.625 13.1888L129.15 13.3472L129.675 13.5081L130.2 13.671L130.725 13.8352L131.25 14L131.775 14.1648L132.3 14.329L132.825 14.4919L133.35 14.6528L133.875 14.8112L134.4 14.9663L134.925 15.1177L135.45 15.2646L135.975 15.4065L136.5 15.5429L137.025 15.6732L137.55 15.7969L138.075 15.9135L138.6 16.0226L139.125 16.1237L139.65 16.2164L140.175 16.3003L140.7 16.3752L141.225 16.4407L141.75 16.4965L142.275 16.5425L142.8 16.5785L143.325 16.6043L143.85 16.6198L144.375 16.625L144.9 16.6198L145.425 16.6043L145.95 16.5785L146.475 16.5425L147 16.4965L147.525 16.4407L148.05 16.3752L148.575 16.3003L149.1 16.2164L149.625 16.1237L150.15 16.0226L150.675 15.9135L151.2 15.7969L151.725 15.6732L152.25 15.5429L152.775 15.4065L153.3 15.2646L153.825 15.1177L154.35 14.9663L154.875 14.8112L155.4 14.6528L155.925 14.4919L156.45 14.329L156.975 14.1648L157.5 14L158.025 13.8352L158.55 13.671L159.075 13.5081L159.6 13.3472L160.125 13.1888L160.65 13.0337L161.175 12.8823L161.7 12.7354L162.225 12.5935L162.75 12.4571L163.275 12.3268L163.8 12.2031L164.325 12.0865L164.85 11.9774L165.375 11.8763L165.9 11.7836L166.425 11.6997L166.95 11.6248L167.475 11.5593L168 11.5035L168.525 11.4575L169.05 11.4215L169.575 11.3957L170.1 11.3802L170.625 11.375L171.15 11.3802L171.675 11.3957L172.2 11.4215L172.725 11.4575L173.25 11.5035L173.775 11.5593L174.3 11.6248L174.825 11.6997L175.35 11.7836L175.875 11.8763L176.4 11.9774L176.925 12.0865L177.45 12.2031L177.975 12.3268L178.5 12.4571L179.025 12.5935L179.55 12.7354L180.075 12.8823L180.6 13.0337L181.125 13.1888L181.65 13.3472L182.175 13.5081L182.7 13.671L183.225 13.8352L183.75 14L184.275 14.1648L184.8 14.329L185.325 14.4919L185.85 14.6528L186.375 14.8112L186.9 14.9663L187.425 15.1177L187.95 15.2646L188.475 15.4065L189 15.5429L189.525 15.6732L190.05 15.7969L190.575 15.9135L191.1 16.0226L191.625 16.1237L192.15 16.2164L192.675 16.3003L193.2 16.3752L193.725 16.4407L194.25 16.4965L194.775 16.5425L195.3 16.5785L195.825 16.6043L196.35 16.6198L196.875 16.625L197.4 16.6198L197.925 16.6043L198.45 16.5785L198.975 16.5425L199.5 16.4965L200.025 16.4407L200.55 16.3752L201.075 16.3003L201.6 16.2164L202.125 16.1237L202.65 16.0226L203.175 15.9135L203.7 15.7969L204.225 15.6732L204.75 15.5429L205.275 15.4065L205.8 15.2646L206.325 15.1177L206.85 14.9663L207.375 14.8112L207.9 14.6528L208.425 14.4919L208.95 14.329L209.475 14.1648" stroke="#D87036" stroke-width="2.625" stroke-miterlimit="10" stroke-linecap="round" stroke-linejoin="round"/>
</g>
<defs>
<clipPath id="clip0_375_12342">
<rect width="109" height="31" fill="white"/>
</clipPath>
</defs>
</svg>
