<svg width="15" height="14" viewBox="0 0 15 14" fill="none" xmlns="http://www.w3.org/2000/svg">
<path fill-rule="evenodd" clip-rule="evenodd" d="M6.32096 1.23765C6.70265 0.0321153 8.29768 0.0321093 8.67937 1.23765L9.69351 4.44071H12.9196C14.1378 4.44071 14.631 6.11803 13.6318 6.86303L11.0661 8.77595L12.0563 11.9034C12.4415 13.12 11.1504 14.1563 10.1649 13.4216L7.50016 11.4347L4.8354 13.4216C3.84993 14.1563 2.55882 13.12 2.944 11.9034L3.9342 8.77595L1.36857 6.86303C0.369359 6.11802 0.862513 4.44071 2.08076 4.44071H5.30681L6.32096 1.23765ZM8.51431 4.86736L7.50016 1.66429L6.48602 4.86736C6.3149 5.4078 5.84055 5.77151 5.30681 5.77151H2.08076L4.64639 7.68443C5.10063 8.02311 5.29096 8.64183 5.11341 9.2026L4.12321 12.33L6.78798 10.3432C7.21587 10.0242 7.78446 10.0242 8.21235 10.3432L10.8771 12.33L9.88692 9.2026C9.70937 8.64183 9.8997 8.02311 10.3539 7.68443L12.9196 5.77151H9.69351C9.15977 5.77151 8.68542 5.4078 8.51431 4.86736Z" fill="#2D5BFF"/>
<path d="M7.50016 1.66429L8.51431 4.86736C8.68542 5.4078 9.15977 5.77151 9.69351 5.77151H12.9196L10.3539 7.68443C9.8997 8.02311 9.70937 8.64183 9.88692 9.2026L10.8771 12.33L8.21235 10.3432C7.78446 10.0242 7.21587 10.0242 6.78798 10.3432L4.12321 12.33L5.11341 9.2026C5.29096 8.64183 5.10063 8.02311 4.64639 7.68443L2.08076 5.77151H5.30681C5.84055 5.77151 6.3149 5.4078 6.48602 4.86736L7.50016 1.66429Z" fill="#2D5BFF"/>
</svg>
