<svg width="42" height="42" viewBox="0 0 42 42" fill="none" xmlns="http://www.w3.org/2000/svg">
<circle cx="21" cy="21" r="20" stroke="#EFEFEF" stroke-width="2"/>
<path d="M24.6083 25.93C24.8483 25.93 25.0373 25.999 25.1753 26.137C25.3193 26.269 25.3913 26.446 25.3913 26.668V28H16.4633V27.262C16.4633 27.112 16.4933 26.956 16.5533 26.794C16.6193 26.626 16.7213 26.476 16.8593 26.344L20.8103 22.384C21.1403 22.048 21.4343 21.727 21.6923 21.421C21.9563 21.115 22.1753 20.812 22.3493 20.512C22.5233 20.212 22.6553 19.909 22.7453 19.603C22.8413 19.291 22.8893 18.964 22.8893 18.622C22.8893 18.31 22.8443 18.037 22.7543 17.803C22.6643 17.563 22.5353 17.362 22.3673 17.2C22.2053 17.038 22.0073 16.918 21.7733 16.84C21.5453 16.756 21.2873 16.714 20.9993 16.714C20.7353 16.714 20.4893 16.753 20.2613 16.831C20.0393 16.903 19.8413 17.008 19.6673 17.146C19.4933 17.278 19.3463 17.434 19.2263 17.614C19.1063 17.794 19.0163 17.992 18.9563 18.208C18.8543 18.484 18.7223 18.667 18.5603 18.757C18.3983 18.847 18.1643 18.868 17.8583 18.82L16.6883 18.613C16.7783 17.989 16.9523 17.443 17.2103 16.975C17.4683 16.501 17.7893 16.108 18.1733 15.796C18.5633 15.478 19.0073 15.241 19.5053 15.085C20.0093 14.923 20.5493 14.842 21.1253 14.842C21.7253 14.842 22.2743 14.932 22.7723 15.112C23.2703 15.286 23.6963 15.535 24.0503 15.859C24.4043 16.183 24.6803 16.573 24.8783 17.029C25.0763 17.485 25.1753 17.992 25.1753 18.55C25.1753 19.03 25.1033 19.474 24.9593 19.882C24.8213 20.29 24.6323 20.68 24.3923 21.052C24.1583 21.424 23.8823 21.784 23.5643 22.132C23.2463 22.48 22.9133 22.834 22.5653 23.194L19.6313 26.191C19.9133 26.107 20.1923 26.044 20.4683 26.002C20.7503 25.954 21.0173 25.93 21.2693 25.93H24.6083Z" fill="#AFB0B3"/>
</svg>
