<svg width="42" height="42" viewBox="0 0 42 42" fill="none" xmlns="http://www.w3.org/2000/svg">
<circle cx="21" cy="21" r="20" stroke="#EFEFEF" stroke-width="2"/>
<path d="M16.7513 18.613C16.8413 17.989 17.0153 17.443 17.2733 16.975C17.5313 16.501 17.8523 16.108 18.2363 15.796C18.6263 15.478 19.0703 15.241 19.5683 15.085C20.0723 14.923 20.6123 14.842 21.1883 14.842C21.7883 14.842 22.3283 14.929 22.8083 15.103C23.2943 15.271 23.7083 15.508 24.0503 15.814C24.3923 16.114 24.6533 16.468 24.8333 16.876C25.0193 17.284 25.1123 17.725 25.1123 18.199C25.1123 18.613 25.0643 18.979 24.9683 19.297C24.8783 19.609 24.7463 19.882 24.5723 20.116C24.3983 20.35 24.1823 20.548 23.9243 20.71C23.6663 20.872 23.3753 21.007 23.0513 21.115C23.8313 21.361 24.4133 21.736 24.7973 22.24C25.1813 22.744 25.3733 23.377 25.3733 24.139C25.3733 24.787 25.2533 25.36 25.0133 25.858C24.7733 26.356 24.4493 26.776 24.0413 27.118C23.6333 27.454 23.1593 27.709 22.6193 27.883C22.0853 28.057 21.5183 28.144 20.9183 28.144C20.2643 28.144 19.6943 28.069 19.2083 27.919C18.7223 27.769 18.2993 27.547 17.9393 27.253C17.5793 26.959 17.2733 26.599 17.0213 26.173C16.7693 25.747 16.5533 25.255 16.3733 24.697L17.3543 24.292C17.6123 24.184 17.8523 24.157 18.0743 24.211C18.3023 24.259 18.4673 24.379 18.5693 24.571C18.6773 24.781 18.7943 24.988 18.9203 25.192C19.0523 25.396 19.2083 25.579 19.3883 25.741C19.5683 25.897 19.7783 26.026 20.0183 26.128C20.2643 26.224 20.5553 26.272 20.8913 26.272C21.2693 26.272 21.5993 26.212 21.8813 26.092C22.1633 25.966 22.3973 25.804 22.5833 25.606C22.7753 25.408 22.9163 25.189 23.0063 24.949C23.1023 24.703 23.1503 24.457 23.1503 24.211C23.1503 23.899 23.1173 23.617 23.0513 23.365C22.9853 23.107 22.8473 22.888 22.6373 22.708C22.4273 22.528 22.1243 22.387 21.7283 22.285C21.3383 22.183 20.8133 22.132 20.1533 22.132V20.548C20.6993 20.542 21.1523 20.491 21.5123 20.395C21.8723 20.299 22.1573 20.167 22.3673 19.999C22.5833 19.825 22.7333 19.618 22.8173 19.378C22.9013 19.138 22.9433 18.874 22.9433 18.586C22.9433 17.974 22.7723 17.509 22.4303 17.191C22.0883 16.873 21.6323 16.714 21.0623 16.714C20.7983 16.714 20.5553 16.753 20.3333 16.831C20.1113 16.903 19.9103 17.008 19.7303 17.146C19.5563 17.278 19.4093 17.434 19.2893 17.614C19.1693 17.794 19.0793 17.992 19.0193 18.208C18.9173 18.484 18.7823 18.667 18.6143 18.757C18.4523 18.847 18.2213 18.868 17.9213 18.82L16.7513 18.613Z" fill="#AFB0B3"/>
</svg>
