<svg width="120" height="6" viewBox="0 0 120 6" fill="none" xmlns="http://www.w3.org/2000/svg">
<path d="M0 2.87648L0.3 2.78113L0.6 2.68615L0.9 2.59193L1.2 2.49883L1.5 2.40722L1.8 2.31746L2.1 2.2299L2.4 2.1449L2.7 2.06279L3 1.98389L3.3 1.90851L3.6 1.83695L3.9 1.76949L4.2 1.7064L4.5 1.64793L4.8 1.59431L5.1 1.54575L5.4 1.50244L5.7 1.46455L6 1.43224L6.3 1.40562L6.6 1.38481L6.9 1.36989L7.2 1.36091L7.5 1.35791L7.8 1.36091L8.1 1.36989L8.4 1.38481L8.7 1.40562L9 1.43224L9.3 1.46455L9.6 1.50244L9.9 1.54575L10.2 1.59431L10.5 1.64793L10.8 1.7064L11.1 1.76949L11.4 1.83695L11.7 1.90851L12 1.98389L12.3 2.06279L12.6 2.1449L12.9 2.2299L13.2 2.31746L13.5 2.40722L13.8 2.49883L14.1 2.59193L14.4 2.68615L14.7 2.78113L15 2.87648L15.3 2.97183L15.6 3.06681L15.9 3.16103L16.2 3.25413L16.5 3.34574L16.8 3.4355L17.1 3.52306L17.4 3.60806L17.7 3.69017L18 3.76907L18.3 3.84445L18.6 3.91601L18.9 3.98347L19.2 4.04656L19.5 4.10503L19.8 4.15865L20.1 4.20721L20.4 4.25052L20.7 4.28841L21 4.32072L21.3 4.34734L21.6 4.36815L21.9 4.38307L22.2 4.39205L22.5 4.39505L22.8 4.39205L23.1 4.38307L23.4 4.36815L23.7 4.34734L24 4.32072L24.3 4.28841L24.6 4.25052L24.9 4.20721L25.2 4.15865L25.5 4.10503L25.8 4.04656L26.1 3.98347L26.4 3.91601L26.7 3.84445L27 3.76907L27.3 3.69017L27.6 3.60806L27.9 3.52306L28.2 3.4355L28.5 3.34574L28.8 3.25413L29.1 3.16103L29.4 3.06681L29.7 2.97183L30 2.87648L30.3 2.78113L30.6 2.68615L30.9 2.59193L31.2 2.49883L31.5 2.40722L31.8 2.31746L32.1 2.2299L32.4 2.1449L32.7 2.06279L33 1.98389L33.3 1.90851L33.6 1.83695L33.9 1.76949L34.2 1.7064L34.5 1.64793L34.8 1.59431L35.1 1.54575L35.4 1.50244L35.7 1.46455L36 1.43224L36.3 1.40562L36.6 1.38481L36.9 1.36989L37.2 1.36091L37.5 1.35791L37.8 1.36091L38.1 1.36989L38.4 1.38481L38.7 1.40562L39 1.43224L39.3 1.46455L39.6 1.50244L39.9 1.54575L40.2 1.59431L40.5 1.64793L40.8 1.7064L41.1 1.76949L41.4 1.83695L41.7 1.90851L42 1.98389L42.3 2.06279L42.6 2.1449L42.9 2.2299L43.2 2.31746L43.5 2.40722L43.8 2.49883L44.1 2.59193L44.4 2.68615L44.7 2.78113L45 2.87648L45.3 2.97183L45.6 3.06681L45.9 3.16103L46.2 3.25413L46.5 3.34574L46.8 3.4355L47.1 3.52306L47.4 3.60806L47.7 3.69017L48 3.76907L48.3 3.84445L48.6 3.91601L48.9 3.98347L49.2 4.04656L49.5 4.10503L49.8 4.15865L50.1 4.20721L50.4 4.25052L50.7 4.28841L51 4.32072L51.3 4.34734L51.6 4.36815L51.9 4.38307L52.2 4.39205L52.5 4.39505L52.8 4.39205L53.1 4.38307L53.4 4.36815L53.7 4.34734L54 4.32072L54.3 4.28841L54.6 4.25052L54.9 4.20721L55.2 4.15865L55.5 4.10503L55.8 4.04656L56.1 3.98347L56.4 3.91601L56.7 3.84445L57 3.76907L57.3 3.69017L57.6 3.60806L57.9 3.52306L58.2 3.4355L58.5 3.34574L58.8 3.25413L59.1 3.16103L59.4 3.06681L59.7 2.97183L60 2.87648L60.3 2.78113L60.6 2.68615L60.9 2.59193L61.2 2.49883L61.5 2.40722L61.8 2.31746L62.1 2.2299L62.4 2.1449L62.7 2.06279L63 1.98389L63.3 1.90851L63.6 1.83695L63.9 1.76949L64.2 1.7064L64.5 1.64793L64.8 1.59431L65.1 1.54575L65.4 1.50244L65.7 1.46455L66 1.43224L66.3 1.40562L66.6 1.38481L66.9 1.36989L67.2 1.36091L67.5 1.35791L67.8 1.36091L68.1 1.36989L68.4 1.38481L68.7 1.40562L69 1.43224L69.3 1.46455L69.6 1.50244L69.9 1.54575L70.2 1.59431L70.5 1.64793L70.8 1.7064L71.1 1.76949L71.4 1.83695L71.7 1.90851L72 1.98389L72.3 2.06279L72.6 2.1449L72.9 2.2299L73.2 2.31746L73.5 2.40722L73.8 2.49883L74.1 2.59193L74.4 2.68615L74.7 2.78113L75 2.87648L75.3 2.97183L75.6 3.06681L75.9 3.16103L76.2 3.25413L76.5 3.34574L76.8 3.4355L77.1 3.52306L77.4 3.60806L77.7 3.69017L78 3.76907L78.3 3.84445L78.6 3.91601L78.9 3.98347L79.2 4.04656L79.5 4.10503L79.8 4.15865L80.1 4.20721L80.4 4.25052L80.7 4.28841L81 4.32072L81.3 4.34734L81.6 4.36815L81.9 4.38307L82.2 4.39205L82.5 4.39505L82.8 4.39205L83.1 4.38307L83.4 4.36815L83.7 4.34734L84 4.32072L84.3 4.28841L84.6 4.25052L84.9 4.20721L85.2 4.15865L85.5 4.10503L85.8 4.04656L86.1 3.98347L86.4 3.91601L86.7 3.84445L87 3.76907L87.3 3.69017L87.6 3.60806L87.9 3.52306L88.2 3.4355L88.5 3.34574L88.8 3.25413L89.1 3.16103L89.4 3.06681L89.7 2.97183L90 2.87648L90.3 2.78113L90.6 2.68615L90.9 2.59193L91.2 2.49883L91.5 2.40722L91.8 2.31746L92.1 2.2299L92.4 2.1449L92.7 2.06279L93 1.98389L93.3 1.90851L93.6 1.83695L93.9 1.76949L94.2 1.7064L94.5 1.64793L94.8 1.59431L95.1 1.54575L95.4 1.50244L95.7 1.46455L96 1.43224L96.3 1.40562L96.6 1.38481L96.9 1.36989L97.2 1.36091L97.5 1.35791L97.8 1.36091L98.1 1.36989L98.4 1.38481L98.7 1.40562L99 1.43224L99.3 1.46455L99.6 1.50244L99.9 1.54575L100.2 1.59431L100.5 1.64793L100.8 1.7064L101.1 1.76949L101.4 1.83695L101.7 1.90851L102 1.98389L102.3 2.06279L102.6 2.1449L102.9 2.2299L103.2 2.31746L103.5 2.40722L103.8 2.49883L104.1 2.59193L104.4 2.68615L104.7 2.78113L105 2.87648L105.3 2.97183L105.6 3.06681L105.9 3.16103L106.2 3.25413L106.5 3.34574L106.8 3.4355L107.1 3.52306L107.4 3.60806L107.7 3.69017L108 3.76907L108.3 3.84445L108.6 3.91601L108.9 3.98347L109.2 4.04656L109.5 4.10503L109.8 4.15865L110.1 4.20721L110.4 4.25052L110.7 4.28841L111 4.32072L111.3 4.34734L111.6 4.36815L111.9 4.38307L112.2 4.39205L112.5 4.39505L112.8 4.39205L113.1 4.38307L113.4 4.36815L113.7 4.34734L114 4.32072L114.3 4.28841L114.6 4.25052L114.9 4.20721L115.2 4.15865L115.5 4.10503L115.8 4.04656L116.1 3.98347L116.4 3.91601L116.7 3.84445L117 3.76907L117.3 3.69017L117.6 3.60806L117.9 3.52306L118.2 3.4355L118.5 3.34574L118.8 3.25413L119.1 3.16103L119.4 3.06681L119.7 2.97183" stroke="#D87036" stroke-width="1.5" stroke-miterlimit="10" stroke-linecap="round" stroke-linejoin="round"/>
</svg>
