<svg width="218" height="32" viewBox="0 0 218 32" fill="none" xmlns="http://www.w3.org/2000/svg">
<g clip-path="url(#clip0_367_16198)" filter="url(#filter0_d_367_16198)">
<path d="M4 14.25L4.525 14.0852L5.05 13.921L5.575 13.7581L6.1 13.5972L6.625 13.4388L7.15 13.2837L7.675 13.1323L8.2 12.9854L8.725 12.8435L9.25 12.7071L9.775 12.5768L10.3 12.4531L10.825 12.3365L11.35 12.2274L11.875 12.1263L12.4 12.0336L12.925 11.9497L13.45 11.8748L13.975 11.8093L14.5 11.7535L15.025 11.7075L15.55 11.6715L16.075 11.6457L16.6 11.6302L17.125 11.625L17.65 11.6302L18.175 11.6457L18.7 11.6715L19.225 11.7075L19.75 11.7535L20.275 11.8093L20.8 11.8748L21.325 11.9497L21.85 12.0336L22.375 12.1263L22.9 12.2274L23.425 12.3365L23.95 12.4531L24.475 12.5768L25 12.7071L25.525 12.8435L26.05 12.9854L26.575 13.1323L27.1 13.2837L27.625 13.4388L28.15 13.5972L28.675 13.7581L29.2 13.921L29.725 14.0852L30.25 14.25L30.775 14.4148L31.3 14.579L31.825 14.7419L32.35 14.9028L32.875 15.0612L33.4 15.2163L33.925 15.3677L34.45 15.5146L34.975 15.6565L35.5 15.7929L36.025 15.9232L36.55 16.0469L37.075 16.1635L37.6 16.2726L38.125 16.3737L38.65 16.4664L39.175 16.5503L39.7 16.6252L40.225 16.6907L40.75 16.7465L41.275 16.7925L41.8 16.8285L42.325 16.8543L42.85 16.8698L43.375 16.875L43.9 16.8698L44.425 16.8543L44.95 16.8285L45.475 16.7925L46 16.7465L46.525 16.6907L47.05 16.6252L47.575 16.5503L48.1 16.4664L48.625 16.3737L49.15 16.2726L49.675 16.1635L50.2 16.0469L50.725 15.9232L51.25 15.7929L51.775 15.6565L52.3 15.5146L52.825 15.3677L53.35 15.2163L53.875 15.0612L54.4 14.9028L54.925 14.7419L55.45 14.579L55.975 14.4148L56.5 14.25L57.025 14.0852L57.55 13.921L58.075 13.7581L58.6 13.5972L59.125 13.4388L59.65 13.2837L60.175 13.1323L60.7 12.9854L61.225 12.8435L61.75 12.7071L62.275 12.5768L62.8 12.4531L63.325 12.3365L63.85 12.2274L64.375 12.1263L64.9 12.0336L65.425 11.9497L65.95 11.8748L66.475 11.8093L67 11.7535L67.525 11.7075L68.05 11.6715L68.575 11.6457L69.1 11.6302L69.625 11.625L70.15 11.6302L70.675 11.6457L71.2 11.6715L71.725 11.7075L72.25 11.7535L72.775 11.8093L73.3 11.8748L73.825 11.9497L74.35 12.0336L74.875 12.1263L75.4 12.2274L75.925 12.3365L76.45 12.4531L76.975 12.5768L77.5 12.7071L78.025 12.8435L78.55 12.9854L79.075 13.1323L79.6 13.2837L80.125 13.4388L80.65 13.5972L81.175 13.7581L81.7 13.921L82.225 14.0852L82.75 14.25L83.275 14.4148L83.8 14.579L84.325 14.7419L84.85 14.9028L85.375 15.0612L85.9 15.2163L86.425 15.3677L86.95 15.5146L87.475 15.6565L88 15.7929L88.525 15.9232L89.05 16.0469L89.575 16.1635L90.1 16.2726L90.625 16.3737L91.15 16.4664L91.675 16.5503L92.2 16.6252L92.725 16.6907L93.25 16.7465L93.775 16.7925L94.3 16.8285L94.825 16.8543L95.35 16.8698L95.875 16.875L96.4 16.8698L96.925 16.8543L97.45 16.8285L97.975 16.7925L98.5 16.7465L99.025 16.6907L99.55 16.6252L100.075 16.5503L100.6 16.4664L101.125 16.3737L101.65 16.2726L102.175 16.1635L102.7 16.0469L103.225 15.9232L103.75 15.7929L104.275 15.6565L104.8 15.5146L105.325 15.3677L105.85 15.2163L106.375 15.0612L106.9 14.9028L107.425 14.7419L107.95 14.579L108.475 14.4148L109 14.25L109.525 14.0852L110.05 13.921L110.575 13.7581L111.1 13.5972L111.625 13.4388L112.15 13.2837L112.675 13.1323L113.2 12.9854L113.725 12.8435L114.25 12.7071L114.775 12.5768L115.3 12.4531L115.825 12.3365L116.35 12.2274L116.875 12.1263L117.4 12.0336L117.925 11.9497L118.45 11.8748L118.975 11.8093L119.5 11.7535L120.025 11.7075L120.55 11.6715L121.075 11.6457L121.6 11.6302L122.125 11.625L122.65 11.6302L123.175 11.6457L123.7 11.6715L124.225 11.7075L124.75 11.7535L125.275 11.8093L125.8 11.8748L126.325 11.9497L126.85 12.0336L127.375 12.1263L127.9 12.2274L128.425 12.3365L128.95 12.4531L129.475 12.5768L130 12.7071L130.525 12.8435L131.05 12.9854L131.575 13.1323L132.1 13.2837L132.625 13.4388L133.15 13.5972L133.675 13.7581L134.2 13.921L134.725 14.0852L135.25 14.25L135.775 14.4148L136.3 14.579L136.825 14.7419L137.35 14.9028L137.875 15.0612L138.4 15.2163L138.925 15.3677L139.45 15.5146L139.975 15.6565L140.5 15.7929L141.025 15.9232L141.55 16.0469L142.075 16.1635L142.6 16.2726L143.125 16.3737L143.65 16.4664L144.175 16.5503L144.7 16.6252L145.225 16.6907L145.75 16.7465L146.275 16.7925L146.8 16.8285L147.325 16.8543L147.85 16.8698L148.375 16.875L148.9 16.8698L149.425 16.8543L149.95 16.8285L150.475 16.7925L151 16.7465L151.525 16.6907L152.05 16.6252L152.575 16.5503L153.1 16.4664L153.625 16.3737L154.15 16.2726L154.675 16.1635L155.2 16.0469L155.725 15.9232L156.25 15.7929L156.775 15.6565L157.3 15.5146L157.825 15.3677L158.35 15.2163L158.875 15.0612L159.4 14.9028L159.925 14.7419L160.45 14.579L160.975 14.4148L161.5 14.25L162.025 14.0852L162.55 13.921L163.075 13.7581L163.6 13.5972L164.125 13.4388L164.65 13.2837L165.175 13.1323L165.7 12.9854L166.225 12.8435L166.75 12.7071L167.275 12.5768L167.8 12.4531L168.325 12.3365L168.85 12.2274L169.375 12.1263L169.9 12.0336L170.425 11.9497L170.95 11.8748L171.475 11.8093L172 11.7535L172.525 11.7075L173.05 11.6715L173.575 11.6457L174.1 11.6302L174.625 11.625L175.15 11.6302L175.675 11.6457L176.2 11.6715L176.725 11.7075L177.25 11.7535L177.775 11.8093L178.3 11.8748L178.825 11.9497L179.35 12.0336L179.875 12.1263L180.4 12.2274L180.925 12.3365L181.45 12.4531L181.975 12.5768L182.5 12.7071L183.025 12.8435L183.55 12.9854L184.075 13.1323L184.6 13.2837L185.125 13.4388L185.65 13.5972L186.175 13.7581L186.7 13.921L187.225 14.0852L187.75 14.25L188.275 14.4148L188.8 14.579L189.325 14.7419L189.85 14.9028L190.375 15.0612L190.9 15.2163L191.425 15.3677L191.95 15.5146L192.475 15.6565L193 15.7929L193.525 15.9232L194.05 16.0469L194.575 16.1635L195.1 16.2726L195.625 16.3737L196.15 16.4664L196.675 16.5503L197.2 16.6252L197.725 16.6907L198.25 16.7465L198.775 16.7925L199.3 16.8285L199.825 16.8543L200.35 16.8698L200.875 16.875L201.4 16.8698L201.925 16.8543L202.45 16.8285L202.975 16.7925L203.5 16.7465L204.025 16.6907L204.55 16.6252L205.075 16.5503L205.6 16.4664L206.125 16.3737L206.65 16.2726L207.175 16.1635L207.7 16.0469L208.225 15.9232L208.75 15.7929L209.275 15.6565L209.8 15.5146L210.325 15.3677L210.85 15.2163L211.375 15.0612L211.9 14.9028L212.425 14.7419L212.95 14.579L213.475 14.4148" stroke="#D87036" stroke-width="2.625" stroke-miterlimit="10" stroke-linecap="round" stroke-linejoin="round"/>
</g>
<defs>
<filter id="filter0_d_367_16198" x="0" y="0.25" width="218" height="39.5" filterUnits="userSpaceOnUse" color-interpolation-filters="sRGB">
<feFlood flood-opacity="0" result="BackgroundImageFix"/>
<feColorMatrix in="SourceAlpha" type="matrix" values="0 0 0 0 0 0 0 0 0 0 0 0 0 0 0 0 0 0 127 0" result="hardAlpha"/>
<feOffset dy="4"/>
<feGaussianBlur stdDeviation="2"/>
<feComposite in2="hardAlpha" operator="out"/>
<feColorMatrix type="matrix" values="0 0 0 0 0 0 0 0 0 0 0 0 0 0 0 0 0 0 0.25 0"/>
<feBlend mode="normal" in2="BackgroundImageFix" result="effect1_dropShadow_367_16198"/>
<feBlend mode="normal" in="SourceGraphic" in2="effect1_dropShadow_367_16198" result="shape"/>
</filter>
<clipPath id="clip0_367_16198">
<rect width="210" height="31.5" fill="white" transform="translate(4 0.25)"/>
</clipPath>
</defs>
</svg>
