<svg width="138" height="6" viewBox="0 0 138 6" fill="none" xmlns="http://www.w3.org/2000/svg">
<path d="M0 3.33325L0.345 3.22337L0.69 3.11392L1.035 3.00534L1.38 2.89805L1.725 2.79247L2.07 2.68903L2.415 2.58814L2.76 2.49018L3.105 2.39556L3.45 2.30463L3.795 2.21776L4.14 2.13529L4.485 2.05756L4.83 1.98485L5.175 1.91747L5.52 1.85568L5.865 1.79972L6.21 1.74981L6.555 1.70614L6.9 1.6689L7.245 1.63823L7.59 1.61425L7.935 1.59705L8.28 1.5867L8.625 1.58325L8.97 1.5867L9.315 1.59705L9.66 1.61425L10.005 1.63823L10.35 1.6689L10.695 1.70614L11.04 1.74981L11.385 1.79972L11.73 1.85568L12.075 1.91747L12.42 1.98485L12.765 2.05756L13.11 2.13529L13.455 2.21776L13.8 2.30463L14.145 2.39556L14.49 2.49018L14.835 2.58814L15.18 2.68903L15.525 2.79247L15.87 2.89805L16.215 3.00534L16.56 3.11392L16.905 3.22337L17.25 3.33325L17.595 3.44313L17.94 3.55258L18.285 3.66117L18.63 3.76846L18.975 3.87403L19.32 3.97747L19.665 4.07837L20.01 4.17632L20.355 4.27095L20.7 4.36188L21.045 4.44874L21.39 4.53121L21.735 4.60895L22.08 4.68165L22.425 4.74903L22.77 4.81083L23.115 4.86679L23.46 4.9167L23.805 4.96036L24.15 4.9976L24.495 5.02827L24.84 5.05226L25.185 5.06945L25.53 5.0798L25.875 5.08325L26.22 5.0798L26.565 5.06945L26.91 5.05226L27.255 5.02827L27.6 4.9976L27.945 4.96036L28.29 4.9167L28.635 4.86679L28.98 4.81083L29.325 4.74903L29.67 4.68165L30.015 4.60895L30.36 4.53121L30.705 4.44874L31.05 4.36188L31.395 4.27095L31.74 4.17632L32.085 4.07837L32.43 3.97747L32.775 3.87403L33.12 3.76846L33.465 3.66117L33.81 3.55258L34.155 3.44313L34.5 3.33325L34.845 3.22337L35.19 3.11392L35.535 3.00534L35.88 2.89805L36.225 2.79247L36.57 2.68903L36.915 2.58814L37.26 2.49018L37.605 2.39556L37.95 2.30463L38.295 2.21776L38.64 2.13529L38.985 2.05756L39.33 1.98485L39.675 1.91747L40.02 1.85568L40.365 1.79972L40.71 1.74981L41.055 1.70614L41.4 1.6689L41.745 1.63823L42.09 1.61425L42.435 1.59705L42.78 1.5867L43.125 1.58325L43.47 1.5867L43.815 1.59705L44.16 1.61425L44.505 1.63823L44.85 1.6689L45.195 1.70614L45.54 1.74981L45.885 1.79972L46.23 1.85568L46.575 1.91747L46.92 1.98485L47.265 2.05756L47.61 2.13529L47.955 2.21776L48.3 2.30463L48.645 2.39556L48.99 2.49018L49.335 2.58814L49.68 2.68903L50.025 2.79247L50.37 2.89805L50.715 3.00534L51.06 3.11392L51.405 3.22337L51.75 3.33325L52.095 3.44313L52.44 3.55258L52.785 3.66117L53.13 3.76846L53.475 3.87403L53.82 3.97747L54.165 4.07837L54.51 4.17632L54.855 4.27095L55.2 4.36188L55.545 4.44874L55.89 4.53121L56.235 4.60895L56.58 4.68165L56.925 4.74903L57.27 4.81083L57.615 4.86679L57.96 4.9167L58.305 4.96036L58.65 4.9976L58.995 5.02827L59.34 5.05226L59.685 5.06945L60.03 5.0798L60.375 5.08325L60.72 5.0798L61.065 5.06945L61.41 5.05226L61.755 5.02827L62.1 4.9976L62.445 4.96036L62.79 4.9167L63.135 4.86679L63.48 4.81083L63.825 4.74903L64.17 4.68165L64.515 4.60895L64.86 4.53121L65.205 4.44874L65.55 4.36188L65.895 4.27095L66.24 4.17632L66.585 4.07837L66.93 3.97747L67.275 3.87403L67.62 3.76846L67.965 3.66117L68.31 3.55258L68.655 3.44313L69 3.33325L69.345 3.22337L69.69 3.11392L70.035 3.00534L70.38 2.89805L70.725 2.79247L71.07 2.68903L71.415 2.58814L71.76 2.49018L72.105 2.39556L72.45 2.30463L72.795 2.21776L73.14 2.13529L73.485 2.05756L73.83 1.98485L74.175 1.91747L74.52 1.85568L74.865 1.79972L75.21 1.74981L75.555 1.70614L75.9 1.6689L76.245 1.63823L76.59 1.61425L76.935 1.59705L77.28 1.5867L77.625 1.58325L77.97 1.5867L78.315 1.59705L78.66 1.61425L79.005 1.63823L79.35 1.6689L79.695 1.70614L80.04 1.74981L80.385 1.79972L80.73 1.85568L81.075 1.91747L81.42 1.98485L81.765 2.05756L82.11 2.13529L82.455 2.21776L82.8 2.30463L83.145 2.39556L83.49 2.49018L83.835 2.58814L84.18 2.68903L84.525 2.79247L84.87 2.89805L85.215 3.00534L85.56 3.11392L85.905 3.22337L86.25 3.33325L86.595 3.44313L86.94 3.55258L87.285 3.66117L87.63 3.76846L87.975 3.87403L88.32 3.97747L88.665 4.07837L89.01 4.17632L89.355 4.27095L89.7 4.36188L90.045 4.44874L90.39 4.53121L90.735 4.60895L91.08 4.68165L91.425 4.74903L91.77 4.81083L92.115 4.86679L92.46 4.9167L92.805 4.96036L93.15 4.9976L93.495 5.02827L93.84 5.05226L94.185 5.06945L94.53 5.0798L94.875 5.08325L95.22 5.0798L95.565 5.06945L95.91 5.05226L96.255 5.02827L96.6 4.9976L96.945 4.96036L97.29 4.9167L97.635 4.86679L97.98 4.81083L98.325 4.74903L98.67 4.68165L99.015 4.60895L99.36 4.53121L99.705 4.44874L100.05 4.36188L100.395 4.27095L100.74 4.17632L101.085 4.07837L101.43 3.97747L101.775 3.87403L102.12 3.76846L102.465 3.66117L102.81 3.55258L103.155 3.44313L103.5 3.33325L103.845 3.22337L104.19 3.11392L104.535 3.00534L104.88 2.89805L105.225 2.79247L105.57 2.68903L105.915 2.58814L106.26 2.49018L106.605 2.39556L106.95 2.30463L107.295 2.21776L107.64 2.13529L107.985 2.05756L108.33 1.98485L108.675 1.91747L109.02 1.85568L109.365 1.79972L109.71 1.74981L110.055 1.70614L110.4 1.6689L110.745 1.63823L111.09 1.61425L111.435 1.59705L111.78 1.5867L112.125 1.58325L112.47 1.5867L112.815 1.59705L113.16 1.61425L113.505 1.63823L113.85 1.6689L114.195 1.70614L114.54 1.74981L114.885 1.79972L115.23 1.85568L115.575 1.91747L115.92 1.98485L116.265 2.05756L116.61 2.13529L116.955 2.21776L117.3 2.30463L117.645 2.39556L117.99 2.49018L118.335 2.58814L118.68 2.68903L119.025 2.79247L119.37 2.89805L119.715 3.00534L120.06 3.11392L120.405 3.22337L120.75 3.33325L121.095 3.44313L121.44 3.55258L121.785 3.66117L122.13 3.76846L122.475 3.87403L122.82 3.97747L123.165 4.07837L123.51 4.17632L123.855 4.27095L124.2 4.36188L124.545 4.44874L124.89 4.53121L125.235 4.60895L125.58 4.68165L125.925 4.74903L126.27 4.81083L126.615 4.86679L126.96 4.9167L127.305 4.96036L127.65 4.9976L127.995 5.02827L128.34 5.05226L128.685 5.06945L129.03 5.0798L129.375 5.08325L129.72 5.0798L130.065 5.06945L130.41 5.05226L130.755 5.02827L131.1 4.9976L131.445 4.96036L131.79 4.9167L132.135 4.86679L132.48 4.81083L132.825 4.74903L133.17 4.68165L133.515 4.60895L133.86 4.53121L134.205 4.44874L134.55 4.36188L134.895 4.27095L135.24 4.17632L135.585 4.07837L135.93 3.97747L136.275 3.87403L136.62 3.76846L136.965 3.66117L137.31 3.55258L137.655 3.44313" stroke="#D87036" stroke-width="1.5" stroke-miterlimit="10" stroke-linecap="round" stroke-linejoin="round"/>
</svg>
