<svg width="210" height="8" viewBox="0 0 210 8" fill="none" xmlns="http://www.w3.org/2000/svg">
<path d="M0 4L0.525 3.83518L1.05 3.671L1.575 3.50812L2.1 3.34719L2.625 3.18883L3.15 3.03367L3.675 2.88233L4.2 2.7354L4.725 2.59346L5.25 2.45706L5.775 2.32676L6.3 2.20306L6.825 2.08646L7.35 1.9774L7.875 1.87633L8.4 1.78364L8.925 1.6997L9.45 1.62483L9.975 1.55934L10.5 1.50348L11.025 1.45747L11.55 1.4215L12.075 1.3957L12.6 1.38018L13.125 1.375L13.65 1.38018L14.175 1.3957L14.7 1.4215L15.225 1.45747L15.75 1.50348L16.275 1.55934L16.8 1.62483L17.325 1.6997L17.85 1.78364L18.375 1.87633L18.9 1.9774L19.425 2.08646L19.95 2.20306L20.475 2.32676L21 2.45706L21.525 2.59346L22.05 2.7354L22.575 2.88233L23.1 3.03367L23.625 3.18883L24.15 3.34719L24.675 3.50812L25.2 3.671L25.725 3.83518L26.25 4L26.775 4.16482L27.3 4.329L27.825 4.49187L28.35 4.65281L28.875 4.81117L29.4 4.96633L29.925 5.11767L30.45 5.2646L30.975 5.40654L31.5 5.54294L32.025 5.67324L32.55 5.79694L33.075 5.91354L33.6 6.0226L34.125 6.12367L34.65 6.21636L35.175 6.3003L35.7 6.37517L36.225 6.44066L36.75 6.49652L37.275 6.54253L37.8 6.5785L38.325 6.6043L38.85 6.61982L39.375 6.625L39.9 6.61982L40.425 6.6043L40.95 6.5785L41.475 6.54253L42 6.49652L42.525 6.44066L43.05 6.37517L43.575 6.3003L44.1 6.21636L44.625 6.12367L45.15 6.0226L45.675 5.91354L46.2 5.79694L46.725 5.67324L47.25 5.54294L47.775 5.40654L48.3 5.2646L48.825 5.11767L49.35 4.96633L49.875 4.81117L50.4 4.65281L50.925 4.49187L51.45 4.329L51.975 4.16482L52.5 4L53.025 3.83518L53.55 3.671L54.075 3.50812L54.6 3.34719L55.125 3.18883L55.65 3.03367L56.175 2.88233L56.7 2.7354L57.225 2.59346L57.75 2.45706L58.275 2.32676L58.8 2.20306L59.325 2.08646L59.85 1.9774L60.375 1.87633L60.9 1.78364L61.425 1.6997L61.95 1.62483L62.475 1.55934L63 1.50348L63.525 1.45747L64.05 1.4215L64.575 1.3957L65.1 1.38018L65.625 1.375L66.15 1.38018L66.675 1.3957L67.2 1.4215L67.725 1.45747L68.25 1.50348L68.775 1.55934L69.3 1.62483L69.825 1.6997L70.35 1.78364L70.875 1.87633L71.4 1.9774L71.925 2.08646L72.45 2.20306L72.975 2.32676L73.5 2.45706L74.025 2.59346L74.55 2.7354L75.075 2.88233L75.6 3.03367L76.125 3.18883L76.65 3.34719L77.175 3.50812L77.7 3.671L78.225 3.83518L78.75 4L79.275 4.16482L79.8 4.329L80.325 4.49187L80.85 4.65281L81.375 4.81117L81.9 4.96633L82.425 5.11767L82.95 5.2646L83.475 5.40654L84 5.54294L84.525 5.67324L85.05 5.79694L85.575 5.91354L86.1 6.0226L86.625 6.12367L87.15 6.21636L87.675 6.3003L88.2 6.37517L88.725 6.44066L89.25 6.49652L89.775 6.54253L90.3 6.5785L90.825 6.6043L91.35 6.61982L91.875 6.625L92.4 6.61982L92.925 6.6043L93.45 6.5785L93.975 6.54253L94.5 6.49652L95.025 6.44066L95.55 6.37517L96.075 6.3003L96.6 6.21636L97.125 6.12367L97.65 6.0226L98.175 5.91354L98.7 5.79694L99.225 5.67324L99.75 5.54294L100.275 5.40654L100.8 5.2646L101.325 5.11767L101.85 4.96633L102.375 4.81117L102.9 4.65281L103.425 4.49187L103.95 4.329L104.475 4.16482L105 4L105.525 3.83518L106.05 3.671L106.575 3.50812L107.1 3.34719L107.625 3.18883L108.15 3.03367L108.675 2.88233L109.2 2.7354L109.725 2.59346L110.25 2.45706L110.775 2.32676L111.3 2.20306L111.825 2.08646L112.35 1.9774L112.875 1.87633L113.4 1.78364L113.925 1.6997L114.45 1.62483L114.975 1.55934L115.5 1.50348L116.025 1.45747L116.55 1.4215L117.075 1.3957L117.6 1.38018L118.125 1.375L118.65 1.38018L119.175 1.3957L119.7 1.4215L120.225 1.45747L120.75 1.50348L121.275 1.55934L121.8 1.62483L122.325 1.6997L122.85 1.78364L123.375 1.87633L123.9 1.9774L124.425 2.08646L124.95 2.20306L125.475 2.32676L126 2.45706L126.525 2.59346L127.05 2.7354L127.575 2.88233L128.1 3.03367L128.625 3.18883L129.15 3.34719L129.675 3.50812L130.2 3.671L130.725 3.83518L131.25 4L131.775 4.16482L132.3 4.329L132.825 4.49187L133.35 4.65281L133.875 4.81117L134.4 4.96633L134.925 5.11767L135.45 5.2646L135.975 5.40654L136.5 5.54294L137.025 5.67324L137.55 5.79694L138.075 5.91354L138.6 6.0226L139.125 6.12367L139.65 6.21636L140.175 6.3003L140.7 6.37517L141.225 6.44066L141.75 6.49652L142.275 6.54253L142.8 6.5785L143.325 6.6043L143.85 6.61982L144.375 6.625L144.9 6.61982L145.425 6.6043L145.95 6.5785L146.475 6.54253L147 6.49652L147.525 6.44066L148.05 6.37517L148.575 6.3003L149.1 6.21636L149.625 6.12367L150.15 6.0226L150.675 5.91354L151.2 5.79694L151.725 5.67324L152.25 5.54294L152.775 5.40654L153.3 5.2646L153.825 5.11767L154.35 4.96633L154.875 4.81117L155.4 4.65281L155.925 4.49187L156.45 4.329L156.975 4.16482L157.5 4L158.025 3.83518L158.55 3.671L159.075 3.50812L159.6 3.34719L160.125 3.18883L160.65 3.03367L161.175 2.88233L161.7 2.7354L162.225 2.59346L162.75 2.45706L163.275 2.32676L163.8 2.20306L164.325 2.08646L164.85 1.9774L165.375 1.87633L165.9 1.78364L166.425 1.6997L166.95 1.62483L167.475 1.55934L168 1.50348L168.525 1.45747L169.05 1.4215L169.575 1.3957L170.1 1.38018L170.625 1.375L171.15 1.38018L171.675 1.3957L172.2 1.4215L172.725 1.45747L173.25 1.50348L173.775 1.55934L174.3 1.62483L174.825 1.6997L175.35 1.78364L175.875 1.87633L176.4 1.9774L176.925 2.08646L177.45 2.20306L177.975 2.32676L178.5 2.45706L179.025 2.59346L179.55 2.7354L180.075 2.88233L180.6 3.03367L181.125 3.18883L181.65 3.34719L182.175 3.50812L182.7 3.671L183.225 3.83518L183.75 4L184.275 4.16482L184.8 4.329L185.325 4.49187L185.85 4.65281L186.375 4.81117L186.9 4.96633L187.425 5.11767L187.95 5.2646L188.475 5.40654L189 5.54294L189.525 5.67324L190.05 5.79694L190.575 5.91354L191.1 6.0226L191.625 6.12367L192.15 6.21636L192.675 6.3003L193.2 6.37517L193.725 6.44066L194.25 6.49652L194.775 6.54253L195.3 6.5785L195.825 6.6043L196.35 6.61982L196.875 6.625L197.4 6.61982L197.925 6.6043L198.45 6.5785L198.975 6.54253L199.5 6.49652L200.025 6.44066L200.55 6.37517L201.075 6.3003L201.6 6.21636L202.125 6.12367L202.65 6.0226L203.175 5.91354L203.7 5.79694L204.225 5.67324L204.75 5.54294L205.275 5.40654L205.8 5.2646L206.325 5.11767L206.85 4.96633L207.375 4.81117L207.9 4.65281L208.425 4.49187L208.95 4.329L209.475 4.16482" stroke="#D87036" stroke-width="2.625" stroke-miterlimit="10" stroke-linecap="round" stroke-linejoin="round"/>
</svg>
