<svg width="232" height="35" viewBox="0 0 232 35" fill="none" xmlns="http://www.w3.org/2000/svg">
<g clip-path="url(#clip0_375_12700)">
<path d="M0 15.8065L0.582775 15.6204L1.16555 15.435L1.74833 15.2511L2.3311 15.0694L2.91388 14.8906L3.49665 14.7155L4.07943 14.5446L4.6622 14.3787L5.24498 14.2185L5.82775 14.0645L6.41053 13.9173L6.9933 13.7777L7.57608 13.646L8.15885 13.5229L8.74163 13.4088L9.3244 13.3041L9.90718 13.2094L10.49 13.1248L11.0727 13.0509L11.6555 12.9878L12.2383 12.9359L12.8211 12.8953L13.4038 12.8661L13.9866 12.8486L14.5694 12.8428L15.1522 12.8486L15.7349 12.8661L16.3177 12.8953L16.9005 12.9359L17.4833 12.9878L18.066 13.0509L18.6488 13.1248L19.2316 13.2094L19.8144 13.3041L20.3971 13.4088L20.9799 13.5229L21.5627 13.646L22.1455 13.7777L22.7282 13.9173L23.311 14.0645L23.8938 14.2185L24.4766 14.3787L25.0593 14.5446L25.6421 14.7155L26.2249 14.8906L26.8077 15.0694L27.3904 15.2511L27.9732 15.435L28.556 15.6204L29.1388 15.8065L29.7215 15.9926L30.3043 16.1779L30.8871 16.3618L31.4699 16.5435L32.0526 16.7223L32.6354 16.8975L33.2182 17.0684L33.801 17.2343L34.3837 17.3945L34.9665 17.5485L35.5493 17.6956L36.1321 17.8353L36.7148 17.9669L37.2976 18.0901L37.8804 18.2042L38.4632 18.3088L39.0459 18.4036L39.6287 18.4881L40.2115 18.5621L40.7943 18.6251L41.377 18.6771L41.9598 18.7177L42.5426 18.7468L43.1254 18.7643L43.7081 18.7702L44.2909 18.7643L44.8737 18.7468L45.4565 18.7177L46.0392 18.6771L46.622 18.6251L47.2048 18.5621L47.7876 18.4881L48.3703 18.4036L48.9531 18.3088L49.5359 18.2042L50.1187 18.0901L50.7014 17.9669L51.2842 17.8353L51.867 17.6956L52.4498 17.5485L53.0325 17.3945L53.6153 17.2343L54.1981 17.0684L54.7809 16.8975L55.3636 16.7223L55.9464 16.5435L56.5292 16.3618L57.112 16.1779L57.6947 15.9926L58.2775 15.8065L58.8603 15.6204L59.4431 15.435L60.0258 15.2511L60.6086 15.0694L61.1914 14.8906L61.7742 14.7155L62.3569 14.5446L62.9397 14.3787L63.5225 14.2185L64.1053 14.0645L64.688 13.9173L65.2708 13.7777L65.8536 13.646L66.4364 13.5229L67.0191 13.4088L67.6019 13.3041L68.1847 13.2094L68.7675 13.1248L69.3502 13.0509L69.933 12.9878L70.5158 12.9359L71.0986 12.8953L71.6813 12.8661L72.2641 12.8486L72.8469 12.8428L73.4297 12.8486L74.0124 12.8661L74.5952 12.8953L75.178 12.9359L75.7608 12.9878L76.3435 13.0509L76.9263 13.1248L77.5091 13.2094L78.0919 13.3041L78.6746 13.4088L79.2574 13.5229L79.8402 13.646L80.423 13.7777L81.0057 13.9173L81.5885 14.0645L82.1713 14.2185L82.7541 14.3787L83.3368 14.5446L83.9196 14.7155L84.5024 14.8906L85.0852 15.0694L85.6679 15.2511L86.2507 15.435L86.8335 15.6204L87.4163 15.8065L87.999 15.9926L88.5818 16.1779L89.1646 16.3618L89.7474 16.5435L90.3301 16.7223L90.9129 16.8975L91.4957 17.0684L92.0785 17.2343L92.6612 17.3945L93.244 17.5485L93.8268 17.6956L94.4096 17.8353L94.9923 17.9669L95.5751 18.0901L96.1579 18.2042L96.7407 18.3088L97.3234 18.4036L97.9062 18.4881L98.489 18.5621L99.0718 18.6251L99.6545 18.6771L100.237 18.7177L100.82 18.7468L101.403 18.7643L101.986 18.7702L102.568 18.7643L103.151 18.7468L103.734 18.7177L104.317 18.6771L104.9 18.6251L105.482 18.5621L106.065 18.4881L106.648 18.4036L107.231 18.3088L107.813 18.2042L108.396 18.0901L108.979 17.9669L109.562 17.8353L110.144 17.6956L110.727 17.5485L111.31 17.3945L111.893 17.2343L112.476 17.0684L113.058 16.8975L113.641 16.7223L114.224 16.5435L114.807 16.3618L115.389 16.1779L115.972 15.9926L116.555 15.8065L117.138 15.6204L117.721 15.435L118.303 15.2511L118.886 15.0694L119.469 14.8906L120.052 14.7155L120.634 14.5446L121.217 14.3787L121.8 14.2185L122.383 14.0645L122.966 13.9173L123.548 13.7777L124.131 13.646L124.714 13.5229L125.297 13.4088L125.879 13.3041L126.462 13.2094L127.045 13.1248L127.628 13.0509L128.211 12.9878L128.793 12.9359L129.376 12.8953L129.959 12.8661L130.542 12.8486L131.124 12.8428L131.707 12.8486L132.29 12.8661L132.873 12.8953L133.456 12.9359L134.038 12.9878L134.621 13.0509L135.204 13.1248L135.787 13.2094L136.369 13.3041L136.952 13.4088L137.535 13.5229L138.118 13.646L138.7 13.7777L139.283 13.9173L139.866 14.0645L140.449 14.2185L141.032 14.3787L141.614 14.5446L142.197 14.7155L142.78 14.8906L143.363 15.0694L143.945 15.2511L144.528 15.435L145.111 15.6204L145.694 15.8065L146.277 15.9926L146.859 16.1779L147.442 16.3618L148.025 16.5435L148.608 16.7223L149.19 16.8975L149.773 17.0684L150.356 17.2343L150.939 17.3945L151.522 17.5485L152.104 17.6956L152.687 17.8353L153.27 17.9669L153.853 18.0901L154.435 18.2042L155.018 18.3088L155.601 18.4036L156.184 18.4881L156.767 18.5621L157.349 18.6251L157.932 18.6771L158.515 18.7177L159.098 18.7468L159.68 18.7643L160.263 18.7702L160.846 18.7643L161.429 18.7468L162.011 18.7177L162.594 18.6771L163.177 18.6251L163.76 18.5621L164.343 18.4881L164.925 18.4036L165.508 18.3088L166.091 18.2042L166.674 18.0901L167.256 17.9669L167.839 17.8353L168.422 17.6956L169.005 17.5485L169.588 17.3945L170.17 17.2343L170.753 17.0684L171.336 16.8975L171.919 16.7223L172.501 16.5435L173.084 16.3618L173.667 16.1779L174.25 15.9926L174.833 15.8065L175.415 15.6204L175.998 15.435L176.581 15.2511L177.164 15.0694L177.746 14.8906L178.329 14.7155L178.912 14.5446L179.495 14.3787L180.078 14.2185L180.66 14.0645L181.243 13.9173L181.826 13.7777L182.409 13.646L182.991 13.5229L183.574 13.4088L184.157 13.3041L184.74 13.2094L185.322 13.1248L185.905 13.0509L186.488 12.9878L187.071 12.9359L187.654 12.8953L188.236 12.8661L188.819 12.8486L189.402 12.8428L189.985 12.8486L190.567 12.8661L191.15 12.8953L191.733 12.9359L192.316 12.9878L192.899 13.0509L193.481 13.1248L194.064 13.2094L194.647 13.3041L195.23 13.4088L195.812 13.5229L196.395 13.646L196.978 13.7777L197.561 13.9173L198.144 14.0645L198.726 14.2185L199.309 14.3787L199.892 14.5446L200.475 14.7155L201.057 14.8906L201.64 15.0694L202.223 15.2511L202.806 15.435L203.389 15.6204L203.971 15.8065L204.554 15.9926L205.137 16.1779L205.72 16.3618L206.302 16.5435L206.885 16.7223L207.468 16.8975L208.051 17.0684L208.633 17.2343L209.216 17.3945L209.799 17.5485L210.382 17.6956L210.965 17.8353L211.547 17.9669L212.13 18.0901L212.713 18.2042L213.296 18.3088L213.878 18.4036L214.461 18.4881L215.044 18.5621L215.627 18.6251L216.21 18.6771L216.792 18.7177L217.375 18.7468L217.958 18.7643L218.541 18.7702L219.123 18.7643L219.706 18.7468L220.289 18.7177L220.872 18.6771L221.455 18.6251L222.037 18.5621L222.62 18.4881L223.203 18.4036L223.786 18.3088L224.368 18.2042L224.951 18.0901L225.534 17.9669L226.117 17.8353L226.7 17.6956L227.282 17.5485L227.865 17.3945L228.448 17.2343L229.031 17.0684L229.613 16.8975L230.196 16.7223L230.779 16.5435L231.362 16.3618L231.944 16.1779L232.527 15.9926" stroke="#D87036" stroke-width="2.625" stroke-miterlimit="10" stroke-linecap="round" stroke-linejoin="round"/>
</g>
<defs>
<clipPath id="clip0_375_12700">
<rect width="232" height="35" fill="white"/>
</clipPath>
</defs>
</svg>
