<svg width="169" height="9" viewBox="0 0 169 9" fill="none" xmlns="http://www.w3.org/2000/svg">
<path d="M0 4.77767L0.4225 4.61546L0.845 4.45389L1.2675 4.2936L1.69 4.13522L2.1125 3.97938L2.535 3.82668L2.9575 3.67774L3.38 3.53314L3.8025 3.39345L4.225 3.25922L4.6475 3.13099L5.07 3.00926L5.4925 2.8945L5.915 2.78717L6.3375 2.68771L6.76 2.59649L7.1825 2.51388L7.605 2.4402L8.0275 2.37575L8.45 2.32077L8.8725 2.27549L9.295 2.24009L9.7175 2.21471L10.14 2.19943L10.5625 2.19434L10.985 2.19943L11.4075 2.21471L11.83 2.24009L12.2525 2.27549L12.675 2.32077L13.0975 2.37575L13.52 2.4402L13.9425 2.51388L14.365 2.59649L14.7875 2.68771L15.21 2.78717L15.6325 2.8945L16.055 3.00926L16.4775 3.13099L16.9 3.25922L17.3225 3.39345L17.745 3.53314L18.1675 3.67774L18.59 3.82668L19.0125 3.97938L19.435 4.13522L19.8575 4.2936L20.28 4.45389L20.7025 4.61546L21.125 4.77767L21.5475 4.93988L21.97 5.10145L22.3925 5.26174L22.815 5.42012L23.2375 5.57596L23.66 5.72866L24.0825 5.8776L24.505 6.0222L24.9275 6.16189L25.35 6.29611L25.7725 6.42435L26.195 6.54608L26.6175 6.66084L27.04 6.76816L27.4625 6.86763L27.885 6.95885L28.3075 7.04146L28.73 7.11514L29.1525 7.17959L29.575 7.23456L29.9975 7.27984L30.42 7.31525L30.8425 7.34063L31.265 7.35591L31.6875 7.361L32.11 7.35591L32.5325 7.34063L32.955 7.31525L33.3775 7.27984L33.8 7.23456L34.2225 7.17959L34.645 7.11514L35.0675 7.04146L35.49 6.95885L35.9125 6.86763L36.335 6.76816L36.7575 6.66084L37.18 6.54608L37.6025 6.42435L38.025 6.29611L38.4475 6.16189L38.87 6.0222L39.2925 5.8776L39.715 5.72866L40.1375 5.57596L40.56 5.42012L40.9825 5.26174L41.405 5.10145L41.8275 4.93988L42.25 4.77767L42.6725 4.61546L43.095 4.45389L43.5175 4.2936L43.94 4.13522L44.3625 3.97938L44.785 3.82668L45.2075 3.67774L45.63 3.53314L46.0525 3.39345L46.475 3.25922L46.8975 3.13099L47.32 3.00926L47.7425 2.8945L48.165 2.78717L48.5875 2.68771L49.01 2.59649L49.4325 2.51388L49.855 2.4402L50.2775 2.37575L50.7 2.32077L51.1225 2.27549L51.545 2.24009L51.9675 2.21471L52.39 2.19943L52.8125 2.19434L53.235 2.19943L53.6575 2.21471L54.08 2.24009L54.5025 2.27549L54.925 2.32077L55.3475 2.37575L55.77 2.4402L56.1925 2.51388L56.615 2.59649L57.0375 2.68771L57.46 2.78717L57.8825 2.8945L58.305 3.00926L58.7275 3.13099L59.15 3.25922L59.5725 3.39345L59.995 3.53314L60.4175 3.67774L60.84 3.82668L61.2625 3.97938L61.685 4.13522L62.1075 4.2936L62.53 4.45389L62.9525 4.61546L63.375 4.77767L63.7975 4.93988L64.22 5.10145L64.6425 5.26174L65.065 5.42012L65.4875 5.57596L65.91 5.72866L66.3325 5.8776L66.755 6.0222L67.1775 6.16189L67.6 6.29611L68.0225 6.42435L68.445 6.54608L68.8675 6.66084L69.29 6.76816L69.7125 6.86763L70.135 6.95885L70.5575 7.04146L70.98 7.11514L71.4025 7.17959L71.825 7.23456L72.2475 7.27984L72.67 7.31525L73.0925 7.34063L73.515 7.35591L73.9375 7.361L74.36 7.35591L74.7825 7.34063L75.205 7.31525L75.6275 7.27984L76.05 7.23456L76.4725 7.17959L76.895 7.11514L77.3175 7.04146L77.74 6.95885L78.1625 6.86763L78.585 6.76816L79.0075 6.66084L79.43 6.54608L79.8525 6.42435L80.275 6.29611L80.6975 6.16189L81.12 6.0222L81.5425 5.8776L81.965 5.72866L82.3875 5.57596L82.81 5.42012L83.2325 5.26174L83.655 5.10145L84.0775 4.93988L84.5 4.77767L84.9225 4.61546L85.345 4.45389L85.7675 4.2936L86.19 4.13522L86.6125 3.97938L87.035 3.82668L87.4575 3.67774L87.88 3.53314L88.3025 3.39345L88.725 3.25922L89.1475 3.13099L89.57 3.00926L89.9925 2.8945L90.415 2.78717L90.8375 2.68771L91.26 2.59649L91.6825 2.51388L92.105 2.4402L92.5275 2.37575L92.95 2.32077L93.3725 2.27549L93.795 2.24009L94.2175 2.21471L94.64 2.19943L95.0625 2.19434L95.485 2.19943L95.9075 2.21471L96.33 2.24009L96.7525 2.27549L97.175 2.32077L97.5975 2.37575L98.02 2.4402L98.4425 2.51388L98.865 2.59649L99.2875 2.68771L99.71 2.78717L100.132 2.8945L100.555 3.00926L100.977 3.13099L101.4 3.25922L101.822 3.39345L102.245 3.53314L102.667 3.67774L103.09 3.82668L103.512 3.97938L103.935 4.13522L104.357 4.2936L104.78 4.45389L105.202 4.61546L105.625 4.77767L106.047 4.93988L106.47 5.10145L106.892 5.26174L107.315 5.42012L107.737 5.57596L108.16 5.72866L108.582 5.8776L109.005 6.0222L109.427 6.16189L109.85 6.29611L110.272 6.42435L110.695 6.54608L111.117 6.66084L111.54 6.76816L111.962 6.86763L112.385 6.95885L112.807 7.04146L113.23 7.11514L113.652 7.17959L114.075 7.23456L114.497 7.27984L114.92 7.31525L115.342 7.34063L115.765 7.35591L116.187 7.361L116.61 7.35591L117.032 7.34063L117.455 7.31525L117.877 7.27984L118.3 7.23456L118.722 7.17959L119.145 7.11514L119.567 7.04146L119.99 6.95885L120.412 6.86763L120.835 6.76816L121.257 6.66084L121.68 6.54608L122.102 6.42435L122.525 6.29611L122.947 6.16189L123.37 6.0222L123.792 5.8776L124.215 5.72866L124.637 5.57596L125.06 5.42012L125.482 5.26174L125.905 5.10145L126.327 4.93988L126.75 4.77767L127.172 4.61546L127.595 4.45389L128.017 4.2936L128.44 4.13522L128.862 3.97938L129.285 3.82668L129.707 3.67774L130.13 3.53314L130.552 3.39345L130.975 3.25922L131.397 3.13099L131.82 3.00926L132.242 2.8945L132.665 2.78717L133.087 2.68771L133.51 2.59649L133.932 2.51388L134.355 2.4402L134.777 2.37575L135.2 2.32077L135.622 2.27549L136.045 2.24009L136.467 2.21471L136.89 2.19943L137.312 2.19434L137.735 2.19943L138.157 2.21471L138.58 2.24009L139.002 2.27549L139.425 2.32077L139.847 2.37575L140.27 2.4402L140.692 2.51388L141.115 2.59649L141.537 2.68771L141.96 2.78717L142.382 2.8945L142.805 3.00926L143.227 3.13099L143.65 3.25922L144.072 3.39345L144.495 3.53314L144.917 3.67774L145.34 3.82668L145.762 3.97938L146.185 4.13522L146.607 4.2936L147.03 4.45389L147.452 4.61546L147.875 4.77767L148.297 4.93988L148.72 5.10145L149.142 5.26174L149.565 5.42012L149.987 5.57596L150.41 5.72866L150.832 5.8776L151.255 6.0222L151.677 6.16189L152.1 6.29611L152.522 6.42435L152.945 6.54608L153.367 6.66084L153.79 6.76816L154.212 6.86763L154.635 6.95885L155.057 7.04146L155.48 7.11514L155.902 7.17959L156.325 7.23456L156.747 7.27984L157.17 7.31525L157.592 7.34063L158.015 7.35591L158.437 7.361L158.86 7.35591L159.282 7.34063L159.705 7.31525L160.127 7.27984L160.55 7.23456L160.972 7.17959L161.395 7.11514L161.817 7.04146L162.24 6.95885L162.662 6.86763L163.085 6.76816L163.507 6.66084L163.93 6.54608L164.352 6.42435L164.775 6.29611L165.197 6.16189L165.62 6.0222L166.042 5.8776L166.465 5.72866L166.887 5.57596L167.31 5.42012L167.732 5.26174L168.155 5.10145L168.577 4.93988" stroke="#D87036" stroke-width="2.625" stroke-miterlimit="10" stroke-linecap="round" stroke-linejoin="round"/>
</svg>
