<svg width="15" height="14" viewBox="0 0 15 14" fill="none" xmlns="http://www.w3.org/2000/svg">
<path fill-rule="evenodd" clip-rule="evenodd" d="M9.52171 4.25442C9.52171 6.57073 7.67237 8.50883 5.31726 8.50883C2.96215 8.50883 1.11281 6.57073 1.11281 4.25442C1.11281 1.9381 2.96215 0 5.31726 0C7.67237 0 9.52171 1.9381 9.52171 4.25442ZM5.31726 7.02473C6.81676 7.02473 8.03234 5.78442 8.03234 4.25442C8.03234 2.72441 6.81676 1.4841 5.31726 1.4841C3.81776 1.4841 2.60218 2.72441 2.60218 4.25442C2.60218 5.78442 3.81776 7.02473 5.31726 7.02473ZM1.99061 11.5251C1.98955 11.5283 1.98937 11.5289 1.98937 11.5265V11.5316V11.5366V11.5417V11.5468V11.5519V11.5569V11.562V11.5671V11.5722V11.5772V11.5823V11.5874V11.5924V11.5975V11.6026V11.6076V11.6127V11.6178V11.6228V11.6279V11.633V11.638V11.6431V11.6482V11.6532V11.6583V11.6633V11.6684V11.6735V11.6785V11.6836V11.6886V11.6937V11.6987V11.7038V11.7088V11.7139V11.7189V11.724V11.729V11.734V11.7391V11.7441V11.7491V11.7542V11.7592V11.7642V11.7693V11.7743V11.7793V11.7843V11.7894V11.7944V11.7994V11.8044V11.8094V11.8144V11.8195V11.8245V11.8295V11.8345V11.8395V11.8445V11.8495V11.8545V11.8594V11.8644V11.8694V11.8744V11.8794V11.8843V11.8893V11.8943V11.8993V11.9042V11.9092V11.9141V11.9191V11.9241V11.929V11.934V11.9389V11.9438V11.9488V11.9537V11.9586V11.9636V11.9685V11.9734V11.9783V11.9832V11.9882V11.9931V11.998V12.0029V12.0078V12.0127V12.0175V12.0224V12.0273V12.0322V12.0371V12.0419V12.0468V12.0517V12.0565V12.0614V12.0662V12.0711V12.0759V12.0807V12.0856V12.0904V12.0952V12.1V12.1049V12.1097V12.1145V12.1193V12.1241V12.1289V12.1336V12.1384V12.1432V12.148V12.1527V12.1575V12.1623V12.167V12.1718V12.1765V12.1812V12.186V12.1907V12.1954V12.2002V12.2049V12.2096V12.2143V12.219V12.2237V12.2283V12.233V12.2377V12.2424V12.247V12.2517V12.2563V12.261V12.2656V12.2703V12.2749V12.2795V12.2841V12.2887V12.2933V12.2979V12.3025V12.3071V12.3117V12.3163V12.3208V12.3254V12.33V12.3345V12.339V12.3436V12.3481V12.3526V12.3572V12.3617V12.3662V12.3707V12.3752V12.3796V12.3841V12.3886V12.393V12.3975V12.402V12.4064V12.4108V12.4153V12.4197V12.4241V12.4285V12.4329V12.4373V12.4417V12.4461V12.4504V12.4548V12.4591V12.4635V12.4678V12.4722V12.4765V12.4808V12.4851V12.4894V12.4937V12.498V12.5023V12.5066V12.5108V12.5151V12.5193V12.5236V12.5278V12.532V12.5362V12.5404V12.5446V12.5488V12.553V12.5572V12.5613V12.5655V12.5697V12.5738V12.5779V12.582V12.5862V12.5903V12.5944V12.5985V12.6025V12.6066V12.6107V12.6147V12.6188V12.6228V12.6268V12.6308V12.6349V12.6389V12.6428V12.6468V12.6508V12.6548V12.6587V12.6627V12.6666V12.6705V12.6744V12.6783V12.6822V12.6861V12.69V12.6939V12.6977V12.7016V12.7054V12.7092V12.7131V12.7169V12.7207V12.7245V12.7282V12.732V12.7358V12.7395V12.7433V12.747V12.7507V12.7544V12.7581V12.7618V12.7655V12.7691V12.7728V12.7764V12.7801V12.7837V12.7873V12.7909V12.7945V12.7981V12.8017V12.8052V12.8088V12.8123V12.8159V12.8194V12.8229V12.8264V12.8299V12.8333V12.8368V12.8402V12.8437V12.8471V12.8505V12.8539V12.8573V12.8607V12.8641V12.8674V12.8708V12.8741V12.8775V12.8808V12.8841V12.8874V12.8906V12.8939V12.8972V12.9004V12.9036V12.9069V12.9101V12.9133V12.9164V12.9196V12.9228V12.9259V12.929V12.9322V12.9353V12.9384V12.9415V12.9445V12.9476V12.9506V12.9537V12.9567V12.9597V12.9627V12.9657V12.9687V12.9716V12.9746V12.9775V12.9804V12.9833V12.9862V12.9891V12.992V12.9948V12.9977V13.0005V13.0033V13.0061V13.0089V13.0117V13.0144V13.0172V13.0199V13.0227V13.0254V13.0281V13.0307V13.0334V13.0361V13.0387V13.0413V13.0439V13.0465V13.0491V13.0517V13.0543V13.0568V13.0593V13.0618V13.0644V13.0668V13.0693V13.0718V13.0742V13.0766V13.0791V13.0815V13.0839V13.0862V13.0886V13.0909V13.0933V13.0956V13.0979V13.1002V13.1024V13.1047V13.1069V13.1092V13.1114V13.1136V13.1157V13.1179V13.1201V13.1222V13.1243V13.1264V13.1285V13.1306V13.1327V13.1347V13.1367V13.1387V13.1407V13.1427V13.1447V13.1467V13.1486V13.1505V13.1524V13.1543V13.1562V13.158V13.1599V13.1617V13.1635V13.1653V13.1671V13.1689V13.1706V13.1723V13.1741V13.1758V13.1774V13.1791V13.1808V13.1824V13.184V13.1856V13.1872V13.1888V13.1903V13.1919V13.1934V13.1949V13.1964V13.1978V13.1993V13.2007V13.2022V13.2036V13.2049V13.2063V13.2077V13.209V13.2103V13.2116V13.2129V13.2142V13.2154V13.2166V13.2179V13.2191V13.2202V13.2214V13.2225V13.2237V13.2248V13.2259V13.227V13.228V13.2291V13.2301V13.2311V13.2321V13.233V13.234V13.2349V13.2358V13.2367V13.2376V13.2385V13.2393V13.2401V13.241V13.2417V13.2425V13.2433V13.244V13.2447V13.2454V13.2461V13.2468V13.2474V13.248V13.2486V13.2492V13.2498V13.2503V13.2509V13.2514V13.2519V13.2523V13.2528V13.2532V13.2536V13.254V13.2544V13.2548V13.2551V13.2554V13.2557V13.256V13.2563V13.2565V13.2568V13.257V13.2572V13.2573V13.2575V13.2576V13.2577V13.2578V13.2579V13.2579V13.2579C1.98937 13.6678 1.65596 14 1.24468 14C0.833406 14 0.5 13.6678 0.5 13.2579V13.2579V13.2579V13.2578V13.2577V13.2576V13.2575V13.2573V13.2572V13.257V13.2568V13.2565V13.2563V13.256V13.2557V13.2554V13.2551V13.2548V13.2544V13.254V13.2536V13.2532V13.2528V13.2523V13.2519V13.2514V13.2509V13.2503V13.2498V13.2492V13.2486V13.248V13.2474V13.2468V13.2461V13.2454V13.2447V13.244V13.2433V13.2425V13.2417V13.241V13.2401V13.2393V13.2385V13.2376V13.2367V13.2358V13.2349V13.234V13.233V13.2321V13.2311V13.2301V13.2291V13.228V13.227V13.2259V13.2248V13.2237V13.2225V13.2214V13.2202V13.2191V13.2179V13.2166V13.2154V13.2142V13.2129V13.2116V13.2103V13.209V13.2077V13.2063V13.2049V13.2036V13.2022V13.2007V13.1993V13.1978V13.1964V13.1949V13.1934V13.1919V13.1903V13.1888V13.1872V13.1856V13.184V13.1824V13.1808V13.1791V13.1774V13.1758V13.1741V13.1723V13.1706V13.1689V13.1671V13.1653V13.1635V13.1617V13.1599V13.158V13.1562V13.1543V13.1524V13.1505V13.1486V13.1467V13.1447V13.1427V13.1407V13.1387V13.1367V13.1347V13.1327V13.1306V13.1285V13.1264V13.1243V13.1222V13.1201V13.1179V13.1157V13.1136V13.1114V13.1092V13.1069V13.1047V13.1024V13.1002V13.0979V13.0956V13.0933V13.0909V13.0886V13.0862V13.0839V13.0815V13.0791V13.0766V13.0742V13.0718V13.0693V13.0668V13.0644V13.0618V13.0593V13.0568V13.0543V13.0517V13.0491V13.0465V13.0439V13.0413V13.0387V13.0361V13.0334V13.0307V13.0281V13.0254V13.0227V13.0199V13.0172V13.0144V13.0117V13.0089V13.0061V13.0033V13.0005V12.9977V12.9948V12.992V12.9891V12.9862V12.9833V12.9804V12.9775V12.9746V12.9716V12.9687V12.9657V12.9627V12.9597V12.9567V12.9537V12.9506V12.9476V12.9445V12.9415V12.9384V12.9353V12.9322V12.929V12.9259V12.9228V12.9196V12.9164V12.9133V12.9101V12.9069V12.9036V12.9004V12.8972V12.8939V12.8906V12.8874V12.8841V12.8808V12.8775V12.8741V12.8708V12.8674V12.8641V12.8607V12.8573V12.8539V12.8505V12.8471V12.8437V12.8402V12.8368V12.8333V12.8299V12.8264V12.8229V12.8194V12.8159V12.8123V12.8088V12.8052V12.8017V12.7981V12.7945V12.7909V12.7873V12.7837V12.7801V12.7764V12.7728V12.7691V12.7655V12.7618V12.7581V12.7544V12.7507V12.747V12.7433V12.7395V12.7358V12.732V12.7282V12.7245V12.7207V12.7169V12.7131V12.7092V12.7054V12.7016V12.6977V12.6939V12.69V12.6861V12.6822V12.6783V12.6744V12.6705V12.6666V12.6627V12.6587V12.6548V12.6508V12.6468V12.6428V12.6389V12.6349V12.6308V12.6268V12.6228V12.6188V12.6147V12.6107V12.6066V12.6025V12.5985V12.5944V12.5903V12.5862V12.582V12.5779V12.5738V12.5697V12.5655V12.5613V12.5572V12.553V12.5488V12.5446V12.5404V12.5362V12.532V12.5278V12.5236V12.5193V12.5151V12.5108V12.5066V12.5023V12.498V12.4937V12.4894V12.4851V12.4808V12.4765V12.4722V12.4678V12.4635V12.4591V12.4548V12.4504V12.4461V12.4417V12.4373V12.4329V12.4285V12.4241V12.4197V12.4153V12.4108V12.4064V12.402V12.3975V12.393V12.3886V12.3841V12.3796V12.3752V12.3707V12.3662V12.3617V12.3572V12.3526V12.3481V12.3436V12.339V12.3345V12.33V12.3254V12.3208V12.3163V12.3117V12.3071V12.3025V12.2979V12.2933V12.2887V12.2841V12.2795V12.2749V12.2703V12.2656V12.261V12.2563V12.2517V12.247V12.2424V12.2377V12.233V12.2283V12.2237V12.219V12.2143V12.2096V12.2049V12.2002V12.1954V12.1907V12.186V12.1812V12.1765V12.1718V12.167V12.1623V12.1575V12.1527V12.148V12.1432V12.1384V12.1336V12.1289V12.1241V12.1193V12.1145V12.1097V12.1049V12.1V12.0952V12.0904V12.0856V12.0807V12.0759V12.0711V12.0662V12.0614V12.0565V12.0517V12.0468V12.0419V12.0371V12.0322V12.0273V12.0224V12.0175V12.0127V12.0078V12.0029V11.998V11.9931V11.9882V11.9832V11.9783V11.9734V11.9685V11.9636V11.9586V11.9537V11.9488V11.9438V11.9389V11.934V11.929V11.9241V11.9191V11.9141V11.9092V11.9042V11.8993V11.8943V11.8893V11.8843V11.8794V11.8744V11.8694V11.8644V11.8594V11.8545V11.8495V11.8445V11.8395V11.8345V11.8295V11.8245V11.8195V11.8144V11.8094V11.8044V11.7994V11.7944V11.7894V11.7843V11.7793V11.7743V11.7693V11.7642V11.7592V11.7542V11.7491V11.7441V11.7391V11.734V11.729V11.724V11.7189V11.7139V11.7088V11.7038V11.6987V11.6937V11.6886V11.6836V11.6785V11.6735V11.6684V11.6633V11.6583V11.6532V11.6482V11.6431V11.638V11.633V11.6279V11.6228V11.6178V11.6127V11.6076V11.6026V11.5975V11.5924V11.5874V11.5823V11.5772V11.5722V11.5671V11.562V11.5569V11.5519V11.5468V11.5417V11.5366V11.5316V11.5265C0.5 10.638 1.24667 10.0184 2.01199 9.6634C2.83646 9.28097 3.96883 9.053 5.31731 9.053C6.66578 9.053 7.79815 9.28097 8.62262 9.66339C9.38794 10.0184 10.1346 10.638 10.1346 11.5265L10.1346 12.8792V13.17V13.2368V13.2528V13.2567V13.2576V13.2579V13.2579V13.2579C10.1346 13.6678 9.8012 14 9.38992 14C8.97865 14 8.64524 13.6678 8.64524 13.258V13.2579V13.2579V13.2576V13.2567V13.2528V13.2368V13.17L8.64524 12.8792V11.5265C8.64524 11.5289 8.64506 11.5283 8.644 11.5251C8.63495 11.4972 8.56206 11.2723 7.99409 11.0089C7.41875 10.742 6.5148 10.5371 5.31731 10.5371C4.11981 10.5371 3.21586 10.742 2.64052 11.0089C2.07255 11.2723 1.99965 11.4972 1.99061 11.5251ZM10.2305 1.48409C10.2305 1.07426 10.5639 0.742037 10.9752 0.742037C12.9219 0.742037 14.5 2.31458 14.5 4.2544C14.5 6.19423 12.9219 7.76677 10.9752 7.76677C10.5639 7.76677 10.2305 7.43455 10.2305 7.02472C10.2305 6.6149 10.5639 6.28267 10.9752 6.28267C12.0993 6.28267 13.0106 5.37459 13.0106 4.2544C13.0106 3.13422 12.0993 2.22614 10.9752 2.22614C10.5639 2.22614 10.2305 1.89391 10.2305 1.48409ZM10.2305 9.10246C10.2305 8.69264 10.5639 8.36041 10.9752 8.36041C12.1961 8.36041 13.0976 8.77259 13.6906 9.40299C14.2671 10.0158 14.5 10.7803 14.5 11.4111V11.4192V11.4272V11.4353V11.4434V11.4514V11.4594V11.4674V11.4753V11.4833V11.4912V11.4991V11.5069V11.5148V11.5226V11.5304V11.5382V11.546V11.5537V11.5615V11.5692V11.5769V11.5845V11.5922V11.5998V11.6074V11.615V11.6226V11.6301V11.6376V11.6451V11.6526V11.6601V11.6675V11.6749V11.6823V11.6897V11.6971V11.7044V11.7117V11.719V11.7263V11.7336V11.7408V11.748V11.7552V11.7624V11.7695V11.7767V11.7838V11.7909V11.798V11.805V11.812V11.8191V11.8261V11.833V11.84V11.8469V11.8538V11.8607V11.8676V11.8745V11.8813V11.8881V11.8949V11.9017V11.9084V11.9152V11.9219V11.9286V11.9353V11.9419V11.9486V11.9552V11.9618V11.9684V11.9749V11.9815V11.988V11.9945V12.001V12.0074V12.0139V12.0203V12.0267V12.0331V12.0394V12.0458V12.0521V12.0584V12.0647V12.071V12.0772V12.0835V12.0897V12.0959V12.102V12.1082V12.1143V12.1204V12.1265V12.1326V12.1387V12.1447V12.1507V12.1567V12.1627V12.1687V12.1746V12.1805V12.1865V12.1923V12.1982V12.2041V12.2099V12.2157V12.2215V12.2273V12.233V12.2388V12.2445V12.2502V12.2559V12.2615V12.2672V12.2728V12.2784V12.284V12.2896V12.2951V12.3007V12.3062V12.3117V12.3171V12.3226V12.328V12.3335V12.3389V12.3443V12.3496V12.355V12.3603V12.3656V12.3709V12.3762V12.3815V12.3867V12.3919V12.3971V12.4023V12.4075V12.4126V12.4178V12.4229V12.428V12.4331V12.4381V12.4432V12.4482V12.4532V12.4582V12.4632V12.4681V12.4731V12.478V12.4829V12.4878V12.4926V12.4975V12.5023V12.5071V12.5119V12.5167V12.5214V12.5262V12.5309V12.5356V12.5403V12.545V12.5496V12.5543V12.5589V12.5635V12.5681V12.5726V12.5772V12.5817V12.5862V12.5907V12.5952V12.5997V12.6041V12.6086V12.613V12.6174V12.6218V12.6261V12.6305V12.6348V12.6391V12.6434V12.6477V12.6519V12.6562V12.6604V12.6646V12.6688V12.673V12.6771V12.6813V12.6854V12.6895V12.6936V12.6977V12.7017V12.7058V12.7098V12.7138V12.7178V12.7218V12.7257V12.7297V12.7336V12.7375V12.7414V12.7453V12.7491V12.753V12.7568V12.7606V12.7644V12.7682V12.7719V12.7757V12.7794V12.7831V12.7868V12.7905V12.7941V12.7978V12.8014V12.805V12.8086V12.8122V12.8158V12.8193V12.8229V12.8264V12.8299V12.8334V12.8368V12.8403V12.8437V12.8471V12.8505V12.8539V12.8573V12.8607V12.864V12.8673V12.8706V12.8739V12.8772V12.8805V12.8837V12.887V12.8902V12.8934V12.8966V12.8997V12.9029V12.906V12.9091V12.9123V12.9153V12.9184V12.9215V12.9245V12.9276V12.9306V12.9336V12.9366V12.9395V12.9425V12.9454V12.9483V12.9513V12.9541V12.957V12.9599V12.9627V12.9656V12.9684V12.9712V12.974V12.9767V12.9795V12.9822V12.985V12.9877V12.9904V12.9931V12.9957V12.9984V13.001V13.0036V13.0062V13.0088V13.0114V13.014V13.0165V13.0191V13.0216V13.0241V13.0266V13.029V13.0315V13.034V13.0364V13.0388V13.0412V13.0436V13.046V13.0483V13.0507V13.053V13.0553V13.0576V13.0599V13.0622V13.0644V13.0667V13.0689V13.0711V13.0733V13.0755V13.0777V13.0798V13.082V13.0841V13.0862V13.0883V13.0904V13.0925V13.0946V13.0966V13.0986V13.1006V13.1027V13.1046V13.1066V13.1086V13.1105V13.1125V13.1144V13.1163V13.1182V13.1201V13.1219V13.1238V13.1256V13.1274V13.1292V13.131V13.1328V13.1346V13.1364V13.1381V13.1398V13.1415V13.1432V13.1449V13.1466V13.1483V13.1499V13.1516V13.1532V13.1548V13.1564V13.158V13.1595V13.1611V13.1626V13.1642V13.1657V13.1672V13.1687V13.1701V13.1716V13.173V13.1745V13.1759V13.1773V13.1787V13.1801V13.1815V13.1828V13.1842V13.1855V13.1868V13.1881V13.1894V13.1907V13.192V13.1932V13.1945V13.1957V13.1969V13.1981V13.1993V13.2005V13.2017V13.2028V13.204V13.2051V13.2062V13.2073V13.2084V13.2095V13.2105V13.2116V13.2126V13.2137V13.2147V13.2157V13.2167V13.2176V13.2186V13.2196V13.2205V13.2214V13.2224V13.2233V13.2242V13.225V13.2259V13.2268V13.2276V13.2284V13.2293V13.2301V13.2309V13.2317V13.2324V13.2332V13.2339V13.2347V13.2354V13.2361V13.2368V13.2375V13.2382V13.2388V13.2395V13.2401V13.2408V13.2414V13.242V13.2426V13.2432V13.2437V13.2443V13.2448V13.2454V13.2459V13.2464V13.2469V13.2474V13.2479V13.2484V13.2488V13.2493V13.2497V13.2501V13.2505V13.2509V13.2513V13.2517V13.2521V13.2524V13.2528V13.2531V13.2534V13.2537V13.254V13.2543V13.2546V13.2548V13.2551V13.2553V13.2556V13.2558V13.256V13.2562V13.2564V13.2566V13.2567V13.2569V13.257V13.2572V13.2573V13.2574V13.2575V13.2576V13.2577V13.2577V13.2578V13.2579V13.2579V13.2579V13.2579C14.5 13.6678 14.1666 14 13.7553 14C13.344 14 13.0106 13.6678 13.0106 13.2579V13.2579V13.2579V13.2579V13.2578V13.2577V13.2577V13.2576V13.2575V13.2574V13.2573V13.2572V13.257V13.2569V13.2567V13.2566V13.2564V13.2562V13.256V13.2558V13.2556V13.2553V13.2551V13.2548V13.2546V13.2543V13.254V13.2537V13.2534V13.2531V13.2528V13.2524V13.2521V13.2517V13.2513V13.2509V13.2505V13.2501V13.2497V13.2493V13.2488V13.2484V13.2479V13.2474V13.2469V13.2464V13.2459V13.2454V13.2448V13.2443V13.2437V13.2432V13.2426V13.242V13.2414V13.2408V13.2401V13.2395V13.2388V13.2382V13.2375V13.2368V13.2361V13.2354V13.2347V13.2339V13.2332V13.2324V13.2317V13.2309V13.2301V13.2293V13.2284V13.2276V13.2268V13.2259V13.225V13.2242V13.2233V13.2224V13.2214V13.2205V13.2196V13.2186V13.2176V13.2167V13.2157V13.2147V13.2137V13.2126V13.2116V13.2105V13.2095V13.2084V13.2073V13.2062V13.2051V13.204V13.2028V13.2017V13.2005V13.1993V13.1981V13.1969V13.1957V13.1945V13.1932V13.192V13.1907V13.1894V13.1881V13.1868V13.1855V13.1842V13.1828V13.1815V13.1801V13.1787V13.1773V13.1759V13.1745V13.173V13.1716V13.1701V13.1687V13.1672V13.1657V13.1642V13.1626V13.1611V13.1595V13.158V13.1564V13.1548V13.1532V13.1516V13.1499V13.1483V13.1466V13.1449V13.1432V13.1415V13.1398V13.1381V13.1364V13.1346V13.1328V13.131V13.1292V13.1274V13.1256V13.1238V13.1219V13.1201V13.1182V13.1163V13.1144V13.1125V13.1105V13.1086V13.1066V13.1046V13.1027V13.1006V13.0986V13.0966V13.0946V13.0925V13.0904V13.0883V13.0862V13.0841V13.082V13.0798V13.0777V13.0755V13.0733V13.0711V13.0689V13.0667V13.0644V13.0622V13.0599V13.0576V13.0553V13.053V13.0507V13.0483V13.046V13.0436V13.0412V13.0388V13.0364V13.034V13.0315V13.029V13.0266V13.0241V13.0216V13.0191V13.0165V13.014V13.0114V13.0088V13.0062V13.0036V13.001V12.9984V12.9957V12.9931V12.9904V12.9877V12.985V12.9822V12.9795V12.9767V12.974V12.9712V12.9684V12.9656V12.9627V12.9599V12.957V12.9541V12.9513V12.9483V12.9454V12.9425V12.9395V12.9366V12.9336V12.9306V12.9276V12.9245V12.9215V12.9184V12.9153V12.9123V12.9091V12.906V12.9029V12.8997V12.8966V12.8934V12.8902V12.887V12.8837V12.8805V12.8772V12.8739V12.8706V12.8673V12.864V12.8607V12.8573V12.8539V12.8505V12.8471V12.8437V12.8403V12.8368V12.8334V12.8299V12.8264V12.8229V12.8193V12.8158V12.8122V12.8086V12.805V12.8014V12.7978V12.7941V12.7905V12.7868V12.7831V12.7794V12.7757V12.7719V12.7682V12.7644V12.7606V12.7568V12.753V12.7491V12.7453V12.7414V12.7375V12.7336V12.7297V12.7257V12.7218V12.7178V12.7138V12.7098V12.7058V12.7017V12.6977V12.6936V12.6895V12.6854V12.6813V12.6771V12.673V12.6688V12.6646V12.6604V12.6562V12.6519V12.6477V12.6434V12.6391V12.6348V12.6305V12.6261V12.6218V12.6174V12.613V12.6086V12.6041V12.5997V12.5952V12.5907V12.5862V12.5817V12.5772V12.5726V12.5681V12.5635V12.5589V12.5543V12.5496V12.545V12.5403V12.5356V12.5309V12.5262V12.5214V12.5167V12.5119V12.5071V12.5023V12.4975V12.4926V12.4878V12.4829V12.478V12.4731V12.4681V12.4632V12.4582V12.4532V12.4482V12.4432V12.4381V12.4331V12.428V12.4229V12.4178V12.4126V12.4075V12.4023V12.3971V12.3919V12.3867V12.3815V12.3762V12.3709V12.3656V12.3603V12.355V12.3496V12.3443V12.3389V12.3335V12.328V12.3226V12.3171V12.3117V12.3062V12.3007V12.2951V12.2896V12.284V12.2784V12.2728V12.2672V12.2615V12.2559V12.2502V12.2445V12.2388V12.233V12.2273V12.2215V12.2157V12.2099V12.2041V12.1982V12.1923V12.1865V12.1805V12.1746V12.1687V12.1627V12.1567V12.1507V12.1447V12.1387V12.1326V12.1265V12.1204V12.1143V12.1082V12.102V12.0959V12.0897V12.0835V12.0772V12.071V12.0647V12.0584V12.0521V12.0458V12.0394V12.0331V12.0267V12.0203V12.0139V12.0074V12.001V11.9945V11.988V11.9815V11.9749V11.9684V11.9618V11.9552V11.9486V11.9419V11.9353V11.9286V11.9219V11.9152V11.9084V11.9017V11.8949V11.8881V11.8813V11.8745V11.8676V11.8607V11.8538V11.8469V11.84V11.833V11.8261V11.8191V11.812V11.805V11.798V11.7909V11.7838V11.7767V11.7695V11.7624V11.7552V11.748V11.7408V11.7336V11.7263V11.719V11.7117V11.7044V11.6971V11.6897V11.6823V11.6749V11.6675V11.6601V11.6526V11.6451V11.6376V11.6301V11.6226V11.615V11.6074V11.5998V11.5922V11.5845V11.5769V11.5692V11.5615V11.5537V11.546V11.5382V11.5304V11.5226V11.5148V11.5069V11.4991V11.4912V11.4833V11.4753V11.4674V11.4594V11.4514V11.4434V11.4353V11.4272V11.4192V11.4111C13.0106 11.1184 12.8962 10.7286 12.604 10.418C12.3284 10.1249 11.8398 9.84451 10.9752 9.84451C10.5639 9.84451 10.2305 9.51228 10.2305 9.10246Z" fill="#2D5BFF"/>
</svg>
