<svg width="27" height="28" viewBox="0 0 27 28" fill="none" xmlns="http://www.w3.org/2000/svg">
<path fill-rule="evenodd" clip-rule="evenodd" d="M17.4379 8.66663C17.4379 13.0849 13.8562 16.6666 9.43791 16.6666C5.01964 16.6666 1.43791 13.0849 1.43791 8.66663C1.43791 4.24835 5.01964 0.666626 9.43791 0.666626C13.8562 0.666626 17.4379 4.24835 17.4379 8.66663ZM9.43791 14C12.3834 14 14.7712 11.6121 14.7712 8.66663C14.7712 5.72111 12.3834 3.33329 9.43791 3.33329C6.49239 3.33329 4.10458 5.72111 4.10458 8.66663C4.10458 11.6121 6.49239 14 9.43791 14ZM4.13785 21.5838C2.91229 22.1542 2.83366 22.6521 2.83366 22.6666V22.6764V22.6862V22.6959V22.7057V22.7155V22.7252V22.735V22.7447V22.7545V22.7643V22.774V22.7838V22.7936V22.8033V22.8131V22.8228V22.8326V22.8423V22.8521V22.8618V22.8716V22.8813V22.8911V22.9008V22.9106V22.9203V22.9301V22.9398V22.9495V22.9593V22.969V22.9787V22.9884V22.9982V23.0079V23.0176V23.0273V23.037V23.0467V23.0565V23.0662V23.0759V23.0856V23.0953V23.1049V23.1146V23.1243V23.134V23.1437V23.1534V23.163V23.1727V23.1824V23.192V23.2017V23.2113V23.221V23.2306V23.2402V23.2499V23.2595V23.2691V23.2788V23.2884V23.298V23.3076V23.3172V23.3268V23.3364V23.346V23.3555V23.3651V23.3747V23.3843V23.3938V23.4034V23.4129V23.4225V23.432V23.4415V23.451V23.4606V23.4701V23.4796V23.4891V23.4986V23.5081V23.5175V23.527V23.5365V23.5459V23.5554V23.5648V23.5743V23.5837V23.5931V23.6026V23.612V23.6214V23.6308V23.6402V23.6495V23.6589V23.6683V23.6776V23.687V23.6963V23.7057V23.715V23.7243V23.7336V23.7429V23.7522V23.7615V23.7708V23.7801V23.7893V23.7986V23.8078V23.817V23.8263V23.8355V23.8447V23.8539V23.8631V23.8723V23.8814V23.8906V23.8997V23.9089V23.918V23.9271V23.9362V23.9453V23.9544V23.9635V23.9726V23.9816V23.9907V23.9997V24.0088V24.0178V24.0268V24.0358V24.0448V24.0538V24.0627V24.0717V24.0806V24.0896V24.0985V24.1074V24.1163V24.1252V24.1341V24.1429V24.1518V24.1606V24.1694V24.1783V24.1871V24.1959V24.2046V24.2134V24.2222V24.2309V24.2397V24.2484V24.2571V24.2658V24.2745V24.2831V24.2918V24.3004V24.3091V24.3177V24.3263V24.3349V24.3435V24.352V24.3606V24.3691V24.3776V24.3861V24.3946V24.4031V24.4116V24.4201V24.4285V24.4369V24.4453V24.4537V24.4621V24.4705V24.4788V24.4872V24.4955V24.5038V24.5121V24.5204V24.5287V24.5369V24.5452V24.5534V24.5616V24.5698V24.578V24.5861V24.5943V24.6024V24.6105V24.6186V24.6267V24.6348V24.6428V24.6509V24.6589V24.6669V24.6749V24.6828V24.6908V24.6987V24.7067V24.7146V24.7224V24.7303V24.7382V24.746V24.7538V24.7616V24.7694V24.7772V24.7849V24.7927V24.8004V24.8081V24.8158V24.8234V24.8311V24.8387V24.8463V24.8539V24.8615V24.869V24.8766V24.8841V24.8916V24.8991V24.9066V24.914V24.9214V24.9288V24.9362V24.9436V24.951V24.9583V24.9656V24.9729V24.9802V24.9874V24.9947V25.0019V25.0091V25.0163V25.0234V25.0306V25.0377V25.0448V25.0519V25.0589V25.066V25.073V25.08V25.087V25.0939V25.1009V25.1078V25.1147V25.1216V25.1284V25.1352V25.1421V25.1488V25.1556V25.1624V25.1691V25.1758V25.1825V25.1892V25.1958V25.2024V25.209V25.2156V25.2222V25.2287V25.2352V25.2417V25.2482V25.2546V25.261V25.2674V25.2738V25.2802V25.2865V25.2928V25.2991V25.3054V25.3116V25.3178V25.324V25.3302V25.3364V25.3425V25.3486V25.3547V25.3607V25.3668V25.3728V25.3788V25.3847V25.3907V25.3966V25.4025V25.4083V25.4142V25.42V25.4258V25.4316V25.4373V25.443V25.4487V25.4544V25.46V25.4657V25.4713V25.4768V25.4824V25.4879V25.4934V25.4989V25.5043V25.5097V25.5151V25.5205V25.5259V25.5312V25.5365V25.5417V25.547V25.5522V25.5574V25.5625V25.5677V25.5728V25.5779V25.5829V25.588V25.593V25.5979V25.6029V25.6078V25.6127V25.6176V25.6224V25.6272V25.632V25.6368V25.6415V25.6462V25.6509V25.6556V25.6602V25.6648V25.6694V25.6739V25.6784V25.6829V25.6874V25.6918V25.6962V25.7006V25.7049V25.7092V25.7135V25.7178V25.722V25.7262V25.7304V25.7345V25.7386V25.7427V25.7468V25.7508V25.7548V25.7588V25.7627V25.7666V25.7705V25.7743V25.7781V25.7819V25.7857V25.7894V25.7931V25.7968V25.8004V25.8041V25.8076V25.8112V25.8147V25.8182V25.8216V25.8251V25.8285V25.8318V25.8352V25.8385V25.8417V25.845V25.8482V25.8514V25.8545V25.8576V25.8607V25.8638V25.8668V25.8698V25.8727V25.8757V25.8786V25.8814V25.8842V25.887V25.8898V25.8925V25.8952V25.8979V25.9005V25.9031V25.9057V25.9083V25.9108V25.9132V25.9157V25.9181V25.9204V25.9228V25.9251V25.9274V25.9296V25.9318V25.934V25.9361V25.9382V25.9403V25.9423V25.9443V25.9463V25.9482V25.9501V25.952V25.9538V25.9556V25.9574V25.9591V25.9608V25.9625V25.9641V25.9657V25.9672V25.9688V25.9702V25.9717V25.9731V25.9745V25.9758V25.9784V25.9808V25.9831V25.9853V25.9873V25.9891V25.9909V25.9924V25.9939V25.9957V25.9972V25.9987C2.83366 26.7351 2.23671 27.3333 1.50033 27.3333C0.763946 27.3333 0.166992 26.7363 0.166992 25.9999V25.9984V25.9968V25.9951V25.9932V25.9917V25.99V25.9882V25.9863V25.9842V25.982V25.9796V25.9771V25.9745V25.9731V25.9717V25.9702V25.9688V25.9672V25.9657V25.9641V25.9625V25.9608V25.9591V25.9574V25.9556V25.9538V25.952V25.9501V25.9482V25.9463V25.9443V25.9423V25.9403V25.9382V25.9361V25.934V25.9318V25.9296V25.9274V25.9251V25.9228V25.9204V25.9181V25.9157V25.9132V25.9108V25.9083V25.9057V25.9031V25.9005V25.8979V25.8952V25.8925V25.8898V25.887V25.8842V25.8814V25.8786V25.8757V25.8727V25.8698V25.8668V25.8638V25.8607V25.8576V25.8545V25.8514V25.8482V25.845V25.8417V25.8385V25.8352V25.8318V25.8285V25.8251V25.8216V25.8182V25.8147V25.8112V25.8076V25.8041V25.8004V25.7968V25.7931V25.7894V25.7857V25.7819V25.7781V25.7743V25.7705V25.7666V25.7627V25.7588V25.7548V25.7508V25.7468V25.7427V25.7386V25.7345V25.7304V25.7262V25.722V25.7178V25.7135V25.7092V25.7049V25.7006V25.6962V25.6918V25.6874V25.6829V25.6784V25.6739V25.6694V25.6648V25.6602V25.6556V25.6509V25.6462V25.6415V25.6368V25.632V25.6272V25.6224V25.6176V25.6127V25.6078V25.6029V25.5979V25.593V25.588V25.5829V25.5779V25.5728V25.5677V25.5625V25.5574V25.5522V25.547V25.5417V25.5365V25.5312V25.5259V25.5205V25.5151V25.5097V25.5043V25.4989V25.4934V25.4879V25.4824V25.4768V25.4713V25.4657V25.46V25.4544V25.4487V25.443V25.4373V25.4316V25.4258V25.42V25.4142V25.4083V25.4025V25.3966V25.3907V25.3847V25.3788V25.3728V25.3668V25.3607V25.3547V25.3486V25.3425V25.3364V25.3302V25.324V25.3178V25.3116V25.3054V25.2991V25.2928V25.2865V25.2802V25.2738V25.2674V25.261V25.2546V25.2482V25.2417V25.2352V25.2287V25.2222V25.2156V25.209V25.2024V25.1958V25.1892V25.1825V25.1758V25.1691V25.1624V25.1556V25.1488V25.1421V25.1352V25.1284V25.1216V25.1147V25.1078V25.1009V25.0939V25.087V25.08V25.073V25.066V25.0589V25.0519V25.0448V25.0377V25.0306V25.0234V25.0163V25.0091V25.0019V24.9947V24.9874V24.9802V24.9729V24.9656V24.9583V24.951V24.9436V24.9362V24.9288V24.9214V24.914V24.9066V24.8991V24.8916V24.8841V24.8766V24.869V24.8615V24.8539V24.8463V24.8387V24.8311V24.8234V24.8158V24.8081V24.8004V24.7927V24.7849V24.7772V24.7694V24.7616V24.7538V24.746V24.7382V24.7303V24.7224V24.7146V24.7067V24.6987V24.6908V24.6828V24.6749V24.6669V24.6589V24.6509V24.6428V24.6348V24.6267V24.6186V24.6105V24.6024V24.5943V24.5861V24.578V24.5698V24.5616V24.5534V24.5452V24.5369V24.5287V24.5204V24.5121V24.5038V24.4955V24.4872V24.4788V24.4705V24.4621V24.4537V24.4453V24.4369V24.4285V24.4201V24.4116V24.4031V24.3946V24.3861V24.3776V24.3691V24.3606V24.352V24.3435V24.3349V24.3263V24.3177V24.3091V24.3004V24.2918V24.2831V24.2745V24.2658V24.2571V24.2484V24.2397V24.2309V24.2222V24.2134V24.2046V24.1959V24.1871V24.1783V24.1694V24.1606V24.1518V24.1429V24.1341V24.1252V24.1163V24.1074V24.0985V24.0896V24.0806V24.0717V24.0627V24.0538V24.0448V24.0358V24.0268V24.0178V24.0088V23.9997V23.9907V23.9816V23.9726V23.9635V23.9544V23.9453V23.9362V23.9271V23.918V23.9089V23.8997V23.8906V23.8814V23.8723V23.8631V23.8539V23.8447V23.8355V23.8263V23.817V23.8078V23.7986V23.7893V23.7801V23.7708V23.7615V23.7522V23.7429V23.7336V23.7243V23.715V23.7057V23.6963V23.687V23.6776V23.6683V23.6589V23.6495V23.6402V23.6308V23.6214V23.612V23.6026V23.5931V23.5837V23.5743V23.5648V23.5554V23.5459V23.5365V23.527V23.5175V23.5081V23.4986V23.4891V23.4796V23.4701V23.4606V23.451V23.4415V23.432V23.4225V23.4129V23.4034V23.3938V23.3843V23.3747V23.3651V23.3555V23.346V23.3364V23.3268V23.3172V23.3076V23.298V23.2884V23.2788V23.2691V23.2595V23.2499V23.2402V23.2306V23.221V23.2113V23.2017V23.192V23.1824V23.1727V23.163V23.1534V23.1437V23.134V23.1243V23.1146V23.1049V23.0953V23.0856V23.0759V23.0662V23.0565V23.0467V23.037V23.0273V23.0176V23.0079V22.9982V22.9884V22.9787V22.969V22.9593V22.9495V22.9398V22.9301V22.9203V22.9106V22.9008V22.8911V22.8813V22.8716V22.8618V22.8521V22.8423V22.8326V22.8228V22.8131V22.8033V22.7936V22.7838V22.774V22.7643V22.7545V22.7447V22.735V22.7252V22.7155V22.7057V22.6959V22.6862V22.6764V22.6666C0.166992 21.0145 1.5527 19.8457 3.01249 19.1662C4.5782 18.4374 6.73587 18 9.31309 18C11.8903 18 14.048 18.4374 15.6137 19.1662C17.0735 19.8457 18.4592 21.0145 18.4592 22.6666L18.4592 25.2708V25.8307V25.9593V25.99V25.9975V25.9993C18.4592 26.7357 17.8622 27.3333 17.1258 27.3333C16.3895 27.3333 15.7925 26.7363 15.7925 26V25.9975V25.99V25.9593V25.8307V25.2708L15.7925 22.6666C15.7925 22.6521 15.7139 22.1542 14.4883 21.5837C13.3687 21.0626 11.62 20.6666 9.31309 20.6666C7.0062 20.6666 5.2575 21.0626 4.13785 21.5838ZM18.463 3.8429C18.463 3.10652 19.06 2.50956 19.7964 2.50956C23.4783 2.50956 26.463 5.49433 26.463 9.17623C26.463 12.8581 23.4783 15.8429 19.7964 15.8429C19.06 15.8429 18.463 15.2459 18.463 14.5096C18.463 13.7732 19.06 13.1762 19.7964 13.1762C22.0055 13.1762 23.7964 11.3854 23.7964 9.17623C23.7964 6.96709 22.0055 5.17623 19.7964 5.17623C19.06 5.17623 18.463 4.57928 18.463 3.8429ZM19.2525 19.4421C19.2525 18.7057 19.4306 18 20.167 18C22.4169 18 24.0905 18.6291 25.2199 19.6331C26.3367 20.626 26.8337 21.9141 26.8337 23.037V23.05V23.063V23.0759V23.0888V23.1017V23.1145V23.1273V23.1401V23.1528V23.1655V23.1782V23.1908V23.2034V23.216V23.2285V23.241V23.2535V23.2659V23.2783V23.2907V23.303V23.3153V23.3276V23.3398V23.352V23.3642V23.3763V23.3884V23.4005V23.4125V23.4245V23.4365V23.4484V23.4603V23.4722V23.484V23.4958V23.5076V23.5193V23.5311V23.5427V23.5544V23.566V23.5776V23.5891V23.6006V23.6121V23.6235V23.635V23.6463V23.6577V23.669V23.6803V23.6916V23.7028V23.714V23.7251V23.7362V23.7473V23.7584V23.7694V23.7804V23.7914V23.8023V23.8132V23.8241V23.8349V23.8458V23.8565V23.8673V23.878V23.8887V23.8993V23.9099V23.9205V23.9311V23.9416V23.9521V23.9626V23.973V23.9834V23.9937V24.0041V24.0144V24.0247V24.0349V24.0451V24.0553V24.0654V24.0756V24.0857V24.0957V24.1057V24.1157V24.1257V24.1356V24.1455V24.1554V24.1652V24.1751V24.1848V24.1946V24.2043V24.214V24.2237V24.2333V24.2429V24.2524V24.262V24.2715V24.281V24.2904V24.2998V24.3092V24.3186V24.3279V24.3372V24.3465V24.3557V24.3649V24.3741V24.3832V24.3923V24.4014V24.4105V24.4195V24.4285V24.4375V24.4464V24.4553V24.4642V24.473V24.4818V24.4906V24.4994V24.5081V24.5168V24.5255V24.5341V24.5428V24.5513V24.5599V24.5684V24.5769V24.5854V24.5938V24.6022V24.6106V24.619V24.6273V24.6356V24.6438V24.6521V24.6603V24.6685V24.6766V24.6847V24.6928V24.7009V24.7089V24.7169V24.7249V24.7328V24.7408V24.7486V24.7565V24.7643V24.7721V24.7799V24.7877V24.7954V24.8031V24.8108V24.8184V24.826V24.8336V24.8411V24.8487V24.8561V24.8636V24.8711V24.8785V24.8858V24.8932V24.9005V24.9078V24.9151V24.9224V24.9296V24.9368V24.9439V24.9511V24.9582V24.9652V24.9723V24.9793V24.9863V24.9933V25.0002V25.0071V25.014V25.0209V25.0277V25.0345V25.0413V25.0481V25.0548V25.0615V25.0682V25.0748V25.0814V25.088V25.0946V25.1011V25.1076V25.1141V25.1206V25.127V25.1334V25.1398V25.1461V25.1524V25.1587V25.165V25.1712V25.1775V25.1836V25.1898V25.1959V25.2021V25.2081V25.2142V25.2202V25.2262V25.2322V25.2382V25.2441V25.25V25.2559V25.2617V25.2676V25.2733V25.2791V25.2849V25.2906V25.2963V25.3019V25.3076V25.3132V25.3188V25.3244V25.3299V25.3354V25.3409V25.3464V25.3518V25.3572V25.3626V25.368V25.3733V25.3786V25.3839V25.3892V25.3944V25.3996V25.4048V25.41V25.4151V25.4202V25.4253V25.4303V25.4354V25.4404V25.4454V25.4503V25.4553V25.4602V25.4651V25.4699V25.4748V25.4796V25.4844V25.4891V25.4939V25.4986V25.5033V25.5079V25.5126V25.5172V25.5218V25.5264V25.5309V25.5354V25.5399V25.5444V25.5488V25.5533V25.5577V25.562V25.5664V25.5707V25.575V25.5793V25.5835V25.5878V25.592V25.5962V25.6003V25.6045V25.6086V25.6127V25.6167V25.6208V25.6248V25.6288V25.6327V25.6367V25.6406V25.6445V25.6484V25.6523V25.6561V25.6599V25.6637V25.6674V25.6712V25.6749V25.6786V25.6822V25.6859V25.6895V25.6931V25.6967V25.7002V25.7038V25.7073V25.7108V25.7142V25.7177V25.7211V25.7245V25.7279V25.7312V25.7345V25.7378V25.7411V25.7444V25.7476V25.7508V25.754V25.7572V25.7603V25.7635V25.7666V25.7696V25.7727V25.7757V25.7788V25.7818V25.7847V25.7877V25.7906V25.7935V25.7964V25.7992V25.8021V25.8049V25.8077V25.8105V25.8132V25.816V25.8187V25.8214V25.824V25.8267V25.8293V25.8319V25.8345V25.837V25.8396V25.8421V25.8446V25.847V25.8495V25.8519V25.8543V25.8567V25.8591V25.8614V25.8638V25.8661V25.8684V25.8706V25.8729V25.8751V25.8773V25.8795V25.8816V25.8838V25.8859V25.888V25.89V25.8921V25.8941V25.8961V25.8981V25.9001V25.9021V25.904V25.9059V25.9078V25.9097V25.9115V25.9134V25.9152V25.917V25.9187V25.9205V25.9222V25.9239V25.9256V25.9273V25.9289V25.9305V25.9322V25.9338V25.9353V25.9369V25.9384V25.9399V25.9414V25.9429V25.9443V25.9458V25.9472V25.9486V25.9499V25.9513V25.9526V25.9553V25.9578V25.9602V25.9626V25.9649V25.9672V25.9693V25.9714V25.9734V25.9753V25.9772V25.979V25.9807V25.9823V25.9838V25.9853V25.9867V25.9881V25.9899V25.9916V25.9932V25.9946V25.9962V25.9978V25.9991C26.8337 26.7355 26.2367 27.3333 25.5003 27.3333C24.7639 27.3333 24.167 26.7363 24.167 26V25.9985V25.9972V25.9958V25.9941V25.9927V25.9911V25.9893V25.9874V25.986V25.9846V25.9831V25.9815V25.9798V25.9781V25.9763V25.9744V25.9724V25.9704V25.9683V25.9661V25.9638V25.9614V25.959V25.9565V25.954V25.9513V25.9499V25.9486V25.9472V25.9458V25.9443V25.9429V25.9414V25.9399V25.9384V25.9369V25.9353V25.9338V25.9322V25.9305V25.9289V25.9273V25.9256V25.9239V25.9222V25.9205V25.9187V25.917V25.9152V25.9134V25.9115V25.9097V25.9078V25.9059V25.904V25.9021V25.9001V25.8981V25.8961V25.8941V25.8921V25.89V25.888V25.8859V25.8838V25.8816V25.8795V25.8773V25.8751V25.8729V25.8706V25.8684V25.8661V25.8638V25.8614V25.8591V25.8567V25.8543V25.8519V25.8495V25.847V25.8446V25.8421V25.8396V25.837V25.8345V25.8319V25.8293V25.8267V25.824V25.8214V25.8187V25.816V25.8132V25.8105V25.8077V25.8049V25.8021V25.7992V25.7964V25.7935V25.7906V25.7877V25.7847V25.7818V25.7788V25.7757V25.7727V25.7696V25.7666V25.7635V25.7603V25.7572V25.754V25.7508V25.7476V25.7444V25.7411V25.7378V25.7345V25.7312V25.7279V25.7245V25.7211V25.7177V25.7142V25.7108V25.7073V25.7038V25.7002V25.6967V25.6931V25.6895V25.6859V25.6822V25.6786V25.6749V25.6712V25.6674V25.6637V25.6599V25.6561V25.6523V25.6484V25.6445V25.6406V25.6367V25.6327V25.6288V25.6248V25.6208V25.6167V25.6127V25.6086V25.6045V25.6003V25.5962V25.592V25.5878V25.5835V25.5793V25.575V25.5707V25.5664V25.562V25.5577V25.5533V25.5488V25.5444V25.5399V25.5354V25.5309V25.5264V25.5218V25.5172V25.5126V25.5079V25.5033V25.4986V25.4939V25.4891V25.4844V25.4796V25.4748V25.4699V25.4651V25.4602V25.4553V25.4503V25.4454V25.4404V25.4354V25.4303V25.4253V25.4202V25.4151V25.41V25.4048V25.3996V25.3944V25.3892V25.3839V25.3786V25.3733V25.368V25.3626V25.3572V25.3518V25.3464V25.3409V25.3354V25.3299V25.3244V25.3188V25.3132V25.3076V25.3019V25.2963V25.2906V25.2849V25.2791V25.2733V25.2676V25.2617V25.2559V25.25V25.2441V25.2382V25.2322V25.2262V25.2202V25.2142V25.2081V25.2021V25.1959V25.1898V25.1836V25.1775V25.1712V25.165V25.1587V25.1524V25.1461V25.1398V25.1334V25.127V25.1206V25.1141V25.1076V25.1011V25.0946V25.088V25.0814V25.0748V25.0682V25.0615V25.0548V25.0481V25.0413V25.0345V25.0277V25.0209V25.014V25.0071V25.0002V24.9933V24.9863V24.9793V24.9723V24.9652V24.9582V24.9511V24.9439V24.9368V24.9296V24.9224V24.9151V24.9078V24.9005V24.8932V24.8858V24.8785V24.8711V24.8636V24.8561V24.8487V24.8411V24.8336V24.826V24.8184V24.8108V24.8031V24.7954V24.7877V24.7799V24.7721V24.7643V24.7565V24.7486V24.7408V24.7328V24.7249V24.7169V24.7089V24.7009V24.6928V24.6847V24.6766V24.6685V24.6603V24.6521V24.6438V24.6356V24.6273V24.619V24.6106V24.6022V24.5938V24.5854V24.5769V24.5684V24.5599V24.5513V24.5428V24.5341V24.5255V24.5168V24.5081V24.4994V24.4906V24.4818V24.473V24.4642V24.4553V24.4464V24.4375V24.4285V24.4195V24.4105V24.4014V24.3923V24.3832V24.3741V24.3649V24.3557V24.3465V24.3372V24.3279V24.3186V24.3092V24.2998V24.2904V24.281V24.2715V24.262V24.2524V24.2429V24.2333V24.2237V24.214V24.2043V24.1946V24.1848V24.1751V24.1652V24.1554V24.1455V24.1356V24.1257V24.1157V24.1057V24.0957V24.0857V24.0756V24.0654V24.0553V24.0451V24.0349V24.0247V24.0144V24.0041V23.9937V23.9834V23.973V23.9626V23.9521V23.9416V23.9311V23.9205V23.9099V23.8993V23.8887V23.878V23.8673V23.8565V23.8458V23.8349V23.8241V23.8132V23.8023V23.7914V23.7804V23.7694V23.7584V23.7473V23.7362V23.7251V23.714V23.7028V23.6916V23.6803V23.669V23.6577V23.6463V23.635V23.6235V23.6121V23.6006V23.5891V23.5776V23.566V23.5544V23.5427V23.5311V23.5193V23.5076V23.4958V23.484V23.4722V23.4603V23.4484V23.4365V23.4245V23.4125V23.4005V23.3884V23.3763V23.3642V23.352V23.3398V23.3276V23.3153V23.303V23.2907V23.2783V23.2659V23.2535V23.241V23.2285V23.216V23.2034V23.1908V23.1782V23.1655V23.1528V23.1401V23.1273V23.1145V23.1017V23.0888V23.0759V23.063V23.05V23.037C24.167 22.6784 23.9977 22.1147 23.4481 21.6261C22.911 21.1486 21.918 20.6666 20.167 20.6666C19.4306 20.6666 19.4386 20.2284 19.2525 19.4421Z" fill="#FFB68D"/>
<path d="M14.7712 8.66663C14.7712 11.6121 12.3834 14 9.43791 14C6.49239 14 4.10458 11.6121 4.10458 8.66663C4.10458 5.72111 6.49239 3.33329 9.43791 3.33329C12.3834 3.33329 14.7712 5.72111 14.7712 8.66663Z" fill="#FFB68D"/>
<path d="M4.13785 21.5838C2.91229 22.1542 2.83366 22.6521 2.83366 22.6666V22.6764V22.6862V22.6959V22.7057V22.7155V22.7252V22.735V22.7447V22.7545V22.7643V22.774V22.7838V22.7936V22.8033V22.8131V22.8228V22.8326V22.8423V22.8521V22.8618V22.8716V22.8813V22.8911V22.9008V22.9106V22.9203V22.9301V22.9398V22.9495V22.9593V22.969V22.9787V22.9884V22.9982V23.0079V23.0176V23.0273V23.037V23.0467V23.0565V23.0662V23.0759V23.0856V23.0953V23.1049V23.1146V23.1243V23.134V23.1437V23.1534V23.163V23.1727V23.1824V23.192V23.2017V23.2113V23.221V23.2306V23.2402V23.2499V23.2595V23.2691V23.2788V23.2884V23.298V23.3076V23.3172V23.3268V23.3364V23.346V23.3555V23.3651V23.3747V23.3843V23.3938V23.4034V23.4129V23.4225V23.432V23.4415V23.451V23.4606V23.4701V23.4796V23.4891V23.4986V23.5081V23.5175V23.527V23.5365V23.5459V23.5554V23.5648V23.5743V23.5837V23.5931V23.6026V23.612V23.6214V23.6308V23.6402V23.6495V23.6589V23.6683V23.6776V23.687V23.6963V23.7057V23.715V23.7243V23.7336V23.7429V23.7522V23.7615V23.7708V23.7801V23.7893V23.7986V23.8078V23.817V23.8263V23.8355V23.8447V23.8539V23.8631V23.8723V23.8814V23.8906V23.8997V23.9089V23.918V23.9271V23.9362V23.9453V23.9544V23.9635V23.9726V23.9816V23.9907V23.9997V24.0088V24.0178V24.0268V24.0358V24.0448V24.0538V24.0627V24.0717V24.0806V24.0896V24.0985V24.1074V24.1163V24.1252V24.1341V24.1429V24.1518V24.1606V24.1694V24.1783V24.1871V24.1959V24.2046V24.2134V24.2222V24.2309V24.2397V24.2484V24.2571V24.2658V24.2745V24.2831V24.2918V24.3004V24.3091V24.3177V24.3263V24.3349V24.3435V24.352V24.3606V24.3691V24.3776V24.3861V24.3946V24.4031V24.4116V24.4201V24.4285V24.4369V24.4453V24.4537V24.4621V24.4705V24.4788V24.4872V24.4955V24.5038V24.5121V24.5204V24.5287V24.5369V24.5452V24.5534V24.5616V24.5698V24.578V24.5861V24.5943V24.6024V24.6105V24.6186V24.6267V24.6348V24.6428V24.6509V24.6589V24.6669V24.6749V24.6828V24.6908V24.6987V24.7067V24.7146V24.7224V24.7303V24.7382V24.746V24.7538V24.7616V24.7694V24.7772V24.7849V24.7927V24.8004V24.8081V24.8158V24.8234V24.8311V24.8387V24.8463V24.8539V24.8615V24.869V24.8766V24.8841V24.8916V24.8991V24.9066V24.914V24.9214V24.9288V24.9362V24.9436V24.951V24.9583V24.9656V24.9729V24.9802V24.9874V24.9947V25.0019V25.0091V25.0163V25.0234V25.0306V25.0377V25.0448V25.0519V25.0589V25.066V25.073V25.08V25.087V25.0939V25.1009V25.1078V25.1147V25.1216V25.1284V25.1352V25.1421V25.1488V25.1556V25.1624V25.1691V25.1758V25.1825V25.1892V25.1958V25.2024V25.209V25.2156V25.2222V25.2287V25.2352V25.2417V25.2482V25.2546V25.261V25.2674V25.2738V25.2802V25.2865V25.2928V25.2991V25.3054V25.3116V25.3178V25.324V25.3302V25.3364V25.3425V25.3486V25.3547V25.3607V25.3668V25.3728V25.3788V25.3847V25.3907V25.3966V25.4025V25.4083V25.4142V25.42V25.4258V25.4316V25.4373V25.443V25.4487V25.4544V25.46V25.4657V25.4713V25.4768V25.4824V25.4879V25.4934V25.4989V25.5043V25.5097V25.5151V25.5205V25.5259V25.5312V25.5365V25.5417V25.547V25.5522V25.5574V25.5625V25.5677V25.5728V25.5779V25.5829V25.588V25.593V25.5979V25.6029V25.6078V25.6127V25.6176V25.6224V25.6272V25.632V25.6368V25.6415V25.6462V25.6509V25.6556V25.6602V25.6648V25.6694V25.6739V25.6784V25.6829V25.6874V25.6918V25.6962V25.7006V25.7049V25.7092V25.7135V25.7178V25.722V25.7262V25.7304V25.7345V25.7386V25.7427V25.7468V25.7508V25.7548V25.7588V25.7627V25.7666V25.7705V25.7743V25.7781V25.7819V25.7857V25.7894V25.7931V25.7968V25.8004V25.8041V25.8076V25.8112V25.8147V25.8182V25.8216V25.8251V25.8285V25.8318V25.8352V25.8385V25.8417V25.845V25.8482V25.8514V25.8545V25.8576V25.8607V25.8638V25.8668V25.8698V25.8727V25.8757V25.8786V25.8814V25.8842V25.887V25.8898V25.8925V25.8952V25.8979V25.9005V25.9031V25.9057V25.9083V25.9108V25.9132V25.9157V25.9181V25.9204V25.9228V25.9251V25.9274V25.9296V25.9318V25.934V25.9361V25.9382V25.9403V25.9423V25.9443V25.9463V25.9482V25.9501V25.952V25.9538V25.9556V25.9574V25.9591V25.9608V25.9625V25.9641V25.9657V25.9672V25.9688V25.9702V25.9717V25.9731V25.9745V25.9758V25.9784V25.9808V25.9831V25.9853V25.9873V25.9891V25.9909V25.9924V25.9939V25.9957V25.9972V25.9987C2.83366 26.7351 2.23671 27.3333 1.50033 27.3333H17.1258C16.3895 27.3333 15.7925 26.7363 15.7925 26V25.9975V25.99V25.9593V25.8307V25.2708L15.7925 22.6666C15.7925 22.6521 15.7139 22.1542 14.4883 21.5837C13.3687 21.0626 11.62 20.6666 9.31309 20.6666C7.0062 20.6666 5.2575 21.0626 4.13785 21.5838Z" fill="#FFB68D"/>
<path d="M18.463 14.5096C18.463 13.7732 19.06 13.1762 19.7964 13.1762C22.0055 13.1762 23.7964 11.3854 23.7964 9.17623C23.7964 6.96709 22.0055 5.17623 19.7964 5.17623C19.06 5.17623 18.463 4.57928 18.463 3.8429C18.463 3.8429 19.3311 7.06602 19.3311 9.17623C19.3311 11.2864 18.463 14.5096 18.463 14.5096Z" fill="#FFB68D"/>
<path d="M25.5003 27.3333C24.7639 27.3333 24.167 26.7363 24.167 26V25.9985V25.9972V25.9958V25.9941V25.9927V25.9911V25.9893V25.9874V25.986V25.9846V25.9831V25.9815V25.9798V25.9781V25.9763V25.9744V25.9724V25.9704V25.9683V25.9661V25.9638V25.9614V25.959V25.9565V25.954V25.9513V25.9499V25.9486V25.9472V25.9458V25.9443V25.9429V25.9414V25.9399V25.9384V25.9369V25.9353V25.9338V25.9322V25.9305V25.9289V25.9273V25.9256V25.9239V25.9222V25.9205V25.9187V25.917V25.9152V25.9134V25.9115V25.9097V25.9078V25.9059V25.904V25.9021V25.9001V25.8981V25.8961V25.8941V25.8921V25.89V25.888V25.8859V25.8838V25.8816V25.8795V25.8773V25.8751V25.8729V25.8706V25.8684V25.8661V25.8638V25.8614V25.8591V25.8567V25.8543V25.8519V25.8495V25.847V25.8446V25.8421V25.8396V25.837V25.8345V25.8319V25.8293V25.8267V25.824V25.8214V25.8187V25.816V25.8132V25.8105V25.8077V25.8049V25.8021V25.7992V25.7964V25.7935V25.7906V25.7877V25.7847V25.7818V25.7788V25.7757V25.7727V25.7696V25.7666V25.7635V25.7603V25.7572V25.754V25.7508V25.7476V25.7444V25.7411V25.7378V25.7345V25.7312V25.7279V25.7245V25.7211V25.7177V25.7142V25.7108V25.7073V25.7038V25.7002V25.6967V25.6931V25.6895V25.6859V25.6822V25.6786V25.6749V25.6712V25.6674V25.6637V25.6599V25.6561V25.6523V25.6484V25.6445V25.6406V25.6367V25.6327V25.6288V25.6248V25.6208V25.6167V25.6127V25.6086V25.6045V25.6003V25.5962V25.592V25.5878V25.5835V25.5793V25.575V25.5707V25.5664V25.562V25.5577V25.5533V25.5488V25.5444V25.5399V25.5354V25.5309V25.5264V25.5218V25.5172V25.5126V25.5079V25.5033V25.4986V25.4939V25.4891V25.4844V25.4796V25.4748V25.4699V25.4651V25.4602V25.4553V25.4503V25.4454V25.4404V25.4354V25.4303V25.4253V25.4202V25.4151V25.41V25.4048V25.3996V25.3944V25.3892V25.3839V25.3786V25.3733V25.368V25.3626V25.3572V25.3518V25.3464V25.3409V25.3354V25.3299V25.3244V25.3188V25.3132V25.3076V25.3019V25.2963V25.2906V25.2849V25.2791V25.2733V25.2676V25.2617V25.2559V25.25V25.2441V25.2382V25.2322V25.2262V25.2202V25.2142V25.2081V25.2021V25.1959V25.1898V25.1836V25.1775V25.1712V25.165V25.1587V25.1524V25.1461V25.1398V25.1334V25.127V25.1206V25.1141V25.1076V25.1011V25.0946V25.088V25.0814V25.0748V25.0682V25.0615V25.0548V25.0481V25.0413V25.0345V25.0277V25.0209V25.014V25.0071V25.0002V24.9933V24.9863V24.9793V24.9723V24.9652V24.9582V24.9511V24.9439V24.9368V24.9296V24.9224V24.9151V24.9078V24.9005V24.8932V24.8858V24.8785V24.8711V24.8636V24.8561V24.8487V24.8411V24.8336V24.826V24.8184V24.8108V24.8031V24.7954V24.7877V24.7799V24.7721V24.7643V24.7565V24.7486V24.7408V24.7328V24.7249V24.7169V24.7089V24.7009V24.6928V24.6847V24.6766V24.6685V24.6603V24.6521V24.6438V24.6356V24.6273V24.619V24.6106V24.6022V24.5938V24.5854V24.5769V24.5684V24.5599V24.5513V24.5428V24.5341V24.5255V24.5168V24.5081V24.4994V24.4906V24.4818V24.473V24.4642V24.4553V24.4464V24.4375V24.4285V24.4195V24.4105V24.4014V24.3923V24.3832V24.3741V24.3649V24.3557V24.3465V24.3372V24.3279V24.3186V24.3092V24.2998V24.2904V24.281V24.2715V24.262V24.2524V24.2429V24.2333V24.2237V24.214V24.2043V24.1946V24.1848V24.1751V24.1652V24.1554V24.1455V24.1356V24.1257V24.1157V24.1057V24.0957V24.0857V24.0756V24.0654V24.0553V24.0451V24.0349V24.0247V24.0144V24.0041V23.9937V23.9834V23.973V23.9626V23.9521V23.9416V23.9311V23.9205V23.9099V23.8993V23.8887V23.878V23.8673V23.8565V23.8458V23.8349V23.8241V23.8132V23.8023V23.7914V23.7804V23.7694V23.7584V23.7473V23.7362V23.7251V23.714V23.7028V23.6916V23.6803V23.669V23.6577V23.6463V23.635V23.6235V23.6121V23.6006V23.5891V23.5776V23.566V23.5544V23.5427V23.5311V23.5193V23.5076V23.4958V23.484V23.4722V23.4603V23.4484V23.4365V23.4245V23.4125V23.4005V23.3884V23.3763V23.3642V23.352V23.3398V23.3276V23.3153V23.303V23.2907V23.2783V23.2659V23.2535V23.241V23.2285V23.216V23.2034V23.1908V23.1782V23.1655V23.1528V23.1401V23.1273V23.1145V23.1017V23.0888V23.0759V23.063V23.05V23.037C24.167 22.6784 23.9977 22.1147 23.4481 21.6261C22.911 21.1486 21.918 20.6666 20.167 20.6666C19.4306 20.6666 19.4386 20.2284 19.2525 19.4421C19.2819 19.8859 19.676 21.5756 19.8369 23.0888C19.8369 25.0912 19.76 27.3333 19.76 27.3333H25.5003Z" fill="#FFB68D"/>
</svg>
